<svg width="146" height="530" viewBox="0 0 146 530" fill="none" xmlns="http://www.w3.org/2000/svg">
<g clip-path="url(#clip0_4626_2068)">
<path d="M45.6641 395.68C45.6269 395.328 45.2506 395.131 44.9116 395.286C44.5601 395.323 44.3631 395.699 44.5175 396.038C45.2717 398.683 46.0259 401.328 46.8972 403.96C47.0392 404.182 47.2983 404.391 47.5326 404.366L47.6497 404.354C47.9888 404.2 48.0811 403.953 48.0438 403.601C47.2896 400.957 46.4183 398.325 45.6641 395.68Z" fill="#6590C1"/>
<path d="M38.5964 334.592C38.8306 334.568 39.0401 334.308 39.1324 334.062C39.3154 331.318 39.6155 328.561 39.928 325.922C40.0079 325.558 39.7488 325.349 39.385 325.269C39.0211 325.189 38.8116 325.448 38.7318 325.812C38.4316 328.568 38.1315 331.325 37.9485 334.069C37.8562 334.315 38.1278 334.642 38.5964 334.592Z" fill="#6590C1"/>
<path d="M38.7358 348.201C38.6845 345.481 38.7503 342.75 38.8161 340.018C38.7789 339.667 38.5198 339.457 38.2731 339.365C37.9216 339.402 37.7122 339.662 37.6199 339.908C37.554 342.64 37.5006 345.489 37.5519 348.208C37.5892 348.559 37.8483 348.769 38.1997 348.731C38.434 348.707 38.7606 348.435 38.7358 348.201Z" fill="#6590C1"/>
<path d="M44.2356 390.027C43.5986 387.37 42.9615 384.713 42.4417 382.043C42.4044 381.692 42.0281 381.495 41.7938 381.519C41.4424 381.557 41.2454 381.933 41.2702 382.167C41.7901 384.837 42.4396 387.611 43.0766 390.268C43.1014 390.502 43.3606 390.712 43.712 390.675C43.712 390.675 43.712 390.675 43.8291 390.662C44.0634 390.637 44.2605 390.261 44.2356 390.027Z" fill="#6590C1"/>
<path d="M40.8286 376.883C41.18 376.846 41.377 376.47 41.3522 376.236C40.9495 373.554 40.5343 370.755 40.1315 368.073C40.0943 367.721 39.718 367.524 39.4837 367.549C39.1323 367.586 38.9228 367.845 38.9601 368.197C39.2457 370.891 39.6609 373.69 40.1808 376.36C40.218 376.711 40.4771 376.921 40.8286 376.883Z" fill="#6590C1"/>
<path d="M42.627 306.682C42.7441 306.67 42.7441 306.67 42.8613 306.657C43.0956 306.633 43.3175 306.491 43.4098 306.244C44.0737 303.567 44.7377 300.891 45.5312 298.319C45.6111 297.955 45.4691 297.733 45.0929 297.536C44.729 297.456 44.5071 297.598 44.3101 297.975C43.529 300.664 42.865 303.34 42.2011 306.017C42.1087 306.263 42.2631 306.602 42.627 306.682Z" fill="#6590C1"/>
<path d="M61.4284 434.878C61.274 434.539 60.9101 434.459 60.6883 434.601C60.3493 434.755 60.2694 435.119 60.4113 435.341C61.7388 437.807 63.0539 440.155 64.3814 442.62C64.5234 442.842 64.7701 442.934 65.0044 442.91C65.1215 442.897 65.1215 442.897 65.2387 442.885C65.5777 442.73 65.6576 442.366 65.5032 442.027C63.9538 439.704 62.6263 437.239 61.4284 434.878Z" fill="#6590C1"/>
<path d="M50.0456 409.075C49.8912 408.736 49.6445 408.644 49.2931 408.681C48.954 408.836 48.8617 409.082 48.899 409.434C49.8875 412.054 50.8635 414.556 51.852 417.176C51.994 417.398 52.2531 417.607 52.4874 417.583L52.6045 417.57C52.9435 417.416 53.0234 417.052 52.8815 416.83C51.893 414.21 50.9045 411.59 50.0456 409.075Z" fill="#6590C1"/>
<path d="M38.2279 353.467C37.8764 353.504 37.667 353.763 37.7042 354.115C37.8727 356.821 38.0536 359.645 38.2221 362.352C38.2593 362.703 38.5184 362.913 38.8699 362.876C39.2213 362.838 39.4308 362.579 39.3935 362.228C39.1079 359.533 38.927 356.71 38.8757 353.99C38.8509 353.756 38.5793 353.43 38.2279 353.467Z" fill="#6590C1"/>
<path d="M55.3394 422.137C55.185 421.798 54.8212 421.718 54.5993 421.86C54.2603 422.015 54.1804 422.379 54.3224 422.6C55.4156 425.091 56.6259 427.569 57.8363 430.046C57.9782 430.268 58.2249 430.361 58.4592 430.336C58.5764 430.323 58.5764 430.323 58.6935 430.311C59.0325 430.156 59.1124 429.793 58.9704 429.571C57.5258 427.118 56.4326 424.628 55.3394 422.137Z" fill="#6590C1"/>
<path d="M49.2754 284.662C49.0287 284.569 48.6897 284.724 48.4803 284.983C47.4524 287.58 46.5418 290.164 45.7482 292.736C45.6683 293.099 45.8103 293.321 46.1866 293.518C46.3037 293.506 46.3037 293.506 46.4209 293.494C46.6552 293.469 46.877 293.327 46.9693 293.08C47.88 290.496 48.7907 287.912 49.7014 285.327C49.7937 285.081 49.6393 284.742 49.2754 284.662Z" fill="#6590C1"/>
<path d="M41.576 311.295C41.2121 311.215 41.0027 311.474 40.9104 311.721C40.3636 314.385 39.9463 317.154 39.5166 319.806C39.4367 320.17 39.6958 320.379 40.0597 320.459L40.1768 320.446C40.4111 320.422 40.633 320.28 40.7129 319.916C41.1426 317.264 41.5598 314.495 42.1067 311.831C42.0942 311.714 41.9398 311.375 41.576 311.295Z" fill="#6590C1"/>
<path d="M69.4546 246.859C69.1955 246.649 68.8441 246.686 68.647 247.063C67.1134 249.358 65.5797 251.652 64.0461 253.947C63.8366 254.206 63.991 254.545 64.2501 254.755C64.3797 254.86 64.4969 254.847 64.614 254.835C64.7311 254.822 64.953 254.68 65.0577 254.551C66.4743 252.268 68.0079 249.973 69.5416 247.679C69.751 247.419 69.7138 247.068 69.4546 246.859Z" fill="#6590C1"/>
<path d="M93.4576 481.118C93.1984 480.908 92.8346 480.829 92.6251 481.088C92.4157 481.347 92.3358 481.711 92.5949 481.92C94.3537 483.984 96.2297 486.036 98.1056 488.088C98.2352 488.193 98.3648 488.298 98.5991 488.273C98.7162 488.26 98.8333 488.248 98.9381 488.118C99.1475 487.859 99.2274 487.496 98.9683 487.286C97.0923 485.234 95.2164 483.182 93.4576 481.118Z" fill="#6590C1"/>
<path d="M84.3671 470.235C84.2251 470.014 83.7441 469.946 83.5222 470.088C83.3004 470.23 83.2329 470.711 83.3749 470.933C85.029 473.127 86.7878 475.191 88.559 477.373C88.6886 477.477 88.9353 477.57 89.0524 477.557C89.1696 477.545 89.2867 477.532 89.3914 477.403C89.6009 477.144 89.6808 476.78 89.4217 476.57C87.78 474.494 86.1383 472.417 84.3671 470.235Z" fill="#6590C1"/>
<path d="M76.901 235.526C75.6691 237.315 74.3201 239.117 73.0758 240.789C72.774 241.294 72.3427 241.696 72.0409 242.201C71.8315 242.461 71.8687 242.812 72.1279 243.021C72.2574 243.126 72.3746 243.114 72.4917 243.101C72.6089 243.089 72.8307 242.947 72.9355 242.817C73.2372 242.312 73.6685 241.91 73.9703 241.405C75.3193 239.603 76.5637 237.931 77.7955 236.142C78.005 235.883 77.9677 235.532 77.7086 235.322C77.4619 235.23 77.1105 235.267 76.901 235.526Z" fill="#6590C1"/>
<path d="M58.0621 266.783C59.3491 264.396 60.6236 261.892 62.0401 259.609C62.2496 259.35 62.0952 259.011 61.836 258.802C61.5769 258.592 61.2379 258.747 61.0284 259.006C59.6243 261.405 58.3374 263.792 57.0629 266.297C56.8534 266.556 57.0078 266.895 57.2669 267.104C57.3965 267.209 57.5136 267.197 57.6308 267.184C57.7355 267.055 57.9574 266.913 58.0621 266.783Z" fill="#6590C1"/>
<path d="M51.2706 279.823C51.3877 279.811 51.5173 279.915 51.5173 279.915C51.7516 279.89 51.8563 279.761 51.9486 279.514C52.9888 277.035 54.1462 274.543 55.3036 272.051C55.3959 271.804 55.3587 271.453 54.9824 271.256C54.7357 271.163 54.3843 271.201 54.1872 271.577C53.0298 274.069 51.8724 276.561 50.8446 279.157C50.8695 279.392 51.0239 279.731 51.2706 279.823Z" fill="#6590C1"/>
<path d="M76.0594 458.915C75.9174 458.693 75.5535 458.613 75.2145 458.767C74.9927 458.909 74.9128 459.273 75.0672 459.612C76.6041 461.818 78.2706 464.129 79.9247 466.323C80.0667 466.545 80.301 466.52 80.4181 466.508C80.5353 466.495 80.6524 466.483 80.7571 466.353C80.979 466.212 81.0589 465.848 80.9045 465.509C79.1457 463.444 77.5963 461.121 76.0594 458.915Z" fill="#6590C1"/>
<path d="M68.2877 447.063C68.1457 446.841 67.7695 446.644 67.4429 446.916C67.221 447.058 67.024 447.434 67.2955 447.761C68.7277 450.096 70.16 452.432 71.7093 454.756C71.8513 454.978 72.098 455.07 72.2151 455.057C72.3323 455.045 72.4494 455.033 72.437 454.915C72.6589 454.774 72.7388 454.41 72.5844 454.071C71.2693 451.722 69.7199 449.399 68.2877 447.063Z" fill="#6590C1"/>
<path d="M85.4692 223.601C85.2101 223.392 84.8711 223.546 84.6616 223.805C83.2451 226.088 81.841 228.487 80.3074 230.782C80.0979 231.041 80.2523 231.38 80.5114 231.59C80.641 231.694 80.7581 231.682 80.8753 231.67C80.9924 231.657 81.2143 231.515 81.319 231.386C82.8527 229.091 84.3739 226.679 85.7904 224.396C85.7656 224.162 85.7159 223.693 85.4692 223.601Z" fill="#6590C1"/>
<path d="M95.653 110.694C95.795 110.916 96.0417 111.009 96.276 110.984C96.3931 110.971 96.3931 110.971 96.5102 110.959C96.8493 110.804 96.9291 110.441 96.7872 110.219C95.694 107.729 94.4836 105.251 93.1561 102.785C93.0017 102.446 92.6379 102.366 92.416 102.508C92.077 102.663 91.9971 103.027 92.1391 103.248C93.3494 105.726 94.5598 108.204 95.653 110.694Z" fill="#6590C1"/>
<path d="M102.083 184.762C101.719 184.682 101.497 184.824 101.417 185.188C100.741 187.747 99.9597 190.436 99.049 193.02C98.9691 193.384 99.1111 193.606 99.3702 193.815C99.4874 193.803 99.4874 193.803 99.6045 193.791C99.8388 193.766 100.061 193.624 100.153 193.377C101.064 190.793 101.845 188.104 102.509 185.427C102.601 185.181 102.447 184.842 102.083 184.762Z" fill="#6590C1"/>
<path d="M89.1202 98.2377C89.2622 98.4595 89.5089 98.5518 89.7432 98.527C89.8604 98.5146 89.8604 98.5146 89.9775 98.5022C90.3165 98.3478 90.3964 97.9839 90.1249 97.6573C88.6926 95.3215 87.2604 92.9856 85.7111 90.6621C85.5691 90.4403 85.2052 90.3604 84.8662 90.5148C84.6444 90.6568 84.5645 91.0206 84.7189 91.3596C86.2558 93.5659 87.8052 95.8894 89.1202 98.2377Z" fill="#6590C1"/>
<path d="M72.283 75.738C72.4125 75.8427 72.5421 75.9474 72.7764 75.9226C72.8935 75.9102 73.0107 75.8978 73.1154 75.7682C73.3249 75.5091 73.4047 75.1452 73.1456 74.9358C69.5481 71.171 67.3207 69.1563 67.2036 69.1687C66.9444 68.9593 66.593 68.9965 66.3835 69.2557C66.1741 69.5148 66.2113 69.8662 66.4705 70.0757C66.458 69.9585 68.8026 71.9608 72.283 75.738Z" fill="#6590C1"/>
<path d="M98.166 115.403C97.827 115.558 97.7347 115.804 97.7719 116.156C98.748 118.659 99.6193 121.291 100.491 123.923C100.515 124.157 100.892 124.354 101.126 124.33L101.243 124.317C101.582 124.163 101.674 123.916 101.637 123.565C100.883 120.92 99.8946 118.3 98.9061 115.68C98.8813 115.446 98.505 115.249 98.166 115.403Z" fill="#6590C1"/>
<path d="M94.2435 206.916C94.3607 206.903 94.4902 207.008 94.6074 206.996C94.8417 206.971 94.9464 206.841 95.0511 206.712C96.2085 204.22 97.2363 201.623 98.2641 199.026C98.3565 198.78 98.2021 198.441 97.9429 198.231C97.6962 198.139 97.3572 198.293 97.1478 198.552C96.2247 201.02 95.0797 203.629 94.0395 206.108C93.83 206.367 93.8797 206.836 94.2435 206.916Z" fill="#6590C1"/>
<path d="M88.5613 219.246C89.9654 216.846 91.24 214.342 92.4098 211.967C92.5021 211.72 92.4648 211.369 92.0885 211.172C91.8418 211.079 91.4904 211.117 91.2934 211.493C90.1236 213.868 88.849 216.372 87.4449 218.772C87.2355 219.031 87.3899 219.37 87.649 219.579C87.7786 219.684 87.8957 219.672 88.0129 219.659C88.3519 219.505 88.469 219.492 88.5613 219.246Z" fill="#6590C1"/>
<path d="M81.361 86.5033C81.503 86.7251 81.7373 86.7003 81.8544 86.6879C81.9716 86.6755 82.0887 86.6631 82.1934 86.5335C82.4153 86.3915 82.4952 86.0277 82.3408 85.6886C80.6867 83.4948 78.9155 81.3133 77.1567 79.249C76.8975 79.0395 76.5337 78.9596 76.3242 79.2188C76.1148 79.4779 76.0349 79.8417 76.294 80.0512C78.0528 82.1155 79.7069 84.3094 81.361 86.5033Z" fill="#6590C1"/>
</g>
<defs>
<clipPath id="clip0_4626_2068">
<rect width="91.0602" height="522.919" fill="white" transform="translate(0 9.59888) rotate(-6.05092)"/>
</clipPath>
</defs>
</svg>
