<svg width="172" height="65" viewBox="0 0 172 65" fill="none" xmlns="http://www.w3.org/2000/svg">
<g filter="url(#filter0_d_467_28232)">
<rect x="10" y="8" width="151.888" height="45" rx="8" fill="#444444" shape-rendering="crispEdges"/>
<path d="M156.223 8.85511C158.789 8.85511 161.033 10.886 161.033 13.6651V47.3349C161.033 49.9002 159.002 52.1449 156.223 52.1449H15.6651C13.0998 52.1449 10.8551 50.114 10.8551 47.3349V13.6651C10.8551 11.0998 12.886 8.85511 15.6651 8.85511H156.223ZM156.223 8H15.6651C12.5653 8 10 10.5653 10 13.6651V47.3349C10 50.4347 12.5653 53 15.6651 53H156.223C159.323 53 161.888 50.4347 161.888 47.3349V13.6651C161.781 10.5653 159.323 8 156.223 8Z" fill="#ECEDEF"/>
<path d="M63.4441 19.4364C63.4441 20.2915 63.2303 21.1466 62.589 21.6811C61.9477 22.3224 61.1995 22.7499 60.1306 22.7499C59.0617 22.7499 58.3135 22.3224 57.6722 21.6811C57.0308 21.0397 56.6033 20.1846 56.6033 19.2226C56.6033 18.1537 57.0308 17.4055 57.6722 16.7642C58.3135 16.1229 59.1686 15.6953 60.1306 15.6953C60.665 15.6953 60.9857 15.8022 61.5201 15.9091C61.9477 16.016 62.2684 16.3366 62.589 16.6573L61.9477 17.2986C61.5201 16.7642 60.8788 16.5504 60.1306 16.5504C59.3824 16.5504 58.8479 16.7642 58.3135 17.2986C57.779 17.8331 57.5653 18.4744 57.5653 19.2226C57.5653 19.9708 57.779 20.6122 58.3135 21.1466C58.8479 21.6811 59.4893 21.8948 60.1306 21.8948C60.8788 21.8948 61.5201 21.6811 62.0546 21.1466C62.4821 20.7191 62.589 20.3984 62.589 19.7571H60.1306V18.902H63.3372C63.4441 19.2226 63.4441 19.3295 63.4441 19.4364ZM68.5748 16.7642H65.475V19.0089H68.361V19.6502H65.475V21.7879H68.5748V22.5362H64.6199V15.8022H68.5748V16.7642ZM72.3159 22.5362H71.4608V16.7642H69.5368V15.9091H74.133V16.6573H72.209V22.6431H72.3159V22.5362ZM77.4465 22.5362V15.8022H78.3016V22.5362H77.4465ZM82.2565 22.5362H81.4014V16.7642H79.5843V15.9091H84.1805V16.6573H82.2565V22.5362ZM92.9453 21.7879C92.304 22.4293 91.4489 22.8568 90.4869 22.8568C89.418 22.8568 88.6698 22.4293 88.0285 21.7879C87.3871 21.1466 86.9596 20.2915 86.9596 19.3295C86.9596 18.4744 87.3871 17.5124 88.0285 16.8711C88.5629 16.1229 89.418 15.6953 90.38 15.6953C91.4489 15.6953 92.1971 16.1229 92.8384 16.7642C93.4798 17.4055 93.9073 18.2606 93.9073 19.2226C93.9073 20.1846 93.5866 20.9328 92.9453 21.7879ZM88.5629 21.1466C89.0973 21.6811 89.7387 21.8948 90.38 21.8948C91.0213 21.8948 91.6627 21.6811 92.1971 21.1466C92.7315 20.6122 92.9453 19.9708 92.9453 19.2226C92.9453 18.4744 92.7315 17.8331 92.1971 17.2986C91.6627 16.7642 91.0213 16.5504 90.38 16.5504C89.7387 16.5504 89.0973 16.7642 88.5629 17.2986C88.0285 17.8331 87.8147 18.4744 87.8147 19.2226C87.8147 19.9708 88.0285 20.6122 88.5629 21.1466ZM95.19 22.5362V15.8022H96.2589L99.4655 21.1466V15.8022H100.321V22.5362H99.4655L95.9382 16.978V22.5362H95.19Z" fill="white" stroke="white" stroke-width="0.2413" stroke-miterlimit="10"/>
<path d="M86.7459 32.4772C84.0736 32.4772 81.9359 34.5081 81.9359 37.2872C81.9359 39.9594 84.0736 42.0972 86.7459 42.0972C89.4181 42.0972 91.5558 40.0663 91.5558 37.2872C91.5558 34.4012 89.3112 32.4772 86.7459 32.4772ZM86.7459 40.0663C85.3563 40.0663 84.0736 38.8905 84.0736 37.1803C84.0736 35.4701 85.3563 34.2943 86.7459 34.2943C88.1354 34.2943 89.4181 35.4701 89.4181 37.1803C89.5249 38.8905 88.1354 40.0663 86.7459 40.0663ZM76.3777 32.4772C73.7055 32.4772 71.5677 34.5081 71.5677 37.2872C71.5677 39.9594 73.7055 42.0972 76.3777 42.0972C79.0499 42.0972 81.1877 40.0663 81.1877 37.2872C81.0808 34.4012 78.943 32.4772 76.3777 32.4772ZM76.3777 40.0663C74.9881 40.0663 73.7055 38.8905 73.7055 37.1803C73.7055 35.4701 74.9881 34.2943 76.3777 34.2943C77.7672 34.2943 79.0499 35.4701 79.0499 37.1803C79.0499 38.8905 77.7672 40.0663 76.3777 40.0663ZM63.8717 33.8668V35.8977H68.7886C68.6817 37.0734 68.2542 37.8216 67.6128 38.463C66.9715 39.1043 65.7957 39.9594 63.8717 39.9594C60.8789 39.9594 58.6342 37.501 58.6342 34.5081C58.6342 31.5152 60.9858 29.0568 63.8717 29.0568C65.582 29.0568 66.7577 29.6981 67.5059 30.4464L68.8955 29.0568C67.7197 28.0948 66.0095 27.1328 63.658 27.1328C59.4893 27.1328 56.1758 30.4464 56.1758 34.615C56.1758 38.7836 59.7031 42.0972 63.658 42.0972C65.7957 42.0972 67.506 41.349 68.7886 40.0663C70.0713 38.7836 70.6057 36.8597 70.6057 35.2563C70.6057 34.7219 70.6057 34.4012 70.4988 33.9737L63.8717 33.8668ZM114.751 35.4701C114.323 34.4012 113.254 32.4772 110.796 32.4772C108.337 32.4772 106.306 34.4012 106.306 37.2872C106.306 39.9594 108.337 42.0972 111.116 42.0972C113.254 42.0972 114.644 40.8145 115.071 40.0663L113.361 38.9974C112.827 39.7456 112.078 40.2801 111.01 40.2801C109.941 40.2801 109.192 39.7456 108.658 38.8905L115.071 36.2183L114.751 35.4701ZM108.337 37.0734C108.337 35.2563 109.727 34.1874 110.796 34.1874C111.544 34.1874 112.292 34.615 112.613 35.2563L108.337 37.0734ZM102.993 41.7765H105.024V27.6673H102.993V41.7765ZM99.6793 33.5461C99.1449 33.0117 98.2898 32.4772 97.114 32.4772C94.6556 32.4772 92.5178 34.5081 92.5178 37.2872C92.5178 39.9594 94.6556 42.0972 97.114 42.0972C98.2898 42.0972 99.1449 41.5627 99.6793 41.0283H99.7862V41.6696C99.7862 43.4867 98.7174 44.5556 97.2209 44.5556C95.9383 44.5556 95.19 43.7005 94.7625 42.8454L92.9454 43.5936C93.4798 44.8763 94.8694 46.4796 97.2209 46.4796C99.6793 46.4796 101.71 45.0901 101.71 41.4559V32.7979H99.7862L99.6793 33.5461ZM97.2209 40.0663C95.8314 40.0663 94.5487 38.8905 94.5487 37.1803C94.5487 35.4701 95.7245 34.1874 97.2209 34.1874C98.6105 34.1874 99.7862 35.4701 99.7862 37.1803C99.7862 38.8905 98.6105 40.0663 97.2209 40.0663ZM124.691 27.6673H119.667V41.7765H121.698V36.3252H124.691C127.043 36.3252 129.287 34.615 129.287 31.9428C129.287 29.2706 126.936 27.6673 124.691 27.6673ZM124.691 34.4012H121.698V29.5912H124.691C126.188 29.5912 127.15 30.8739 127.15 32.0497C127.043 33.1186 126.188 34.4012 124.691 34.4012ZM137.625 32.4772C136.128 32.4772 134.525 33.1186 133.884 34.7219L135.701 35.4701C136.128 34.7219 136.876 34.4012 137.625 34.4012C138.694 34.4012 139.762 35.0426 139.762 36.2183V36.3252C139.335 36.1114 138.587 35.7908 137.625 35.7908C135.594 35.7908 133.67 36.9665 133.67 38.9974C133.67 40.9214 135.38 42.0972 137.197 42.0972C138.587 42.0972 139.335 41.4559 139.869 40.7076H139.976V41.7765H142.007V36.3252C141.9 33.7599 139.976 32.4772 137.625 32.4772ZM137.411 40.0663C136.77 40.0663 135.701 39.6388 135.701 38.8905C135.701 37.8216 136.876 37.3941 137.838 37.3941C138.694 37.3941 139.228 37.6079 139.762 37.9285C139.762 39.2112 138.587 40.0663 137.411 40.0663ZM149.276 32.691L146.817 38.7836H146.71L144.252 32.691H141.9L145.641 41.2421L143.504 46.052H145.641L151.413 32.7979H149.276V32.691ZM130.463 41.7765H132.494V27.6673H130.463V41.7765Z" fill="white"/>
<path d="M21.8645 16.5503C21.6507 16.7641 21.3301 17.4054 21.3301 18.0467V42.8448C21.3301 43.4862 21.5439 44.1275 21.8645 44.3413L21.9714 44.4482L35.8669 30.5527V30.3389L21.8645 16.5503Z" fill="url(#paint0_linear_467_28232)"/>
<path d="M40.5698 35.2533L35.9736 30.6571V30.4434L40.5698 25.8472H40.6767L46.2349 28.9469C47.7313 29.802 47.7313 31.2985 46.2349 32.1536L40.5698 35.2533Z" fill="url(#paint1_linear_467_28232)"/>
<path d="M40.6769 35.1454L35.8669 30.3354L21.8645 44.3378C22.3989 44.8723 23.254 44.9792 24.216 44.4447L40.6769 35.1454Z" fill="url(#paint2_linear_467_28232)"/>
<path d="M40.6769 25.7433L24.216 16.3371C23.3609 15.8027 22.3989 15.8027 21.8645 16.444L35.8669 30.4464L40.6769 25.7433Z" fill="url(#paint3_linear_467_28232)"/>
<path opacity="0.2" d="M40.57 35.1479L24.2161 44.4472C23.361 44.9817 22.5059 44.9817 22.0783 44.4472L21.9714 44.5541L22.0783 44.661C22.6128 45.1955 23.361 45.1955 24.2161 44.661L40.57 35.1479Z" fill="black"/>
<path opacity="0.12" d="M21.8645 44.3442C21.6507 43.9167 21.3301 43.4891 21.3301 42.8478V42.9547C21.3301 43.596 21.5439 44.2373 21.8645 44.4511V44.3442ZM46.2351 31.9452L40.57 35.1518L40.6769 35.2587L46.2351 32.1589C46.9833 31.7314 47.4108 31.0901 47.4108 30.4487C47.304 31.0901 46.8764 31.5176 46.2351 31.9452Z" fill="black"/>
<path opacity="0.25" d="M24.216 16.6536L46.1282 29.1595C46.8764 29.5871 47.3039 30.0146 47.3039 30.5491C47.3039 29.9077 46.8764 29.3733 46.1282 28.8388L24.216 16.3329C22.7196 15.4778 21.4369 16.226 21.4369 18.0431V18.15C21.3301 16.3329 22.7196 15.6916 24.216 16.6536Z" fill="white"/>
</g>
<defs>
<filter id="filter0_d_467_28232" x="0" y="0" width="171.888" height="65" filterUnits="userSpaceOnUse" color-interpolation-filters="sRGB">
<feFlood flood-opacity="0" result="BackgroundImageFix"/>
<feColorMatrix in="SourceAlpha" type="matrix" values="0 0 0 0 0 0 0 0 0 0 0 0 0 0 0 0 0 0 127 0" result="hardAlpha"/>
<feOffset dy="2"/>
<feGaussianBlur stdDeviation="5"/>
<feComposite in2="hardAlpha" operator="out"/>
<feColorMatrix type="matrix" values="0 0 0 0 0 0 0 0 0 0 0 0 0 0 0 0 0 0 0.1 0"/>
<feBlend mode="normal" in2="BackgroundImageFix" result="effect1_dropShadow_467_28232"/>
<feBlend mode="normal" in="SourceGraphic" in2="effect1_dropShadow_467_28232" result="shape"/>
</filter>
<linearGradient id="paint0_linear_467_28232" x1="34.702" y1="17.793" x2="15.8486" y2="36.6465" gradientUnits="userSpaceOnUse">
<stop stop-color="#00A0FF"/>
<stop offset="0.007" stop-color="#00A1FF"/>
<stop offset="0.26" stop-color="#00BEFF"/>
<stop offset="0.512" stop-color="#00D2FF"/>
<stop offset="0.76" stop-color="#00DFFF"/>
<stop offset="1" stop-color="#00E3FF"/>
</linearGradient>
<linearGradient id="paint1_linear_467_28232" x1="48.2226" y1="30.5338" x2="21.041" y2="30.5338" gradientUnits="userSpaceOnUse">
<stop stop-color="#FFE000"/>
<stop offset="0.409" stop-color="#FFBD00"/>
<stop offset="0.775" stop-color="#FFA500"/>
<stop offset="1" stop-color="#FF9C00"/>
</linearGradient>
<linearGradient id="paint2_linear_467_28232" x1="38.0706" y1="33.0209" x2="12.5045" y2="58.587" gradientUnits="userSpaceOnUse">
<stop stop-color="#FF3A44"/>
<stop offset="1" stop-color="#C31162"/>
</linearGradient>
<linearGradient id="paint3_linear_467_28232" x1="18.3864" y1="8.23423" x2="29.8025" y2="19.6516" gradientUnits="userSpaceOnUse">
<stop stop-color="#32A071"/>
<stop offset="0.069" stop-color="#2DA771"/>
<stop offset="0.476" stop-color="#15CF74"/>
<stop offset="0.801" stop-color="#06E775"/>
<stop offset="1" stop-color="#00F076"/>
</linearGradient>
</defs>
</svg>
