<svg width="173" height="65" viewBox="0 0 173 65" fill="none" xmlns="http://www.w3.org/2000/svg">
<g filter="url(#filter0_d_467_28246)">
<rect x="10.8884" y="8" width="151.888" height="45" rx="8" fill="#444444" shape-rendering="crispEdges"/>
<path d="M38.5726 30.8694C38.5726 27.7697 41.1379 26.1663 41.2448 26.1663C39.8552 24.1355 37.5037 23.7079 36.7555 23.7079C34.8315 23.4941 33.0144 24.8837 32.1593 24.8837C31.0904 24.8837 29.7008 23.7079 27.9906 23.8148C25.9597 23.8148 24.0358 24.9906 22.9669 26.9146C20.8291 30.6557 22.4324 36.2138 24.4633 39.3136C25.5322 40.9169 26.8149 42.4134 28.3113 42.4134C29.8077 42.3065 30.4491 41.3445 32.2662 41.3445C34.0833 41.3445 34.7246 42.4134 36.221 42.1996C37.9312 42.1996 38.8932 40.5963 39.9621 39.2067C41.1379 37.4965 41.6723 35.8932 41.6723 35.6794C41.7792 35.8932 38.5726 34.6105 38.5726 30.8694Z" fill="white"/>
<path d="M35.473 21.784C36.3282 20.7151 36.8626 19.3256 36.7557 17.936C35.5799 17.936 34.0835 18.7911 33.1215 19.7531C32.3733 20.6082 31.732 22.2116 31.8388 23.4942C33.2284 23.6011 34.7248 22.8529 35.473 21.784Z" fill="white"/>
<path d="M58.2401 38.6744H53.0026L51.7199 42.4155H49.3684L54.499 28.4131H56.8506L61.8743 42.4155H59.5228L58.2401 38.6744ZM53.4302 36.8573H57.7057L55.6748 30.6578L53.4302 36.8573ZM72.777 37.3917C72.777 40.5984 71.0667 42.5224 68.5014 42.5224C67.1119 42.5224 65.9361 41.881 65.2948 40.7053V45.729H63.2639V32.1542H65.2948V33.8644C65.9361 32.7955 67.1119 32.0473 68.5014 32.0473C70.9599 32.0473 72.777 34.0782 72.777 37.3917ZM70.6392 37.3917C70.6392 35.3609 69.5703 33.8644 67.967 33.8644C66.4705 33.8644 65.2948 35.254 65.2948 37.3917C65.2948 39.5295 66.3637 40.9191 67.967 40.9191C69.5703 40.7053 70.6392 39.4226 70.6392 37.3917ZM84.0002 37.3917C84.0002 40.5984 82.29 42.5224 79.7247 42.5224C78.3351 42.5224 77.1594 41.881 76.518 40.7053V45.729H74.4872V32.1542H76.4112V33.8644C77.0525 32.7955 78.2283 32.0473 79.6178 32.0473C82.1831 32.0473 84.0002 34.0782 84.0002 37.3917ZM81.7556 37.3917C81.7556 35.3609 80.6867 33.8644 79.0834 33.8644C77.5869 33.8644 76.4112 35.254 76.4112 37.3917C76.4112 39.5295 77.48 40.9191 79.0834 40.9191C80.7936 40.7053 81.7556 39.4226 81.7556 37.3917ZM91.2686 38.4606C91.3755 39.8502 92.7651 40.8122 94.5822 40.8122C96.3993 40.8122 97.6819 39.9571 97.6819 38.5675C97.6819 37.4986 96.9337 36.8573 95.1166 36.3229L93.2995 35.8953C90.7342 35.254 89.5584 34.0782 89.5584 32.1542C89.5584 29.6958 91.5893 27.9856 94.5822 27.9856C97.5751 27.9856 99.6059 29.6958 99.6059 32.1542H97.5751C97.4682 30.7647 96.2924 29.9096 94.5822 29.9096C92.872 29.9096 91.8031 30.7647 91.8031 31.9404C91.8031 33.0093 92.5513 33.5438 94.3684 33.9713L95.8648 34.3989C98.6439 35.0402 99.8197 36.216 99.8197 38.2468C99.8197 40.8122 97.7888 42.5224 94.3684 42.5224C91.2686 42.5224 89.2378 40.9191 89.1309 38.3537C89.2378 38.6744 91.2686 38.4606 91.2686 38.4606ZM104.416 29.8027V32.2611H106.34V33.8644H104.416V39.5295C104.416 40.3846 104.843 40.8122 105.699 40.8122H106.34V42.5224C106.126 42.5224 105.699 42.6293 105.164 42.6293C103.133 42.6293 102.385 41.881 102.385 39.9571V33.8644H100.889V32.1542H102.278V29.6958L104.416 29.8027ZM107.409 37.3917C107.409 34.1851 109.333 32.2611 112.219 32.2611C115.212 32.2611 117.029 34.292 117.029 37.3917C117.029 40.5984 115.105 42.5224 112.219 42.5224C109.333 42.5224 107.409 40.5984 107.409 37.3917ZM114.998 37.3917C114.998 35.1471 113.929 33.8644 112.326 33.8644C110.615 33.8644 109.653 35.1471 109.653 37.3917C109.653 39.6364 110.722 40.9191 112.326 40.9191C113.929 40.8122 114.998 39.5295 114.998 37.3917ZM118.846 32.1542H120.77V33.8644C120.984 32.6886 122.052 32.0473 123.228 32.0473C123.442 32.0473 123.763 32.0473 123.976 32.1542V34.0782C123.87 33.9713 123.442 33.9713 123.121 33.9713C121.839 33.9713 120.984 34.8264 120.984 36.3229V42.4155H118.953C118.846 42.4155 118.846 32.1542 118.846 32.1542ZM133.703 39.4226C133.49 41.2397 131.672 42.5224 129.321 42.5224C126.328 42.5224 124.511 40.5984 124.511 37.3917C124.511 34.1851 126.328 32.0473 129.321 32.0473C132.1 32.0473 133.917 33.9713 133.917 37.0711V37.8193H126.542V38.0331C126.542 39.8502 127.611 40.9191 129.214 40.9191C130.39 40.9191 131.245 40.3846 131.566 39.5295C131.566 39.4226 133.703 39.4226 133.703 39.4226ZM126.542 36.3229H131.672C131.672 34.7195 130.604 33.7575 129.214 33.7575C127.718 33.7575 126.756 34.7195 126.542 36.3229ZM53.2164 17.8312C55.1404 17.8312 56.423 19.0069 56.423 21.1447C56.423 23.2825 55.2473 24.4582 53.2164 24.4582H50.758V17.7243H53.2164V17.8312ZM51.9337 23.6031H53.2164C54.6059 23.6031 55.3542 22.748 55.3542 21.1447C55.3542 19.5414 54.6059 18.6863 53.2164 18.6863H51.9337V23.6031ZM57.5988 22.1067C57.5988 20.3965 58.4539 19.5414 60.0572 19.5414C61.4468 19.5414 62.5157 20.6103 62.5157 22.1067C62.5157 23.8169 61.6606 24.672 60.0572 24.672C58.4539 24.672 57.5988 23.6031 57.5988 22.1067ZM61.3399 22.1067C61.3399 20.9309 60.8055 20.2896 59.9503 20.2896C59.0952 20.2896 58.5608 20.9309 58.5608 22.1067C58.5608 23.2825 59.0952 23.9238 59.9503 23.9238C60.8055 23.71 61.3399 23.0687 61.3399 22.1067ZM68.6083 24.5651H67.5394L66.4705 20.824H66.3637L65.2948 24.5651H64.2259L62.8363 19.5414H63.9052L64.7603 23.3894H64.8672L65.9361 19.5414H66.7912L67.8601 23.3894H67.967L68.8221 19.5414H69.891C70.1047 19.5414 68.6083 24.5651 68.6083 24.5651ZM71.2805 19.5414H72.1356V20.2896H72.2425C72.4563 19.7552 72.9907 19.4345 73.739 19.4345C74.9147 19.4345 75.5561 20.0758 75.5561 21.3585V24.5651H74.4872V21.4654C74.4872 20.7171 74.0596 20.2896 73.4183 20.2896C72.6701 20.2896 72.2425 20.824 72.2425 21.5723V24.5651H71.0667C71.2805 24.5651 71.2805 19.5414 71.2805 19.5414ZM77.1594 17.5105H78.2283V24.672H77.1594V17.5105ZM79.5109 22.1067C79.5109 20.3965 80.366 19.5414 81.9694 19.5414C83.3589 19.5414 84.4278 20.6103 84.4278 22.1067C84.4278 23.8169 83.5727 24.672 81.9694 24.672C80.4729 24.672 79.5109 23.6031 79.5109 22.1067ZM83.3589 22.1067C83.3589 20.9309 82.8245 20.2896 81.9694 20.2896C81.1143 20.2896 80.5798 20.9309 80.5798 22.1067C80.5798 23.2825 81.1143 23.9238 81.9694 23.9238C82.8245 23.71 83.3589 23.0687 83.3589 22.1067ZM85.3898 23.0687C85.3898 22.2136 86.0311 21.6791 87.3138 21.4654L88.7033 21.3585V20.9309C88.7033 20.3965 88.2758 20.1827 87.6344 20.1827C87.1 20.1827 86.7793 20.3965 86.5656 20.7171H85.4967C85.6036 19.862 86.3518 19.3276 87.5275 19.3276C88.8102 19.3276 89.4515 19.9689 89.4515 21.0378V24.5651H88.5964V23.8169H88.4895C88.2758 24.3514 87.6344 24.5651 86.9931 24.5651C86.0311 24.672 85.3898 24.0307 85.3898 23.0687ZM88.5964 22.748V22.3205L87.3138 22.4274C86.6724 22.4274 86.2449 22.6411 86.2449 23.1756C86.2449 23.71 86.6724 23.9238 87.1 23.9238C88.062 23.71 88.5964 23.3894 88.5964 22.748ZM90.948 22.1067C90.948 20.5034 91.6962 19.5414 92.9789 19.5414C93.6202 19.5414 94.2615 19.9689 94.4753 20.3965H94.5822V17.5105H95.6511V24.672H94.796V23.9238H94.6891C94.4753 24.4582 93.834 24.7789 93.1926 24.7789C91.6962 24.672 90.948 23.6031 90.948 22.1067ZM91.91 22.1067C91.91 23.1756 92.4444 23.8169 93.2995 23.8169C94.1546 23.8169 94.6891 23.1756 94.6891 22.1067C94.6891 21.0378 94.1546 20.3965 93.2995 20.3965C92.4444 20.2896 91.91 20.9309 91.91 22.1067ZM99.8197 22.1067C99.8197 20.3965 100.675 19.5414 102.278 19.5414C103.668 19.5414 104.737 20.6103 104.737 22.1067C104.737 23.8169 103.881 24.672 102.278 24.672C100.675 24.672 99.8197 23.6031 99.8197 22.1067ZM103.561 22.1067C103.561 20.9309 103.026 20.2896 102.171 20.2896C101.316 20.2896 100.782 20.9309 100.782 22.1067C100.782 23.2825 101.316 23.9238 102.171 23.9238C103.026 23.71 103.561 23.0687 103.561 22.1067ZM105.805 19.5414H106.661V20.2896H106.767C106.981 19.7552 107.516 19.4345 108.264 19.4345C109.44 19.4345 110.081 20.0758 110.081 21.3585V24.5651H109.012V21.4654C109.012 20.7171 108.585 20.2896 107.943 20.2896C107.195 20.2896 106.767 20.824 106.767 21.5723V24.5651H105.699L105.805 19.5414ZM115.746 18.1518V19.4345H116.922V20.2896H115.746V22.8549C115.746 23.3894 115.96 23.6031 116.494 23.6031H116.922V24.3514H116.387C115.212 24.3514 114.891 23.9238 114.891 22.9618V20.2896H114.143V19.4345H114.891V18.1518H115.746ZM118.311 17.5105H119.38V20.3965H119.487C119.701 19.862 120.235 19.5414 120.984 19.5414C122.052 19.5414 122.801 20.1827 122.801 21.4654V24.672H121.732V21.6791C121.732 20.9309 121.304 20.5034 120.663 20.5034C119.915 20.5034 119.38 21.0378 119.38 21.786V24.7789H118.311C118.418 24.7789 118.311 17.5105 118.311 17.5105ZM128.466 23.2825C128.252 24.1376 127.397 24.672 126.328 24.672C124.938 24.672 123.976 23.6031 123.976 22.1067C123.976 20.3965 124.832 19.4345 126.328 19.4345C127.718 19.4345 128.68 20.2896 128.68 21.9998V22.4274H125.045C125.045 23.2825 125.58 23.8169 126.328 23.8169C126.969 23.8169 127.397 23.6031 127.504 23.1756C127.504 23.0687 128.466 23.2825 128.466 23.2825ZM124.938 21.5723H127.504C127.504 20.824 126.969 20.2896 126.221 20.2896C125.58 20.2896 125.045 20.824 124.938 21.5723Z" fill="white"/>
<path d="M157.112 8.96199C159.677 8.96199 161.922 10.9929 161.922 13.772V47.4418C161.922 50.0071 159.891 52.2518 157.112 52.2518H16.5535C13.9882 52.2518 11.7435 50.2209 11.7435 47.4418V13.6651C11.7435 11.0998 13.7744 8.85511 16.5535 8.85511H157.112M157.112 8H16.5535C13.4537 8 10.8884 10.5653 10.8884 13.6651V47.3349C10.8884 50.4347 13.4537 53 16.5535 53H157.112C160.211 53 162.777 50.4347 162.777 47.3349V13.6651C162.67 10.5653 160.105 8 157.112 8Z" fill="#ECEDEF"/>
</g>
<defs>
<filter id="filter0_d_467_28246" x="0.888428" y="0" width="171.888" height="65" filterUnits="userSpaceOnUse" color-interpolation-filters="sRGB">
<feFlood flood-opacity="0" result="BackgroundImageFix"/>
<feColorMatrix in="SourceAlpha" type="matrix" values="0 0 0 0 0 0 0 0 0 0 0 0 0 0 0 0 0 0 127 0" result="hardAlpha"/>
<feOffset dy="2"/>
<feGaussianBlur stdDeviation="5"/>
<feComposite in2="hardAlpha" operator="out"/>
<feColorMatrix type="matrix" values="0 0 0 0 0 0 0 0 0 0 0 0 0 0 0 0 0 0 0.1 0"/>
<feBlend mode="normal" in2="BackgroundImageFix" result="effect1_dropShadow_467_28246"/>
<feBlend mode="normal" in="SourceGraphic" in2="effect1_dropShadow_467_28246" result="shape"/>
</filter>
</defs>
</svg>
