<svg width="474" height="469" viewBox="0 0 474 469" fill="none" xmlns="http://www.w3.org/2000/svg">
<ellipse cx="235.5" cy="255.017" rx="210.5" ry="211" fill="url(#paint0_linear_4626_3501)"/>
<g clip-path="url(#clip0_4626_3501)">
<path d="M74.7007 119.939V219.637C74.7007 224.432 78.6247 228.356 83.4206 228.356H255.349C260.145 228.356 264.069 224.432 264.069 219.637V119.939H74.7007Z" fill="#FAE7EA"/>
<path d="M255.349 100.028H83.4206C78.6247 100.028 74.7007 103.952 74.7007 108.748V126.478H264.214V108.893C264.214 104.097 260.29 100.028 255.349 100.028Z" fill="#404D61"/>
<path d="M94.7566 113.399C92.4313 113.399 90.542 111.509 90.542 109.184V94.2147C90.542 91.8894 92.4313 90.0001 94.7566 90.0001C97.0819 90.0001 98.9713 91.8894 98.9713 94.2147V109.184C98.9713 111.509 97.0819 113.399 94.7566 113.399Z" fill="url(#paint1_linear_4626_3501)"/>
<path d="M144.46 113.399C142.135 113.399 140.246 111.509 140.246 109.184V94.2147C140.246 91.8894 142.135 90.0001 144.46 90.0001C146.786 90.0001 148.675 91.8894 148.675 94.2147V109.184C148.82 111.509 146.786 113.399 144.46 113.399Z" fill="url(#paint2_linear_4626_3501)"/>
<path d="M194.309 113.399C191.984 113.399 190.095 111.509 190.095 109.184V94.2147C190.095 91.8894 191.984 90.0001 194.309 90.0001C196.635 90.0001 198.524 91.8894 198.524 94.2147V109.184C198.524 111.509 196.635 113.399 194.309 113.399Z" fill="url(#paint3_linear_4626_3501)"/>
<path d="M244.158 113.399C241.833 113.399 239.944 111.509 239.944 109.184V94.2147C239.944 91.8894 241.833 90.0001 244.158 90.0001C246.484 90.0001 248.373 91.8894 248.373 94.2147V109.184C248.373 111.509 246.484 113.399 244.158 113.399Z" fill="url(#paint4_linear_4626_3501)"/>
<path d="M120.626 161.358H100.57C99.698 161.358 99.1167 160.632 99.1167 159.905V139.704C99.1167 138.832 99.8434 138.25 100.57 138.25H120.626C121.498 138.25 122.079 138.977 122.079 139.704V159.905C122.079 160.632 121.498 161.358 120.626 161.358Z" fill="#E9A1AC"/>
<path d="M150.128 161.358H129.927C129.055 161.358 128.474 160.632 128.474 159.905V139.704C128.474 138.832 129.2 138.25 129.927 138.25H150.128C151 138.25 151.581 138.977 151.581 139.704V159.905C151.581 160.632 150.855 161.358 150.128 161.358Z" fill="#E9A1AC"/>
<path d="M179.485 161.358H159.429C158.557 161.358 157.976 160.632 157.976 159.905V139.704C157.976 138.832 158.703 138.25 159.429 138.25H179.631C180.503 138.25 181.084 138.977 181.084 139.704V159.905C180.939 160.632 180.357 161.358 179.485 161.358Z" fill="#E9A1AC"/>
<path d="M208.988 161.358H188.787C187.915 161.358 187.333 160.632 187.333 159.905V139.704C187.333 138.832 188.06 138.25 188.787 138.25H208.988C209.86 138.25 210.441 138.977 210.441 139.704V159.905C210.441 160.632 209.715 161.358 208.988 161.358Z" fill="#E9A1AC"/>
<path d="M238.345 161.358H218.144C217.272 161.358 216.69 160.632 216.69 159.905V139.704C216.69 138.832 217.417 138.25 218.144 138.25H238.345C239.217 138.25 239.798 138.977 239.798 139.704V159.905C239.798 160.632 239.217 161.358 238.345 161.358Z" fill="#E9A1AC"/>
<path d="M120.626 189.262H100.57C99.698 189.262 99.1167 188.535 99.1167 187.809V167.753C99.1167 166.881 99.8434 166.299 100.57 166.299H120.626C121.498 166.299 122.079 167.026 122.079 167.753V187.954C122.079 188.681 121.498 189.262 120.626 189.262Z" fill="#E9A1AC"/>
<path d="M150.128 189.262H129.927C129.055 189.262 128.474 188.535 128.474 187.809V167.753C128.474 166.881 129.2 166.299 129.927 166.299H150.128C151 166.299 151.581 167.026 151.581 167.753V187.954C151.581 188.681 150.855 189.262 150.128 189.262Z" fill="#C91330"/>
<path d="M179.485 189.262H159.429C158.557 189.262 157.976 188.535 157.976 187.809V167.753C157.976 166.881 158.703 166.299 159.429 166.299H179.631C180.503 166.299 181.084 167.026 181.084 167.753V187.954C180.939 188.681 180.357 189.262 179.485 189.262Z" fill="#E9A1AC"/>
<path d="M208.988 189.262H188.787C187.915 189.262 187.333 188.535 187.333 187.809V167.753C187.333 166.881 188.06 166.299 188.787 166.299H208.988C209.86 166.299 210.441 167.026 210.441 167.753V187.954C210.441 188.681 209.715 189.262 208.988 189.262Z" fill="#D4E5FF"/>
<path d="M238.345 189.262H218.144C217.272 189.262 216.69 188.535 216.69 187.809V167.753C216.69 166.881 217.417 166.299 218.144 166.299H238.345C239.217 166.299 239.798 167.026 239.798 167.753V187.954C239.798 188.681 239.217 189.262 238.345 189.262Z" fill="#E9A1AC"/>
<path d="M120.626 217.311H100.57C99.698 217.311 99.1167 216.584 99.1167 215.858V195.657C99.1167 194.785 99.8434 194.203 100.57 194.203H120.626C121.498 194.203 122.079 194.93 122.079 195.657V215.858C122.079 216.584 121.498 217.311 120.626 217.311Z" fill="#E9A1AC"/>
<path d="M150.128 217.311H129.927C129.055 217.311 128.474 216.584 128.474 215.858V195.657C128.474 194.785 129.2 194.203 129.927 194.203H150.128C151 194.203 151.581 194.93 151.581 195.657V215.858C151.581 216.584 150.855 217.311 150.128 217.311Z" fill="#E9A1AC"/>
<path d="M179.485 217.311H159.429C158.557 217.311 157.976 216.584 157.976 215.858V195.657C157.976 194.785 158.703 194.203 159.429 194.203H179.631C180.503 194.203 181.084 194.93 181.084 195.657V215.858C180.939 216.584 180.357 217.311 179.485 217.311Z" fill="#E9A1AC"/>
<path d="M208.988 217.311H188.787C187.915 217.311 187.333 216.584 187.333 215.858V195.657C187.333 194.785 188.06 194.203 188.787 194.203H208.988C209.86 194.203 210.441 194.93 210.441 195.657V215.858C210.441 216.584 209.715 217.311 208.988 217.311Z" fill="#E9A1AC"/>
<path d="M238.345 217.311H218.144C217.272 217.311 216.69 216.584 216.69 215.858V195.657C216.69 194.785 217.417 194.203 218.144 194.203H238.345C239.217 194.203 239.798 194.93 239.798 195.657V215.858C239.798 216.584 239.217 217.311 238.345 217.311Z" fill="#E9A1AC"/>
<path d="M116.266 341.425C143.877 341.425 166.26 319.042 166.26 291.431C166.26 263.82 143.877 241.436 116.266 241.436C88.6547 241.436 66.2715 263.82 66.2715 291.431C66.2715 319.042 88.6547 341.425 116.266 341.425Z" fill="#91B0D3"/>
<path d="M87.0539 345.93C67.5794 335.466 54.4995 314.974 54.4995 291.431" stroke="#6590C1" stroke-width="2" stroke-miterlimit="10" stroke-linecap="round" stroke-linejoin="round"/>
<path d="M116.266 332.85C139.141 332.85 157.686 314.306 157.686 291.431C157.686 268.555 139.141 250.011 116.266 250.011C93.3904 250.011 74.8462 268.555 74.8462 291.431C74.8462 314.306 93.3904 332.85 116.266 332.85Z" fill="url(#paint5_linear_4626_3501)"/>
<path d="M115.684 297.535C115.394 297.535 115.248 297.535 114.958 297.389C114.231 297.099 113.795 296.517 113.795 295.791V262.946C113.795 261.928 114.522 261.202 115.539 261.202C116.556 261.202 117.283 261.928 117.283 262.946V291.431L129.345 279.368C130.072 278.641 131.089 278.641 131.816 279.368C132.543 280.095 132.543 281.112 131.816 281.839L116.702 296.953C116.556 297.244 116.12 297.535 115.684 297.535Z" fill="#91B0D3"/>
<path d="M366.819 252.191H273.806C269.301 252.191 265.958 247.831 267.266 243.471L282.235 189.989C283.834 184.175 289.066 180.251 295.17 180.251H388.037C392.542 180.251 395.885 184.611 394.577 188.971L379.608 242.599C378.009 248.122 372.777 252.191 366.819 252.191Z" fill="#FAE7EA"/>
<path d="M372.051 256.26H279.038C274.533 256.26 271.19 251.9 272.498 247.54L287.467 194.058C289.066 188.245 294.298 184.321 300.402 184.321H393.269C397.774 184.321 401.117 188.681 399.809 193.041L384.84 246.668C383.241 252.336 378.009 256.26 372.051 256.26Z" stroke="#DF7183" stroke-miterlimit="10"/>
<path d="M355.773 243.471H339.206C338.043 243.471 337.171 242.308 337.462 241.146L352.14 188.681C352.286 188.099 352.867 187.663 353.594 187.663H374.521L359.843 240.419C359.116 242.163 357.517 243.471 355.773 243.471Z" stroke="#DF7183" stroke-miterlimit="10"/>
<path d="M308.25 204.958H291.246C290.374 204.958 289.793 204.231 290.083 203.359L292.845 193.622C293.135 192.605 294.153 191.878 295.17 191.878H312.174C313.046 191.878 313.627 192.605 313.337 193.477L310.575 203.214C310.285 204.231 309.267 204.958 308.25 204.958Z" fill="#C91330"/>
<path d="M333.683 204.958H316.679C315.807 204.958 315.226 204.231 315.517 203.359L318.278 193.622C318.568 192.605 319.586 191.878 320.603 191.878H337.607C338.479 191.878 339.06 192.605 338.77 193.477L336.008 203.214C335.718 204.231 334.7 204.958 333.683 204.958Z" fill="#E9A1AC"/>
<path d="M329.178 221.816H312.174C311.302 221.816 310.72 221.09 311.011 220.218L313.772 210.481C314.063 209.463 315.08 208.737 316.098 208.737H333.102C333.974 208.737 334.555 209.463 334.264 210.335L331.503 220.072C331.212 221.09 330.34 221.816 329.178 221.816Z" fill="#E9A1AC"/>
<path d="M207.389 185.629C207.389 185.629 210.441 190.715 210.005 192.895C209.569 195.075 206.081 194.494 206.081 194.494L207.389 185.629Z" fill="#EC7C68"/>
<path d="M205.355 170.659C205.355 170.659 208.116 174.583 208.116 178.362C208.116 182.141 209.569 200.453 207.099 202.633C204.628 204.813 194.745 202.342 194.745 202.342C194.745 202.342 190.095 201.034 188.06 194.203C186.026 187.227 191.984 175.165 191.984 175.165L205.355 170.659Z" fill="#FBA181"/>
<path d="M199.541 201.47C199.541 201.47 198.379 207.574 201.721 212.951C201.721 212.951 190.676 212.079 184.427 212.661C184.427 212.661 185.735 202.197 185.589 198.999C185.299 195.802 195.472 198.127 199.541 201.47Z" fill="#FBA181"/>
<path d="M181.375 168.044C181.375 168.044 187.043 163.538 193.147 164.12C199.251 164.846 204.628 167.172 206.663 166.445C208.697 165.718 206.372 171.822 203.611 172.694C200.849 173.566 202.157 179.815 201.431 182.141C200.704 184.466 200.413 184.03 200.123 185.483C199.832 186.937 200.849 189.117 200.849 190.134C200.849 191.151 199.105 191.151 199.105 191.151C199.105 191.151 197.943 187.227 197.071 187.082C196.199 186.937 194.745 186.646 193.583 189.843C192.42 193.041 194.745 196.965 194.891 198.709C195.036 200.598 193.437 202.197 190.967 202.778C188.496 203.359 184.572 203.359 182.537 202.197C180.503 201.034 180.793 198.709 179.195 196.383C177.451 194.058 174.254 191.878 173.527 184.466C172.655 177.054 177.451 175.455 177.451 175.455C177.451 175.455 177.451 169.497 181.375 168.044Z" fill="#023C5D"/>
<path d="M198.233 188.971C198.233 188.971 197.943 184.321 195.763 185.483C193.583 186.646 194.164 193.767 196.635 194.349C199.105 195.075 198.524 189.989 198.233 188.971Z" fill="#EC7C68"/>
<path d="M289.792 215.277C289.792 215.277 288.339 210.19 289.066 208.882C289.792 207.574 293.426 207.283 293.426 207.283C293.426 207.283 292.699 213.097 289.792 215.277Z" fill="#EC7C68"/>
<path d="M282.235 220.944L289.357 214.55C289.357 214.55 292.699 201.179 299.53 194.785C300.983 195.221 301.71 196.965 300.838 198.273C299.385 200.598 297.495 203.795 297.205 205.975C297.205 205.975 304.181 207.429 306.797 210.335C307.959 212.225 306.797 217.893 306.361 218.91C305.925 219.927 303.454 219.927 303.454 219.927C303.454 219.927 301.855 223.706 300.402 224.868C298.949 226.031 293.426 225.595 293.426 225.595L290.519 229.664C290.665 229.519 283.689 227.194 282.235 220.944Z" fill="#FBA181"/>
<path d="M168.876 214.405C168.876 214.405 162.336 215.422 161.9 228.792C161.464 242.163 157.25 262.074 157.25 273.409C157.25 284.745 171.056 321.078 174.689 323.694C174.689 323.694 178.759 322.096 182.828 319.625C182.828 319.625 179.195 295.5 177.741 284.745C176.143 273.991 179.34 240.71 181.375 234.46C183.409 228.211 185.153 211.934 168.876 214.405Z" fill="#2360A6"/>
<path d="M226.283 468.3C227.009 467.864 227.445 467.283 227.155 466.556C226.283 464.376 221.196 463.649 217.708 462.632C214.22 461.615 212.04 459.144 212.04 459.144C212.04 459.144 212.04 459.144 210.877 457.4C209.715 455.656 208.116 456.092 208.116 456.092C208.116 456.092 198.669 457.109 197.361 457.255C196.053 457.4 195.908 460.016 195.181 462.777C194.6 464.812 194.455 467.137 195.472 468.3H226.283Z" fill="#2360A6"/>
<path d="M195.763 446.21C195.763 446.21 197.361 452.314 196.78 457.255C196.489 460.597 201.431 460.016 204.919 459.871C208.552 459.58 209.569 458.854 209.569 457.836C209.569 456.819 205.936 454.203 205.791 448.826C205.645 443.303 200.123 443.594 195.763 446.21Z" fill="#FBA181"/>
<path d="M227.881 444.756C227.881 444.756 226.137 450.279 226.864 452.895C227.59 455.656 231.66 457.4 228.898 458.418C226.137 459.435 218.289 457.691 215.237 455.366C212.912 453.04 216.545 451.587 217.272 449.843C217.998 448.099 218.58 440.542 218.58 440.542L227.881 444.756Z" fill="#FBA181"/>
<path d="M206.663 303.929C206.663 303.929 208.261 310.469 208.116 317.009C207.97 320.497 208.988 442.722 209.424 448.244C210.005 451.732 196.78 452.75 193.437 450.57C193.437 450.57 190.385 422.375 187.624 406.534C184.863 390.693 181.956 357.702 179.049 346.657C175.997 335.612 170.62 318.317 170.475 304.656C170.329 304.656 184.136 284.6 206.663 303.929Z" fill="#024470"/>
<path d="M223.812 302.621L228.608 311.486C228.608 311.486 249.826 362.062 253.169 377.758C256.657 393.454 229.916 447.518 229.916 447.518C229.916 447.518 215.382 446.936 216.981 440.687C217.708 437.926 229.916 381.827 229.916 381.827C229.916 381.827 209.424 346.221 205.936 340.117C202.448 334.013 188.205 328.49 182.683 308.725L223.812 302.621Z" fill="#023C5D"/>
<path d="M182.101 206.557C187.333 205.975 197.216 205.249 202.738 207.865L206.808 211.498L177.741 212.806L178.177 210.335C178.613 208.301 180.067 206.702 182.101 206.557Z" fill="#2360A6"/>
<path d="M227.009 301.023C224.684 303.639 224.684 307.563 221.196 308.144C211.168 309.888 191.112 311.487 174.253 309.597C170.475 309.161 167.713 305.819 168.004 302.04C169.021 291.576 170.765 271.665 170.475 267.596C169.893 261.928 165.388 234.751 164.371 226.612C163.353 218.474 169.021 214.259 169.021 214.259L177.16 211.207L199.687 210.19C199.687 210.19 213.057 210.19 218.725 214.841C224.393 219.491 226.428 229.228 226.428 236.931C226.428 236.931 228.608 251.028 228.608 262.946C228.608 274.863 230.788 296.663 227.009 301.023Z" fill="#2360A6"/>
<path d="M211.895 462.196C212.766 464.376 218.87 467.137 223.23 468.3H245.612C246.338 467.428 246.629 466.411 245.466 466.265C243.432 466.265 236.165 463.213 234.13 461.76C232.096 460.452 232.096 456.964 229.334 455.947C218.725 457.981 214.946 452.459 214.946 452.459C213.202 455.22 213.638 456.528 213.638 456.528C213.638 456.528 210.877 459.725 211.895 462.196Z" fill="#2360A6"/>
<path d="M223.23 468.3H228.317C227.59 467.864 226.864 467.283 226.282 466.701C221.922 461.76 215.964 460.307 212.766 460.743C212.33 460.743 211.894 460.888 211.749 461.033C211.749 461.324 211.894 461.76 211.894 462.051C212.766 464.376 218.87 467.137 223.23 468.3Z" fill="#153A64"/>
<path d="M210.586 236.931C210.586 236.931 246.919 255.97 256.802 258.44C262.906 260.039 294.298 226.612 294.298 226.612C294.298 226.612 293.862 215.567 284.125 217.166L257.238 237.512C257.238 237.512 236.165 225.74 230.642 222.688C224.974 219.636 215.818 210.917 212.185 212.37C208.552 213.969 196.78 226.176 210.586 236.931Z" fill="#2360A6"/>
<path d="M169.748 239.111C169.748 239.111 171.783 268.613 172.073 273.845C172.364 279.223 170.329 304.511 170.329 304.511" stroke="#1C4D85" stroke-miterlimit="10"/>
<path d="M129.346 362.643H84.5834C83.1301 362.643 82.1128 361.481 82.1128 360.173C82.1128 358.72 83.2755 357.702 84.5834 357.702H129.346C130.799 357.702 131.816 358.865 131.816 360.173C131.962 361.481 130.799 362.643 129.346 362.643Z" fill="#91B0D3"/>
<path d="M101.297 372.962H84.5834C83.1301 372.962 82.1128 371.799 82.1128 370.491C82.1128 369.038 83.2755 368.021 84.5834 368.021H101.151C102.605 368.021 103.622 369.183 103.622 370.491C103.767 371.799 102.605 372.962 101.297 372.962Z" fill="#91B0D3"/>
<path d="M384.258 279.949H339.496C338.043 279.949 337.025 278.787 337.025 277.479C337.025 276.025 338.188 275.008 339.496 275.008H384.258C385.712 275.008 386.729 276.171 386.729 277.479C386.729 278.787 385.566 279.949 384.258 279.949Z" fill="#91B0D3"/>
<path d="M356.064 290.123H339.496C338.043 290.123 337.025 288.96 337.025 287.652C337.025 286.199 338.188 285.181 339.496 285.181H356.064C357.517 285.181 358.535 286.344 358.535 287.652C358.535 289.105 357.517 290.123 356.064 290.123Z" fill="#91B0D3"/>
<path d="M393.124 366.713H277.585C274.678 366.713 272.353 364.387 272.353 361.481V339.826C272.353 336.92 274.678 334.594 277.585 334.594H393.124C396.031 334.594 398.356 336.92 398.356 339.826V361.481C398.356 364.242 396.031 366.713 393.124 366.713Z" fill="#BDCFE4"/>
<path d="M379.754 347.82H293.426C291.973 347.82 290.956 346.657 290.956 345.349C290.956 343.896 292.118 342.878 293.426 342.878H379.754C381.207 342.878 382.224 344.041 382.224 345.349C382.224 346.657 381.062 347.82 379.754 347.82Z" fill="#91B0D3"/>
<path d="M309.994 357.993H293.426C291.973 357.993 290.956 356.83 290.956 355.522C290.956 354.069 292.118 353.052 293.426 353.052H309.994C311.447 353.052 312.465 354.214 312.465 355.522C312.61 356.976 311.447 357.993 309.994 357.993Z" fill="#91B0D3"/>
<path d="M355.338 410.894H239.798C236.892 410.894 234.566 408.569 234.566 405.662V384.007C234.566 381.101 236.892 378.775 239.798 378.775H355.338C358.244 378.775 360.57 381.101 360.57 384.007V405.662C360.57 408.569 358.244 410.894 355.338 410.894Z" fill="#BDCFE4"/>
<path d="M300.402 392.001H255.785C254.332 392.001 253.314 390.838 253.314 389.53C253.314 388.077 254.477 387.059 255.785 387.059H300.547C302.001 387.059 303.018 388.222 303.018 389.53C303.018 390.838 301.855 392.001 300.402 392.001Z" fill="#91B0D3"/>
<path d="M272.353 402.319H255.785C254.332 402.319 253.314 401.157 253.314 399.849C253.314 398.395 254.477 397.378 255.785 397.378H272.353C273.806 397.378 274.824 398.541 274.824 399.849C274.824 401.157 273.661 402.319 272.353 402.319Z" fill="#91B0D3"/>
<path d="M301.274 321.805C315.963 321.805 327.87 309.898 327.87 295.209C327.87 280.521 315.963 268.613 301.274 268.613C286.586 268.613 274.678 280.521 274.678 295.209C274.678 309.898 286.586 321.805 301.274 321.805Z" fill="#BDCFE4"/>
<path d="M301.274 263.672C318.714 263.672 332.811 277.769 332.811 295.209C332.811 312.649 318.714 326.746 301.274 326.746" stroke="#91B0D3" stroke-miterlimit="10"/>
<path d="M307.669 302.04C308.395 301.459 308.831 301.023 309.122 300.587C309.558 299.569 309.994 298.261 310.43 296.663C310.721 296.953 311.011 297.099 311.447 297.099C312.465 297.099 315.226 291.431 313.773 290.268C313.046 289.541 312.174 290.123 311.593 290.849C312.029 288.379 312.319 286.489 312.319 286.489C312.319 286.199 312.319 285.908 312.319 285.472C312.319 278.932 307.087 273.7 300.547 273.7C294.008 273.7 288.776 278.932 288.776 285.472C288.776 285.763 288.776 286.053 288.776 286.489C288.776 286.489 289.066 288.379 289.502 290.849C288.921 290.123 288.194 289.541 287.322 290.268C286.014 291.576 288.63 297.099 289.648 297.099C290.084 297.099 290.374 296.953 290.665 296.663C291.101 298.116 291.537 299.569 291.973 300.587C292.264 301.168 292.99 301.749 294.008 302.476C293.717 304.511 293.136 306.981 291.682 308.289C289.793 310.033 285.142 311.487 281.654 313.085C286.45 318.462 293.572 321.805 301.419 321.805C309.122 321.805 315.953 318.608 320.894 313.376C317.261 311.632 312.319 310.179 310.139 308.289C308.541 306.836 307.959 304.22 307.669 302.04Z" fill="#2360A6"/>
<path d="M57.6969 202.051H49.413C47.8143 202.051 46.5063 200.743 46.5063 199.145V190.861C46.5063 189.262 47.8143 187.954 49.413 187.954H57.6969C59.2956 187.954 60.6036 189.262 60.6036 190.861V198.999C60.6036 200.743 59.2956 202.051 57.6969 202.051Z" fill="#91B0D3"/>
<path d="M411.581 255.098H403.297C401.699 255.098 400.391 253.79 400.391 252.191V243.907C400.391 242.308 401.699 241 403.297 241H411.581C413.18 241 414.488 242.308 414.488 243.907V252.191C414.633 253.79 413.325 255.098 411.581 255.098Z" fill="#91B0D3"/>
<path d="M165.679 401.447H157.395C155.796 401.447 154.488 400.139 154.488 398.541V390.257C154.488 388.658 155.796 387.35 157.395 387.35H165.679C167.278 387.35 168.586 388.658 168.586 390.257V398.541C168.586 399.994 167.278 401.447 165.679 401.447Z" fill="#91B0D3"/>
<path d="M148.821 414.672H143.589C142.571 414.672 141.699 413.8 141.699 412.783V407.551C141.699 406.534 142.571 405.662 143.589 405.662H148.821C149.838 405.662 150.71 406.534 150.71 407.551V412.783C150.564 413.8 149.838 414.672 148.821 414.672Z" fill="#91B0D3"/>
<path d="M76.2995 221.816H68.0155C66.4169 221.816 65.1089 220.508 65.1089 218.91V210.626C65.1089 209.027 66.4169 207.719 68.0155 207.719H76.2995C77.8981 207.719 79.2061 209.027 79.2061 210.626V218.91C79.2061 220.508 77.8981 221.816 76.2995 221.816Z" fill="#91B0D3"/>
<path d="M371.76 399.267H411.145C416.232 399.267 420.447 395.053 420.447 389.966V357.266C420.447 352.18 416.232 347.965 411.145 347.965H406.349" stroke="#6590C1" stroke-width="2" stroke-miterlimit="10" stroke-linecap="round" stroke-linejoin="round"/>
<path d="M311.447 143.046H275.405V150.168H311.447V143.046Z" stroke="#91B0D3" stroke-miterlimit="10"/>
<path d="M285.723 156.562H275.405V163.684H285.723V156.562Z" stroke="#91B0D3" stroke-miterlimit="10"/>
</g>
<path d="M473.783 467.967C473.783 467.967 367.662 468.07 236.892 468.07C106.019 468.07 0 468.07 0 467.967C0 467.967 106.019 467.864 236.892 467.864C367.765 467.864 473.783 467.967 473.783 467.967Z" fill="#263238"/>
<path d="M370.979 4.11435C358.056 8.21572 325.352 39.6983 317.848 74.9556C310.343 110.213 345.467 120.316 350.817 114.052C356.167 107.788 331.531 78.761 305.999 102.485C293.148 114.426 281.987 140.359 285.603 152.996" stroke="#2360A6" stroke-linecap="square" stroke-linejoin="round"/>
<defs>
<linearGradient id="paint0_linear_4626_3501" x1="215.655" y1="-144.249" x2="256.957" y2="436.875" gradientUnits="userSpaceOnUse">
<stop stop-color="#2360A6"/>
<stop offset="1" stop-color="white" stop-opacity="0"/>
</linearGradient>
<linearGradient id="paint1_linear_4626_3501" x1="94.6981" y1="57.1069" x2="94.6981" y2="137.051" gradientUnits="userSpaceOnUse">
<stop stop-color="#D8E2F6"/>
<stop offset="0.00971049" stop-color="#DAE3F6"/>
<stop offset="0.1219" stop-color="#EBF0FA"/>
<stop offset="0.2609" stop-color="#F6F9FD"/>
<stop offset="0.4566" stop-color="#FDFEFF"/>
<stop offset="1" stop-color="white"/>
</linearGradient>
<linearGradient id="paint2_linear_4626_3501" x1="144.515" y1="57.1069" x2="144.515" y2="137.051" gradientUnits="userSpaceOnUse">
<stop stop-color="#D8E2F6"/>
<stop offset="0.00971049" stop-color="#DAE3F6"/>
<stop offset="0.1219" stop-color="#EBF0FA"/>
<stop offset="0.2609" stop-color="#F6F9FD"/>
<stop offset="0.4566" stop-color="#FDFEFF"/>
<stop offset="1" stop-color="white"/>
</linearGradient>
<linearGradient id="paint3_linear_4626_3501" x1="194.333" y1="57.1069" x2="194.333" y2="137.051" gradientUnits="userSpaceOnUse">
<stop stop-color="#D8E2F6"/>
<stop offset="0.00971049" stop-color="#DAE3F6"/>
<stop offset="0.1219" stop-color="#EBF0FA"/>
<stop offset="0.2609" stop-color="#F6F9FD"/>
<stop offset="0.4566" stop-color="#FDFEFF"/>
<stop offset="1" stop-color="white"/>
</linearGradient>
<linearGradient id="paint4_linear_4626_3501" x1="244.15" y1="57.1069" x2="244.15" y2="137.051" gradientUnits="userSpaceOnUse">
<stop stop-color="#D8E2F6"/>
<stop offset="0.00971049" stop-color="#DAE3F6"/>
<stop offset="0.1219" stop-color="#EBF0FA"/>
<stop offset="0.2609" stop-color="#F6F9FD"/>
<stop offset="0.4566" stop-color="#FDFEFF"/>
<stop offset="1" stop-color="white"/>
</linearGradient>
<linearGradient id="paint5_linear_4626_3501" x1="100.93" y1="356.184" x2="123.34" y2="261.451" gradientUnits="userSpaceOnUse">
<stop stop-color="#D8E2F6"/>
<stop offset="0.00971049" stop-color="#DAE3F6"/>
<stop offset="0.1219" stop-color="#EBF0FA"/>
<stop offset="0.2609" stop-color="#F6F9FD"/>
<stop offset="0.4566" stop-color="#FDFEFF"/>
<stop offset="1" stop-color="white"/>
</linearGradient>
<clipPath id="clip0_4626_3501">
<rect width="375.393" height="378.3" fill="white" transform="translate(46.5063 90.0001)"/>
</clipPath>
</defs>
</svg>
