<svg width="446" height="467" viewBox="0 0 446 467" fill="none" xmlns="http://www.w3.org/2000/svg">
<ellipse cx="221.5" cy="255.017" rx="210.5" ry="211" fill="url(#paint0_linear_4626_3606)"/>
<g clip-path="url(#clip0_4626_3606)">
<path d="M395.959 322.542H234.775C231.92 322.542 229.512 320.24 229.512 317.317V84.2252C229.512 81.3912 231.831 79.0001 234.775 79.0001H395.959C398.813 79.0001 401.222 81.3026 401.222 84.2252V317.406C401.222 320.24 398.903 322.542 395.959 322.542ZM234.775 79.1772C232.009 79.1772 229.779 81.3912 229.779 84.1366V317.317C229.779 320.063 232.009 322.277 234.775 322.277H395.959C398.724 322.277 400.954 320.063 400.954 317.317V84.2252C400.954 81.4798 398.724 79.2657 395.959 79.2657H234.775V79.1772Z" fill="#C6CAD0"/>
<path d="M210.066 322.542H48.7926C45.9382 322.542 43.5298 320.24 43.5298 317.317V84.2252C43.5298 81.3912 45.849 79.0001 48.7926 79.0001H209.977C212.831 79.0001 215.24 81.3026 215.24 84.2252V317.406C215.329 320.24 212.921 322.542 210.066 322.542ZM48.7926 79.1772C46.0274 79.1772 43.7974 81.3912 43.7974 84.1366V317.317C43.7974 320.063 46.0274 322.277 48.7926 322.277H209.977C212.742 322.277 214.972 320.063 214.972 317.317V84.2252C214.972 81.4798 212.742 79.2657 209.977 79.2657H48.7926V79.1772Z" fill="#C6CAD0"/>
<path d="M446 376.653H0V376.83H446V376.653Z" fill="#E0E0E0"/>
<path d="M60.4774 389.229H46.1162V389.406H60.4774V389.229Z" fill="#E0E0E0"/>
<path d="M199.719 386.838H151.997V387.015H199.719V386.838Z" fill="#E0E0E0"/>
<path d="M93.5707 397.465H61.2803V397.642H93.5707V397.465Z" fill="#E0E0E0"/>
<path d="M376.067 386.749H337.533V386.926H376.067V386.749Z" fill="#E0E0E0"/>
<path d="M389.625 386.749H384.006V386.926H389.625V386.749Z" fill="#E0E0E0"/>
<path d="M330.129 392.24H282.05V392.417H330.129V392.24Z" fill="#E0E0E0"/>
<path d="M73.1437 409.864C73.1437 409.332 71.4489 359.827 63.3317 351.945C55.3929 344.328 46.3837 351.679 46.0269 351.945L45.2241 350.971C45.3133 350.882 55.5713 342.557 64.2237 350.971C72.6977 359.118 74.3925 407.65 74.3925 409.775L73.1437 409.864Z" fill="#E0E0E0"/>
<path d="M73.8575 419.605C73.7683 418.985 68.3271 360.092 90.0027 335.384L90.9839 336.181C69.6651 360.447 75.1063 418.808 75.1955 419.428L73.8575 419.605Z" fill="#E0E0E0"/>
<path d="M73.0546 413.406L71.8058 413.317C71.895 412.609 76.0874 346.365 60.1206 331.841L61.0126 330.956C77.3362 345.834 73.233 410.661 73.0546 413.406Z" fill="#E0E0E0"/>
<path d="M75.1062 413.406H73.8574C73.8574 411.546 74.3926 368.594 86.7022 361.598C89.4674 360.004 92.1434 359.827 94.641 360.801C102.045 363.812 105.791 377.007 105.88 377.539L104.631 377.893C104.631 377.804 100.974 364.786 94.1058 361.952C91.965 361.066 89.6458 361.332 87.2374 362.661C75.6414 369.303 75.1062 412.963 75.1062 413.406Z" fill="#E0E0E0"/>
<path d="M70.3787 413.406L69.1299 413.317C69.1299 412.963 71.0031 379.399 61.8155 367.531C59.5855 364.697 57.1771 363.281 54.6795 363.458C48.7031 363.9 43.7079 372.579 43.6187 372.668L42.5483 372.048C42.7267 371.694 47.9895 362.661 54.5903 362.218C57.5339 362.041 60.3883 363.546 62.8859 366.734C72.2519 378.956 70.4679 411.989 70.3787 413.406Z" fill="#E0E0E0"/>
<path d="M72.3411 418.011C72.0735 414.734 66.3647 338.041 76.4443 324.491L77.4255 325.199C67.6135 338.306 73.5007 417.126 73.5899 417.834L72.3411 418.011Z" fill="#E0E0E0"/>
<path d="M97.4064 368.594C97.4064 368.594 91.3408 370.808 93.1248 376.033C94.9088 381.258 113.998 389.849 113.998 389.849C113.998 389.849 122.026 382.587 114.622 370.72C107.308 358.852 97.4956 364.875 97.4064 368.594Z" fill="#EBEBEB"/>
<path d="M71.0924 358.675C71.0924 358.675 77.5148 358.41 77.8716 363.9C78.2284 369.391 63.9564 384.624 63.9564 384.624C63.9564 384.624 53.7876 380.993 55.9284 367.266C58.1584 353.45 69.4868 355.221 71.0924 358.675Z" fill="#EBEBEB"/>
<path d="M65.6509 332.284C65.6509 332.284 69.9325 331.841 69.5757 329.273C69.2189 326.705 52.8953 319.974 43.2617 330.779C43.2617 330.779 49.4165 341.317 58.3365 341.406C67.2565 341.583 65.6509 332.284 65.6509 332.284Z" fill="#EBEBEB"/>
<path d="M73.6788 325.996C73.6788 325.996 69.754 327.856 68.6836 325.465C67.6132 323.074 77.8712 308.816 91.7864 312.978C91.7864 312.978 92.1432 325.111 84.6504 329.982C77.1576 334.764 73.6788 325.996 73.6788 325.996Z" fill="#EBEBEB"/>
<path d="M53.3414 366.469C53.3414 366.469 56.285 364.078 53.0738 362.926C49.8626 361.775 34.1634 362.129 34.0742 377.539C34.0742 377.539 52.3602 380.55 54.5902 374.705C56.8202 368.771 53.3414 366.469 53.3414 366.469Z" fill="#EBEBEB"/>
<path d="M90.538 331.93C90.538 331.93 87.5944 329.539 90.8056 328.387C94.0168 327.236 109.716 327.59 109.805 343C109.805 343 91.5192 346.011 89.2892 340.166C87.0592 334.233 90.538 331.93 90.538 331.93Z" fill="#EBEBEB"/>
<path d="M80.904 344.328C80.904 344.328 80.6364 341.406 82.9556 342.557C85.2748 343.709 93.4813 352.476 85.0073 360.712C85.0073 360.712 73.5897 352.299 75.6413 347.959C77.7821 343.62 80.904 344.328 80.904 344.328Z" fill="#EBEBEB"/>
<path d="M50.6652 348.402C50.6652 348.402 52.4492 346.1 49.8624 345.834C47.2756 345.568 35.6796 348.668 38.3556 360.181C38.3556 360.181 52.5384 359.118 53.0736 354.336C53.698 349.554 50.6652 348.402 50.6652 348.402Z" fill="#EBEBEB"/>
<path d="M87.0591 435.635H58.5151L50.9331 400.83H93.9275L87.0591 435.635Z" fill="#F0F0F0"/>
<path d="M96.425 400.299H48.3462V410.306H96.425V400.299Z" fill="#E6E6E6"/>
<path opacity="0.2" d="M333.518 390.114H300.425V388.609H333.518V390.114Z" fill="black"/>
<path d="M335.302 388.875H300.425V403.93H335.302V388.875Z" fill="#2360A6"/>
<path opacity="0.8" d="M335.302 388.875H300.425V403.93H335.302V388.875Z" fill="white"/>
<path opacity="0.2" d="M332.448 391.62L303.547 392.24L332.448 392.86V391.62Z" fill="black"/>
<path opacity="0.2" d="M332.448 397.111L301.853 397.642L332.448 398.085V397.111Z" fill="black"/>
<path opacity="0.2" d="M332.448 400.388L302.12 401.007L332.448 401.627V400.388Z" fill="black"/>
<path opacity="0.2" d="M300.425 393.745L329.772 394.631L300.425 395.251V393.745Z" fill="black"/>
<path d="M378.208 396.314C378.208 400.033 375.175 403.133 371.339 403.133H298.82C298.552 403.133 298.285 403.399 298.285 403.664V404.196C298.285 404.461 298.552 404.727 298.82 404.727H371.785C376.424 404.727 380.17 401.007 380.17 396.402C380.17 396.402 380.17 396.402 380.17 396.314C380.081 391.709 376.245 387.989 371.607 387.989H298.82C298.552 387.989 298.285 388.255 298.285 388.52V389.052C298.285 389.317 298.552 389.583 298.82 389.583H371.25C374.997 389.406 378.119 392.506 378.208 396.314Z" fill="#263238"/>
<path opacity="0.4" d="M378.208 396.314C378.208 400.033 375.175 403.133 371.339 403.133H298.82C298.552 403.133 298.285 403.399 298.285 403.664V404.196C298.285 404.461 298.552 404.727 298.82 404.727H371.785C376.424 404.727 380.17 401.007 380.17 396.402C380.17 396.402 380.17 396.402 380.17 396.314C380.081 391.709 376.245 387.989 371.607 387.989H298.82C298.552 387.989 298.285 388.255 298.285 388.52V389.052C298.285 389.317 298.552 389.583 298.82 389.583H371.25C374.997 389.406 378.119 392.506 378.208 396.314Z" fill="white"/>
<path d="M404.7 396.402C404.7 400.565 401.311 403.93 397.118 403.93H332.448V388.875H397.118C401.311 388.786 404.7 392.151 404.7 396.402C404.7 396.314 404.7 396.314 404.7 396.402Z" fill="#2360A6"/>
<path opacity="0.7" d="M332.448 388.875V403.93H397.118C401.311 403.93 404.7 400.565 404.7 396.402C404.7 392.24 401.311 388.875 397.118 388.875H332.448Z" fill="white"/>
<path opacity="0.2" d="M332.448 392.86V391.62L396.94 392.151L332.448 392.86Z" fill="black"/>
<path opacity="0.2" d="M332.448 398.085V397.111L361.438 398.174L332.448 398.085Z" fill="black"/>
<path opacity="0.2" d="M332.448 401.627V400.388L379.1 401.096L332.448 401.627Z" fill="black"/>
<path opacity="0.2" d="M397.208 390.292C398.456 390.292 399.616 390.734 400.597 391.62C400.151 392.417 399.884 393.214 399.616 394.1L334.946 394.631L399.438 394.808C399.348 395.34 399.259 395.871 399.259 396.402C399.259 397.022 399.348 397.642 399.438 398.262L355.908 399.236L399.884 399.768C400.24 400.83 400.776 401.805 401.311 402.779C404.79 400.388 405.592 395.694 403.184 392.328C401.757 390.292 399.438 389.052 396.94 389.052H332.27V390.557L397.208 390.292Z" fill="black"/>
<path d="M404.165 396.314C404.165 400.033 401.132 403.133 397.296 403.133H331.467C331.199 403.133 330.932 403.399 330.932 403.664V404.196C330.932 404.461 331.199 404.727 331.467 404.727H397.653C402.292 404.727 406.038 401.007 406.038 396.402C406.038 396.402 406.038 396.402 406.038 396.314C405.949 391.709 402.113 387.989 397.475 387.989H331.467C331.199 387.989 330.932 388.255 330.932 388.52V389.052C330.932 389.317 331.199 389.583 331.467 389.583H397.207C400.954 389.406 404.076 392.506 404.165 396.314Z" fill="#263238"/>
<path d="M396.94 394.365V400.388L394.71 398.174L392.569 400.299V394.365H396.94Z" fill="#C91330"/>
<path d="M391.944 422.351H310.772V435.369H391.944V422.351Z" fill="#2360A6"/>
<path opacity="0.7" d="M391.944 422.351H310.772V435.369H391.944V422.351Z" fill="white"/>
<path opacity="0.2" d="M310.772 425.805V424.742L366.344 425.185L310.772 425.805Z" fill="black"/>
<path opacity="0.2" d="M310.772 430.321V429.524L335.748 430.41L310.772 430.321Z" fill="black"/>
<path opacity="0.2" d="M310.772 433.421V432.358L351.002 432.978L310.772 433.421Z" fill="black"/>
<path opacity="0.2" d="M373.837 422.351L374.996 432.092L373.658 430.587C373.212 432.358 372.32 433.952 371.072 435.369C370.18 434.218 369.466 432.978 369.02 431.65L331.11 431.207L368.663 430.41C368.574 429.878 368.485 429.347 368.485 428.816C368.485 428.373 368.574 427.93 368.663 427.487L313.002 427.31L368.752 426.867C368.931 426.159 369.198 425.45 369.555 424.742C368.752 424.033 367.682 423.59 366.612 423.59H310.772V422.351H373.837Z" fill="black"/>
<path d="M372.588 428.816C372.588 432.092 369.912 434.661 366.701 434.661H309.881C309.613 434.661 309.435 434.838 309.435 435.103V435.546C309.435 435.812 309.613 435.989 309.881 435.989H398.278C402.292 435.989 405.503 432.712 405.503 428.816C405.414 424.83 402.113 421.642 398.099 421.642H309.881C309.613 421.642 309.435 421.819 309.435 422.085V422.528C309.435 422.793 309.613 422.971 309.881 422.971H366.523C369.734 422.882 372.499 425.539 372.588 428.816Z" fill="#2360A6"/>
<path opacity="0.2" d="M372.588 428.816C372.588 432.092 369.912 434.661 366.701 434.661H309.881C309.613 434.661 309.435 434.838 309.435 435.103V435.546C309.435 435.812 309.613 435.989 309.881 435.989H398.278C402.292 435.989 405.503 432.712 405.503 428.816C405.414 424.83 402.113 421.642 398.099 421.642H309.881C309.613 421.642 309.435 421.819 309.435 422.085V422.528C309.435 422.793 309.613 422.971 309.881 422.971H366.523C369.734 422.882 372.499 425.539 372.588 428.816Z" fill="black"/>
<path d="M372.588 428.816C372.588 432.092 369.912 434.661 366.701 434.661H309.881C309.613 434.661 309.435 434.838 309.435 435.103V435.546C309.435 435.812 309.613 435.989 309.881 435.989H367.058C371.072 435.989 374.283 432.801 374.283 428.816C374.283 428.816 374.283 428.816 374.283 428.727C374.194 424.742 370.893 421.554 366.879 421.554H309.97C309.702 421.554 309.524 421.731 309.524 421.996V422.439C309.524 422.705 309.702 422.882 309.97 422.882H366.612C369.734 422.882 372.499 425.539 372.588 428.816Z" fill="#2360A6"/>
<path opacity="0.2" d="M372.588 428.816C372.588 432.092 369.912 434.661 366.701 434.661H309.881C309.613 434.661 309.435 434.838 309.435 435.103V435.546C309.435 435.812 309.613 435.989 309.881 435.989H367.058C371.072 435.989 374.283 432.801 374.283 428.816C374.283 428.816 374.283 428.816 374.283 428.727C374.194 424.742 370.893 421.554 366.879 421.554H309.97C309.702 421.554 309.524 421.731 309.524 421.996V422.439C309.524 422.705 309.702 422.882 309.97 422.882H366.612C369.734 422.882 372.499 425.539 372.588 428.816Z" fill="white"/>
<path d="M404.343 405.701H307.383V421.199H404.343V405.701Z" fill="#2360A6"/>
<path opacity="0.8" d="M404.343 405.701H307.383V421.199H404.343V405.701Z" fill="white"/>
<path opacity="0.2" d="M307.383 409.775V408.535L373.837 409.066L307.383 409.775Z" fill="black"/>
<path opacity="0.2" d="M307.383 415.177V414.203L337.176 415.266L307.383 415.177Z" fill="black"/>
<path opacity="0.2" d="M307.383 418.808V417.568L355.462 418.277L307.383 418.808Z" fill="black"/>
<path opacity="0.2" d="M382.668 405.701L384.095 417.214L382.489 415.443C381.954 417.568 380.884 419.517 379.456 421.199C378.386 419.871 377.583 418.365 376.959 416.771L331.645 416.24L376.513 415.266C376.334 414.646 376.334 414.026 376.334 413.317C376.334 412.786 376.424 412.255 376.513 411.723L310.059 411.546L376.602 411.015C376.87 410.129 377.137 409.332 377.583 408.535C376.602 407.65 375.353 407.207 374.104 407.207H307.383V405.701H382.668Z" fill="black"/>
<path d="M381.151 413.317C381.151 417.214 377.94 420.314 374.105 420.314H306.313C306.045 420.314 305.777 420.579 305.777 420.845V421.376C305.777 421.642 306.045 421.908 306.313 421.908H406.573C411.39 421.908 415.226 418.011 415.226 413.317C415.226 413.317 415.226 413.317 415.226 413.229C415.047 408.447 411.123 404.638 406.306 404.727H306.313C306.045 404.727 305.777 404.993 305.777 405.258V405.79C305.777 406.055 306.045 406.321 306.313 406.321H373.926C377.851 406.41 381.062 409.421 381.151 413.317Z" fill="#C91330"/>
<path d="M381.151 413.317C381.151 417.214 377.94 420.314 374.105 420.314H306.313C306.045 420.314 305.777 420.579 305.777 420.845V421.376C305.777 421.642 306.045 421.908 306.313 421.908H374.551C379.367 421.908 383.203 418.011 383.203 413.317C383.203 413.317 383.203 413.317 383.203 413.229C383.025 408.447 379.1 404.727 374.372 404.727H306.313C306.045 404.727 305.777 404.993 305.777 405.258V405.79C305.777 406.055 306.045 406.321 306.313 406.321H373.926C377.851 406.41 381.062 409.421 381.151 413.317Z" fill="#C91330"/>
<path opacity="0.6" d="M380.38 413.031C380.38 416.927 377.169 420.027 373.334 420.027H305.542C305.274 420.027 305.006 420.293 305.006 420.558V421.09C305.006 421.355 305.274 421.621 305.542 421.621H373.78C378.596 421.621 382.432 417.724 382.432 413.031C382.432 413.031 382.432 413.031 382.432 412.942C382.254 408.16 378.329 404.44 373.601 404.44H305.542C305.274 404.44 305.006 404.706 305.006 404.972V405.503C305.006 405.769 305.274 406.034 305.542 406.034H373.155C377.08 406.123 380.291 409.134 380.38 413.031Z" fill="white"/>
<path d="M381.776 376.919H314.519V387.635H381.776V376.919Z" fill="#2360A6"/>
<path opacity="0.7" d="M381.776 376.919H314.519V387.635H381.776V376.919Z" fill="white"/>
<path opacity="0.2" d="M314.519 379.753V378.867L360.546 379.221L314.519 379.753Z" fill="black"/>
<path opacity="0.2" d="M314.519 383.561V382.852L335.213 383.561H314.519Z" fill="black"/>
<path opacity="0.2" d="M314.519 386.041V385.155L347.791 385.686L314.519 386.041Z" fill="black"/>
<path opacity="0.2" d="M366.701 376.919L367.682 384.889L366.522 383.65C366.166 385.155 365.452 386.483 364.382 387.635C363.668 386.661 363.044 385.686 362.687 384.535L331.288 384.181L362.419 383.472C362.33 383.03 362.241 382.587 362.241 382.144C362.241 381.79 362.241 381.347 362.33 380.993L316.214 380.904L362.419 380.55C362.598 379.93 362.776 379.399 363.133 378.779C362.508 378.159 361.616 377.893 360.724 377.893H314.43V376.83L366.701 376.919Z" fill="black"/>
<path d="M365.72 382.233C365.72 384.889 363.49 387.103 360.814 387.103H313.716C313.538 387.103 313.359 387.28 313.359 387.458V387.812C313.359 387.989 313.538 388.166 313.716 388.166H386.949C390.25 388.166 392.926 385.509 392.926 382.233C392.926 382.233 392.926 382.233 392.926 382.144C392.837 378.867 390.071 376.21 386.771 376.21H313.716C313.538 376.21 313.359 376.388 313.359 376.565V376.919C313.359 377.096 313.538 377.273 313.716 377.273H360.635C363.401 377.362 365.631 379.487 365.72 382.233Z" fill="#263238"/>
<path opacity="0.2" d="M365.72 382.233C365.72 384.889 363.49 387.103 360.814 387.103H313.716C313.538 387.103 313.359 387.28 313.359 387.458V387.812C313.359 387.989 313.538 388.166 313.716 388.166H386.949C390.25 388.166 392.926 385.509 392.926 382.233C392.926 382.233 392.926 382.233 392.926 382.144C392.837 378.867 390.071 376.21 386.771 376.21H313.716C313.538 376.21 313.359 376.388 313.359 376.565V376.919C313.359 377.096 313.538 377.273 313.716 377.273H360.635C363.401 377.362 365.631 379.487 365.72 382.233Z" fill="white"/>
<path d="M365.72 382.233C365.72 384.889 363.49 387.103 360.814 387.103H313.716C313.538 387.103 313.359 387.28 313.359 387.458V387.812C313.359 387.989 313.538 388.166 313.716 388.166H360.992C364.292 388.166 366.968 385.509 366.968 382.233C366.968 382.233 366.968 382.233 366.968 382.144C366.879 378.867 364.114 376.21 360.814 376.21H313.627C313.448 376.21 313.27 376.388 313.27 376.565V376.919C313.27 377.096 313.448 377.273 313.627 377.273H360.546C363.4 377.362 365.63 379.487 365.72 382.233Z" fill="#263238"/>
<path opacity="0.4" d="M365.72 382.233C365.72 384.889 363.49 387.103 360.814 387.103H313.716C313.538 387.103 313.359 387.28 313.359 387.458V387.812C313.359 387.989 313.538 388.166 313.716 388.166H360.992C364.292 388.166 366.968 385.509 366.968 382.233C366.968 382.233 366.968 382.233 366.968 382.144C366.879 378.867 364.114 376.21 360.814 376.21H313.627C313.448 376.21 313.27 376.388 313.27 376.565V376.919C313.27 377.096 313.448 377.273 313.627 377.273H360.546C363.4 377.362 365.63 379.487 365.72 382.233Z" fill="white"/>
<path opacity="0.2" d="M104.631 420.491H71.6274V418.985H104.631V420.491Z" fill="black"/>
<path opacity="0.2" d="M104.631 423.059V421.819L171.085 422.351L104.631 423.059Z" fill="black"/>
<path d="M102.044 419.34H67.8809V434.041H102.044V419.34Z" fill="#2360A6"/>
<path opacity="0.8" d="M102.044 419.34H67.8809V434.041H102.044V419.34Z" fill="white"/>
<path opacity="0.2" d="M99.2797 421.996L70.9141 422.616L99.2797 423.236V421.996Z" fill="black"/>
<path opacity="0.2" d="M99.2793 427.487L69.3081 428.019L99.2793 428.373V427.487Z" fill="black"/>
<path opacity="0.2" d="M99.2793 430.675L69.5757 431.295L99.2793 431.827V430.675Z" fill="black"/>
<path opacity="0.2" d="M67.8809 424.122L96.6925 425.007L67.8809 425.627V424.122Z" fill="black"/>
<path d="M144.147 426.602C144.147 430.321 141.114 433.244 137.457 433.244H66.2754C66.0078 433.244 65.7402 433.421 65.7402 433.775V434.306C65.7402 434.572 65.9186 434.838 66.2754 434.838H137.814C142.363 434.838 146.02 431.207 146.02 426.602C146.02 426.602 146.02 426.602 146.02 426.513C145.931 421.996 142.185 418.365 137.635 418.365H66.2754C66.0078 418.365 65.7402 418.542 65.7402 418.897V419.428C65.7402 419.694 65.9186 419.959 66.2754 419.959H137.189C141.025 419.959 144.058 422.882 144.147 426.602Z" fill="#263238"/>
<path opacity="0.4" d="M144.147 426.602C144.147 430.321 141.114 433.244 137.457 433.244H66.2754C66.0078 433.244 65.7402 433.421 65.7402 433.775V434.306C65.7402 434.572 65.9186 434.838 66.2754 434.838H137.814C142.363 434.838 146.02 431.207 146.02 426.602C146.02 426.602 146.02 426.602 146.02 426.513C145.931 421.996 142.185 418.365 137.635 418.365H66.2754C66.0078 418.365 65.7402 418.542 65.7402 418.897V419.428C65.7402 419.694 65.9186 419.959 66.2754 419.959H137.189C141.025 419.959 144.058 422.882 144.147 426.602Z" fill="white"/>
<path d="M170.104 426.69C170.104 430.764 166.804 434.041 162.7 434.041H99.2793V419.251H162.611C166.715 419.34 170.104 422.616 170.104 426.69Z" fill="#2360A6"/>
<path opacity="0.7" d="M99.2793 419.34V434.129H162.611C166.714 434.129 170.015 430.852 170.015 426.779C170.015 422.705 166.714 419.428 162.611 419.428H99.2793V419.34Z" fill="white"/>
<path opacity="0.2" d="M99.2793 428.373V427.487L127.645 428.461L99.2793 428.373Z" fill="black"/>
<path opacity="0.2" d="M99.2793 431.827V430.675L145.039 431.384L99.2793 431.827Z" fill="black"/>
<path opacity="0.2" d="M162.79 420.757C164.039 420.757 165.198 421.199 166.09 421.996C165.733 422.793 165.377 423.59 165.198 424.388L101.866 424.919L165.109 425.096C165.02 425.627 164.931 426.159 164.931 426.69C164.931 427.31 165.02 427.93 165.109 428.55L122.471 429.524L165.555 430.055C165.912 431.118 166.447 432.092 166.982 432.978C170.372 430.675 171.175 426.07 168.855 422.705C167.428 420.757 165.198 419.517 162.79 419.517H99.3687V420.934L162.79 420.757Z" fill="black"/>
<path d="M169.48 426.602C169.48 430.321 166.447 433.244 162.79 433.244H98.209C97.9414 433.244 97.6738 433.421 97.6738 433.775V434.306C97.6738 434.572 97.8522 434.838 98.209 434.838H163.147C167.696 434.838 171.353 431.207 171.353 426.602C171.353 426.602 171.353 426.602 171.353 426.513C171.264 421.996 167.517 418.365 162.968 418.365H98.2982C98.0306 418.365 97.763 418.542 97.763 418.897V419.428C97.763 419.694 97.9414 419.959 98.2982 419.959H162.701C166.358 419.959 169.391 422.882 169.48 426.602Z" fill="#263238"/>
<path d="M162.433 424.742V430.675L160.292 428.55L158.241 430.587V424.742H162.433Z" fill="#C91330"/>
<path d="M153.959 395.074H96.3359V404.284H153.959V395.074Z" fill="#DF7183"/>
<path opacity="0.8" d="M153.959 395.074H96.3359V404.284H153.959V395.074Z" fill="white"/>
<path opacity="0.2" d="M154.048 397.465V396.757L114.533 397.022L154.048 397.465Z" fill="black"/>
<path opacity="0.2" d="M154.048 400.742V400.122L136.297 400.742H154.048Z" fill="black"/>
<path opacity="0.2" d="M154.048 402.867V402.159L125.415 402.602L154.048 402.867Z" fill="black"/>
<path opacity="0.2" d="M109.27 395.074L108.467 401.982L109.448 400.919C109.805 402.159 110.429 403.31 111.232 404.284C111.856 403.487 112.392 402.602 112.659 401.627L139.598 401.362L112.927 400.742C113.016 400.387 113.016 399.945 113.016 399.59C113.016 399.236 113.016 398.971 112.927 398.616L152.442 398.528L112.838 398.262C112.659 397.731 112.481 397.199 112.213 396.757C112.748 396.225 113.551 395.959 114.265 395.959H153.959V395.074H109.27Z" fill="black"/>
<path d="M110.162 399.59C110.162 401.893 112.035 403.753 114.354 403.753H154.673C154.851 403.753 154.94 403.93 154.94 404.107V404.461C154.94 404.638 154.762 404.727 154.673 404.727H94.9978C92.1434 404.727 89.8242 402.424 89.8242 399.59C89.9134 396.757 92.2326 394.542 95.1762 394.542H154.673C154.851 394.542 154.94 394.72 154.94 394.808V395.162C154.94 395.34 154.762 395.428 154.673 395.517H114.443C112.124 395.428 110.251 397.288 110.162 399.59Z" fill="#DF7183"/>
<path opacity="0.4" d="M110.162 399.59C110.162 401.893 112.035 403.753 114.354 403.753H154.673C154.851 403.753 154.94 403.93 154.94 404.107V404.461C154.94 404.638 154.762 404.727 154.673 404.727H94.9978C92.1434 404.727 89.8242 402.424 89.8242 399.59C89.9134 396.757 92.2326 394.542 95.1762 394.542H154.673C154.851 394.542 154.94 394.72 154.94 394.808V395.162C154.94 395.34 154.762 395.428 154.673 395.517H114.443C112.124 395.428 110.251 397.288 110.162 399.59Z" fill="white"/>
<path d="M110.162 399.59C110.162 401.893 112.035 403.753 114.354 403.753H154.673C154.851 403.753 154.94 403.93 154.94 404.107V404.461C154.94 404.638 154.762 404.727 154.673 404.727H114.087C111.232 404.727 108.913 402.424 108.913 399.59C109.002 396.757 111.321 394.542 114.176 394.542H154.583C154.762 394.542 154.851 394.72 154.851 394.808V395.162C154.851 395.34 154.673 395.428 154.583 395.517H114.354C112.124 395.428 110.251 397.288 110.162 399.59Z" fill="#DF7183"/>
<path opacity="0.6" d="M110.162 399.59C110.162 401.893 112.035 403.753 114.354 403.753H154.673C154.851 403.753 154.94 403.93 154.94 404.107V404.461C154.94 404.638 154.762 404.727 154.673 404.727H114.087C111.232 404.727 108.913 402.424 108.913 399.59C109.002 396.757 111.321 394.542 114.176 394.542H154.583C154.762 394.542 154.851 394.72 154.851 394.808V395.162C154.851 395.34 154.673 395.428 154.583 395.517H114.354C112.124 395.428 110.251 397.288 110.162 399.59Z" fill="white"/>
<path d="M157.705 404.904H77.9604V417.657H157.705V404.904Z" fill="#C91330"/>
<path opacity="0.7" d="M157.435 405.88H77.6904V418.633H157.435V405.88Z" fill="white"/>
<path opacity="0.2" d="M77.9604 408.269V407.207L132.551 407.65L77.9604 408.269Z" fill="black"/>
<path opacity="0.2" d="M77.9604 412.697V411.9L102.49 412.786L77.9604 412.697Z" fill="black"/>
<path opacity="0.2" d="M77.9604 415.709V414.646L117.476 415.266L77.9604 415.709Z" fill="black"/>
<path opacity="0.2" d="M139.865 404.904L141.025 414.38L139.687 412.963C139.241 414.734 138.349 416.328 137.189 417.657C136.297 416.506 135.673 415.354 135.138 414.026L97.9413 413.583L134.87 412.786C134.781 412.255 134.692 411.723 134.692 411.192C134.692 410.749 134.692 410.306 134.781 409.864L80.1013 409.686L134.87 409.244C135.048 408.535 135.316 407.827 135.673 407.207C134.87 406.498 133.889 406.144 132.818 406.144H77.9604V404.904H139.865Z" fill="black"/>
<path d="M138.616 411.192C138.616 414.38 136.03 416.948 132.818 416.948H76.9792C76.7116 416.948 76.5332 417.126 76.5332 417.391V417.834C76.5332 418.1 76.7116 418.277 76.9792 418.277H163.771C167.696 418.277 170.907 415.089 170.907 411.192V411.103C170.818 407.207 167.517 404.018 163.592 404.107H76.9792C76.7116 404.107 76.5332 404.284 76.5332 404.55V404.993C76.5332 405.258 76.7116 405.435 76.9792 405.435H132.64C135.851 405.435 138.527 407.915 138.616 411.192Z" fill="#C91330"/>
<path d="M138.616 411.192C138.616 414.38 136.03 416.948 132.818 416.948H76.9792C76.7116 416.948 76.5332 417.126 76.5332 417.391V417.834C76.5332 418.1 76.7116 418.277 76.9792 418.277H133.086C137.011 418.277 140.222 415.089 140.222 411.192V411.103C140.133 407.207 136.832 404.018 132.908 404.107H76.9792C76.7116 404.107 76.5332 404.284 76.5332 404.55V404.993C76.5332 405.258 76.7116 405.435 76.9792 405.435H132.64C135.851 405.435 138.527 407.915 138.616 411.192Z" fill="#A10F26"/>
<path d="M354.213 351.059H349.575V366.292H354.213V351.059Z" fill="#263238"/>
<g opacity="0.2">
<path d="M354.213 351.059H349.575V366.292H354.213V351.059Z" fill="white"/>
</g>
<path d="M351.894 353.539C344.669 353.539 337.444 351.768 331.11 348.314L333.34 344.24C352.608 354.424 376.602 347.251 386.86 328.122C391.856 318.823 392.926 307.841 389.715 297.834C388.466 293.849 386.593 290.041 384.095 286.675C380.527 281.804 375.978 277.819 370.626 274.985L372.856 270.911C375.354 272.24 377.673 273.745 379.814 275.517C382.846 277.996 385.612 280.83 387.931 284.019C390.696 287.827 392.837 291.989 394.175 296.506C401.489 319.62 388.555 344.328 365.274 351.59C360.903 352.919 356.354 353.539 351.894 353.539Z" fill="#263238"/>
<g opacity="0.3">
<path d="M351.894 353.539C344.669 353.539 337.444 351.768 331.11 348.314L333.34 344.24C352.608 354.424 376.602 347.251 386.86 328.122C391.856 318.823 392.926 307.841 389.715 297.834C388.466 293.849 386.593 290.041 384.095 286.675C380.527 281.804 375.978 277.819 370.626 274.985L372.856 270.911C375.354 272.24 377.673 273.745 379.814 275.517C382.846 277.996 385.612 280.83 387.931 284.019C390.696 287.827 392.837 291.989 394.175 296.506C401.489 319.62 388.555 344.328 365.274 351.59C360.903 352.919 356.354 353.539 351.894 353.539Z" fill="white"/>
</g>
<path d="M329.594 352.21C329.415 352.21 329.237 352.122 329.059 352.033C328.523 351.768 328.256 351.059 328.613 350.528L373.391 267.635C373.659 267.103 374.372 266.838 374.997 267.192C375.532 267.458 375.799 268.166 375.443 268.786L330.664 351.679C330.397 351.945 329.951 352.21 329.594 352.21Z" fill="#263238"/>
<g opacity="0.4">
<path d="M329.594 352.21C329.415 352.21 329.237 352.122 329.059 352.033C328.523 351.768 328.256 351.059 328.613 350.528L373.391 267.635C373.659 267.103 374.372 266.838 374.997 267.192C375.532 267.458 375.799 268.166 375.443 268.786L330.664 351.679C330.397 351.945 329.951 352.21 329.594 352.21Z" fill="white"/>
</g>
<path d="M343.42 365.229H360.457C361.617 365.229 362.509 366.114 362.509 367.266V371.074H341.279V367.266C341.368 366.114 342.26 365.229 343.42 365.229Z" fill="#263238"/>
<path d="M353.678 275.782C372.499 276.757 386.949 292.697 386.057 311.384C385.076 330.07 369.02 344.417 350.199 343.531C331.378 342.557 316.927 326.616 317.819 307.93C318.801 289.155 334.857 274.808 353.678 275.782Z" fill="#2360A6"/>
<path opacity="0.5" d="M371.785 282.07C371.696 282.07 371.696 281.982 371.607 281.982C371.518 281.893 371.429 281.804 371.339 281.804C369.912 281.007 370.358 283.753 369.02 284.373C367.682 284.993 365.363 283.841 365.631 283.044C365.898 282.247 363.222 280.033 362.509 279.679C361.349 279.236 360.011 279.856 359.565 281.007C359.476 281.273 359.387 281.539 359.387 281.804C359.297 284.107 360.546 285.524 360.189 286.233C359.833 286.941 359.833 287.118 357.513 288.269C355.194 289.421 353.41 288.004 352.072 289.244C350.645 290.483 352.518 291.192 351.894 294.292C351.359 297.391 350.467 295.177 348.772 295.531C347.077 295.886 348.058 293.849 348.237 292.609C348.415 291.458 346.72 291.103 345.917 291.015C345.115 290.926 343.152 290.661 343.42 288.269C343.687 285.878 343.509 283.664 340.209 283.841C338.514 283.93 337.622 281.539 337.087 279.059C328.345 283.221 321.834 290.749 319.068 299.959C319.247 299.959 319.425 300.137 319.693 300.757C320.495 302.705 321.209 304.653 322.19 305.804C323.082 306.779 323.35 308.107 322.993 309.347C322.547 310.321 320.585 310.852 320.495 311.561C320.495 312.181 318.533 313.066 318.265 313.686C318.176 313.864 318.087 313.952 317.909 313.864C319.068 323.162 324.153 331.576 331.824 337.066C332.716 334.852 334.143 333.17 335.124 333.081C337.176 332.993 343.598 331.93 341.279 329.185C338.871 326.351 336.373 323.782 336.373 323.782C336.908 323.074 337.443 322.365 338.068 321.657C338.425 321.391 337.176 320.683 339.406 320.506C341.547 320.24 341.725 320.24 340.833 319.266C339.941 318.203 338.425 319 339.406 317.76C340.387 316.432 341.457 315.458 342.528 316.875C343.598 318.292 342.974 319.089 343.331 319.531C343.687 319.974 346.899 319.266 346.899 319.266C346.899 319.266 347.701 320.417 347.345 320.683C346.72 321.391 346.185 322.1 345.739 322.897C345.471 323.605 345.026 324.314 344.49 324.845C343.866 325.199 346.274 327.679 346.988 328.033C347.701 328.388 348.058 328.742 348.683 328.565C349.307 328.387 350.556 327.059 351.002 326.705C351.448 326.351 354.124 327.236 354.124 327.236C355.105 327.856 356.086 328.476 356.889 329.273C357.781 330.159 359.119 330.336 360.189 329.627C360.725 329.096 360.725 327.768 361.706 328.21C362.776 328.653 363.133 329.185 363.847 331.664C364.56 334.144 368.842 337.775 368.307 339.369C371.429 337.686 374.283 335.472 376.781 332.816C373.748 331.841 372.677 330.69 372.231 329.982C371.607 329.096 371.964 329.096 372.321 327.679C372.677 326.262 375.353 325.376 375.799 324.934C376.245 324.579 378.386 321.923 379.457 321.657C380.527 321.391 380.438 319.974 380.438 319.974C380.438 319.974 380.616 320.328 381.062 319.443C381.508 318.557 381.062 317.583 382.4 316.343C383.292 315.635 384.363 315.192 385.522 314.926C385.701 313.775 385.79 312.624 385.879 311.384C385.968 309.347 385.879 307.221 385.611 305.185L381.865 306.602C380.973 306.602 380.17 306.513 379.278 306.336C378.832 306.07 376.959 304.83 375.443 305.627C373.926 306.424 373.837 305.096 370.983 304.653C368.217 304.21 372.321 300.225 373.034 299.694C373.659 299.074 373.837 299.428 375.71 298.454C377.584 297.48 377.227 296.063 377.227 296.063C376.067 294.38 374.729 292.875 373.213 291.546C371.339 290.129 374.015 289.952 378.565 288.624C376.781 286.144 374.461 283.93 371.785 282.07ZM359.387 324.934C358.762 325.908 357.87 324.757 357.87 324.757C355.194 323.959 354.927 321.834 355.908 321.037C356.8 320.24 357.246 317.495 358.673 318.557C359.833 319.443 360.992 320.151 362.241 320.86C362.241 320.86 363.757 316.875 363.847 320.594C363.936 324.314 366.077 323.162 363.936 324.314C361.617 325.465 360.011 323.959 359.387 324.934ZM369.734 325.996C369.734 326.971 369.645 327.856 369.377 328.83L367.415 329.804C365.898 328.565 366.523 326.705 367.325 326.528C368.128 326.351 369.645 324.845 369.734 325.996ZM366.077 297.303C366.612 298.277 365.006 298.985 363.222 301.554C361.438 304.122 360.368 301.996 360.368 301.996C360.368 301.996 356.8 299.162 357.959 297.923C359.119 296.683 358.227 295.089 359.922 294.114C360.992 293.495 362.063 294.026 363.044 295.089C364.114 296.24 365.541 296.328 366.077 297.303Z" fill="white"/>
<path opacity="0.2" d="M362.598 277.465C363.044 287.65 359.832 298.631 352.607 308.107C344.579 318.557 333.518 324.934 322.368 326.528C313.002 310.321 318.622 289.598 334.946 280.21C343.33 275.517 353.41 274.454 362.598 277.465Z" fill="white"/>
<g opacity="0.3">
<path d="M343.42 365.229H360.457C361.617 365.229 362.509 366.114 362.509 367.266V371.074H341.279V367.266C341.368 366.114 342.26 365.229 343.42 365.229Z" fill="white"/>
</g>
<path d="M334.143 369.923H369.645C370.983 369.923 372.053 370.985 372.053 372.314V376.21H331.735V372.314C331.735 370.985 332.894 369.923 334.143 369.923Z" fill="#263238"/>
<g opacity="0.4">
<path d="M334.143 369.923H369.645C370.983 369.923 372.053 370.985 372.053 372.314V376.21H331.735V372.314C331.735 370.985 332.894 369.923 334.143 369.923Z" fill="white"/>
</g>
<path d="M209.732 117.568L51.5127 135.352L76.3493 353.16L234.568 335.375L209.732 117.568Z" fill="#2360A6"/>
<path opacity="0.8" d="M209.732 117.568L51.5127 135.352L76.3493 353.16L234.568 335.375L209.732 117.568Z" fill="white"/>
<path d="M88.5757 158.351L89.0217 162.247L74.6605 163.841L72.6089 146.129L86.6133 144.535L87.0593 148.432L78.0501 149.406L78.4069 152.417L86.3457 151.531L86.7917 155.251L78.8529 156.137L79.2097 159.413L88.5757 158.351Z" fill="#2360A6"/>
<path d="M102.937 160.653L98.566 155.605L95.5332 161.539L89.7352 162.159L95.1764 152.417L87.9512 144.358L93.66 143.738L97.8524 148.432L100.796 142.941L106.237 142.321L100.974 151.62L108.646 160.033L102.937 160.653Z" fill="#2360A6"/>
<path d="M121.044 155.074L113.462 155.959L112.481 159.59L107.308 160.21L113.195 141.613L118.19 141.081L128.091 157.908L122.828 158.528L121.044 155.074ZM119.171 151.62L116.228 146.218L114.622 152.151L119.171 151.62Z" fill="#2360A6"/>
<path d="M145.664 155.871L144.504 146.483L140.758 154.631L138.528 154.897L133.086 147.989L134.157 157.111L129.518 157.642L127.467 139.93L131.659 139.487L139.152 148.963L144.147 138.07L148.34 137.627L150.391 155.34L145.664 155.871Z" fill="#2360A6"/>
<path opacity="0.2" d="M192.045 135.272L157.831 139.117L158.182 142.197L192.397 138.352L192.045 135.272Z" fill="#2360A6"/>
<path opacity="0.2" d="M187.834 166.11L81.2915 178.085L81.7431 182.045L188.286 170.07L187.834 166.11Z" fill="#2360A6"/>
<path opacity="0.2" d="M186.443 142.12L158.965 145.208L159.317 148.289L186.794 145.2L186.443 142.12Z" fill="#2360A6"/>
<path opacity="0.2" d="M76.1751 178.035L71.5659 178.553L72.0877 183.129L76.6969 182.611L76.1751 178.035Z" fill="#2360A6"/>
<path opacity="0.2" d="M194.973 228.546L88.4297 240.522L88.8813 244.482L195.424 232.506L194.973 228.546Z" fill="#2360A6"/>
<path opacity="0.2" d="M83.3035 240.383L78.6943 240.901L79.2162 245.478L83.8253 244.96L83.3035 240.383Z" fill="#2360A6"/>
<path opacity="0.2" d="M201.036 282.044L94.4927 294.019L94.9443 297.98L201.487 286.004L201.036 282.044Z" fill="#2360A6"/>
<path opacity="0.2" d="M89.3768 293.969L84.7676 294.487L85.2894 299.063L89.8986 298.545L89.3768 293.969Z" fill="#2360A6"/>
<path opacity="0.2" d="M190.194 178.496L96.1494 189.067L96.601 193.027L190.646 182.456L190.194 178.496Z" fill="#2360A6"/>
<path opacity="0.2" d="M134.442 194.18L97.1255 198.375L97.5771 202.335L134.894 198.14L134.442 194.18Z" fill="#2360A6"/>
<path opacity="0.2" d="M89.7162 189.113L83.4229 189.821L84.1353 196.069L90.4286 195.362L89.7162 189.113Z" stroke="#2360A6" stroke-width="0.75" stroke-miterlimit="10"/>
<path opacity="0.2" d="M192.959 203.301L98.9141 213.872L99.3656 217.832L193.411 207.262L192.959 203.301Z" fill="#2360A6"/>
<path opacity="0.2" d="M137.295 218.976L99.9785 223.17L100.43 227.13L137.747 222.936L137.295 218.976Z" fill="#2360A6"/>
<path opacity="0.2" d="M92.5692 213.909L86.2759 214.616L86.9884 220.865L93.2817 220.157L92.5692 213.909Z" stroke="#2360A6" stroke-width="0.75" stroke-miterlimit="10"/>
<path opacity="0.2" d="M197.599 243.594L103.554 254.164L104.005 258.125L198.05 247.554L197.599 243.594Z" fill="#2360A6"/>
<path opacity="0.2" d="M142.023 260.245L104.706 264.44L105.158 268.4L142.474 264.205L142.023 260.245Z" fill="#2360A6"/>
<path opacity="0.2" d="M97.1205 254.211L90.8271 254.918L91.5396 261.167L97.8329 260.459L97.1205 254.211Z" stroke="#2360A6" stroke-width="0.75" stroke-miterlimit="10"/>
<path opacity="0.2" d="M98.2752 263.949L91.9819 264.656L92.6944 270.904L98.9877 270.197L98.2752 263.949Z" stroke="#2360A6" stroke-width="0.75" stroke-miterlimit="10"/>
<path opacity="0.2" d="M164.616 268.079L105.849 274.684L106.3 278.644L165.067 272.039L164.616 268.079Z" fill="#2360A6"/>
<path opacity="0.2" d="M99.4417 274.222L93.1484 274.93L93.8609 281.178L100.154 280.471L99.4417 274.222Z" stroke="#2360A6" stroke-width="0.75" stroke-miterlimit="10"/>
<path opacity="0.2" d="M203.485 295.497L109.44 306.067L109.892 310.028L203.936 299.457L203.485 295.497Z" fill="#2360A6"/>
<path opacity="0.2" d="M147.909 312.148L110.592 316.342L111.044 320.302L148.36 316.108L147.909 312.148Z" fill="#2360A6"/>
<path opacity="0.2" d="M103.095 306.104L96.8018 306.811L97.5142 313.06L103.808 312.352L103.095 306.104Z" stroke="#2360A6" stroke-width="0.75" stroke-miterlimit="10"/>
<path opacity="0.2" d="M104.172 315.939L97.8784 316.647L98.5909 322.895L104.884 322.188L104.172 315.939Z" stroke="#2360A6" stroke-width="0.75" stroke-miterlimit="10"/>
<path opacity="0.2" d="M170.591 319.972L111.824 326.577L112.275 330.537L171.042 323.932L170.591 319.972Z" fill="#2360A6"/>
<path opacity="0.2" d="M105.327 326.125L99.0342 326.833L99.7467 333.081L106.04 332.373L105.327 326.125Z" stroke="#2360A6" stroke-width="0.75" stroke-miterlimit="10"/>
<path d="M277.323 214.941C286.634 214.941 294.181 207.447 294.181 198.203C294.181 188.959 286.634 181.465 277.323 181.465C268.012 181.465 260.464 188.959 260.464 198.203C260.464 207.447 268.012 214.941 277.323 214.941Z" fill="#2360A6"/>
<path d="M289.543 182.971C285.262 178.985 278.839 177.303 273.13 178.72" stroke="#2360A6" stroke-width="0.5" stroke-miterlimit="10" stroke-linecap="round" stroke-linejoin="round"/>
<path d="M270.543 179.517C269.651 179.694 268.759 180.048 268.046 180.491" stroke="#2360A6" stroke-width="0.5" stroke-miterlimit="10" stroke-linecap="round" stroke-linejoin="round"/>
<path d="M268.403 216.712C268.403 217.775 267.6 218.572 266.529 218.572C265.459 218.572 264.656 217.775 264.656 216.712C264.656 215.649 265.459 214.852 266.529 214.852C267.6 214.852 268.403 215.649 268.403 216.712Z" fill="#2360A6"/>
<path d="M277.323 195.989C278.483 195.989 279.464 196.963 279.464 198.114C279.464 199.266 278.483 200.24 277.323 200.24C276.163 200.24 275.182 199.266 275.182 198.114C275.182 196.963 276.163 195.989 277.323 195.989Z" fill="white"/>
<path d="M269.919 195.989C271.079 195.989 272.06 196.963 272.06 198.114C272.06 199.266 271.079 200.24 269.919 200.24C268.76 200.24 267.778 199.266 267.778 198.114C267.778 196.963 268.67 195.989 269.919 195.989Z" fill="white"/>
<path d="M284.459 195.989C285.618 195.989 286.599 196.963 286.599 198.114C286.599 199.266 285.618 200.24 284.459 200.24C283.299 200.24 282.318 199.266 282.318 198.114C282.318 196.963 283.21 195.989 284.459 195.989Z" fill="white"/>
<path d="M364.765 138.428C368.4 124.054 359.61 109.476 345.132 105.867C330.655 102.259 315.972 110.986 312.337 125.359C308.702 139.733 317.492 154.311 331.97 157.92C346.448 161.528 361.131 152.801 364.765 138.428Z" fill="#C91330"/>
<path opacity="0.3" d="M364.765 138.428C368.4 124.054 359.61 109.476 345.132 105.867C330.655 102.259 315.972 110.986 312.337 125.359C308.702 139.733 317.492 154.311 331.97 157.92C346.448 161.528 361.131 152.801 364.765 138.428Z" fill="#404D61"/>
<path d="M342.827 155.538C357.562 153.167 367.57 139.386 365.182 124.757C362.793 110.128 348.913 100.192 334.178 102.563C319.444 104.934 309.436 118.715 311.824 133.344C314.212 147.973 328.093 157.91 342.827 155.538Z" fill="#C91330"/>
<path d="M359.369 137.353C363.966 125.904 358.345 112.923 346.813 108.358C335.281 103.794 322.206 109.376 317.609 120.825C313.012 132.274 318.634 145.256 330.165 149.82C341.697 154.384 354.772 148.802 359.369 137.353Z" fill="white"/>
<path d="M341.458 147.9L340.655 142.675C340.744 142.675 340.833 142.675 340.922 142.587L341.904 147.812C341.725 147.9 341.636 147.9 341.458 147.9ZM332.716 147.281C332.538 147.192 332.448 147.192 332.27 147.103L334.054 142.144C334.143 142.144 334.232 142.233 334.322 142.233L332.716 147.281ZM349.932 144.447L346.72 140.196L346.988 140.019L350.199 144.181C350.199 144.269 350.11 144.358 349.932 144.447ZM324.866 142.498C324.777 142.41 324.688 142.321 324.599 142.144L328.434 138.513L328.613 138.779L324.866 142.498ZM355.819 137.362L351.002 135.059L351.18 134.793L356.086 136.919L355.997 137.007C355.997 137.185 355.908 137.273 355.819 137.362ZM320.139 134.705C320.139 134.528 320.05 134.439 320.05 134.262L325.134 132.845C325.134 132.934 325.223 133.022 325.223 133.111L320.139 134.705ZM352.429 128.594C352.429 128.506 352.429 128.417 352.429 128.329L357.781 127.974C357.781 128.151 357.781 128.24 357.781 128.417L352.429 128.594ZM324.866 126.557L319.604 125.583L319.693 125.14L324.866 126.203V126.557ZM350.645 122.218L350.467 121.952L355.016 119.207C355.105 119.295 355.194 119.472 355.194 119.561L350.645 122.218ZM327.632 120.535L323.439 117.258C323.528 117.17 323.618 116.993 323.707 116.904L327.81 120.269L327.632 120.535ZM346.007 117.436C345.918 117.347 345.828 117.347 345.739 117.258L348.504 112.742C348.594 112.83 348.772 112.919 348.861 113.007L346.007 117.436ZM332.894 116.461L330.754 111.59C330.932 111.502 331.021 111.502 331.2 111.413L333.251 116.284C333.073 116.373 332.984 116.461 332.894 116.461ZM339.763 115.31H339.406L339.763 109.996C339.941 109.996 340.03 109.996 340.209 109.996L339.763 115.31Z" fill="#404D61"/>
<path d="M328.702 126.823L338.96 129.657L339.585 117.701" stroke="#404D61" stroke-miterlimit="10" stroke-linecap="round" stroke-linejoin="round"/>
<path d="M340.387 129.126C340.387 130.011 339.674 130.808 338.782 130.808C337.89 130.808 337.087 130.1 337.087 129.214C337.087 128.328 337.801 127.531 338.693 127.531C339.585 127.531 340.298 128.24 340.387 129.126Z" fill="#404D61"/>
<path d="M236.648 326.085C236.648 326.085 230.76 287.561 229.512 278.173C228.263 268.786 229.512 264.004 233.08 260.904C236.648 257.804 253.239 253.731 264.389 253.376C273.041 253.111 277.59 254.793 284.994 274.188L272.684 279.502C272.684 279.502 282.496 311.472 281.337 323.959L236.648 326.085Z" fill="#2360A6"/>
<path opacity="0.3" d="M270.454 280.476L268.403 281.362L265.281 273.303L268.581 284.638L271.346 283.399L270.454 280.476Z" fill="black"/>
<path d="M233.08 260.904C233.08 260.904 226.122 263.915 223.357 270.734C222.019 274.1 219.343 280.122 216.667 285.967L237.272 288.978L233.08 260.904Z" fill="#2360A6"/>
<path d="M218.451 286.233C218.451 286.233 210.155 300.668 212.653 307.044H227.549L228.174 300.668L225.498 299.162L230.939 287.827L218.451 286.233Z" fill="#E4897B"/>
<path opacity="0.3" d="M225.498 299.162C225.498 299.162 221.127 298.1 218.005 299.517C218.005 299.517 220.681 295.797 226.033 298.188L225.498 299.162Z" fill="black"/>
<path opacity="0.3" d="M227.995 276.757C227.995 276.757 227.103 281.362 228.174 284.461C229.155 287.561 230.939 287.738 230.939 287.738L227.995 276.757Z" fill="black"/>
<path d="M272.417 228.048C271.346 227.605 270.097 227.428 269.027 226.897C266.708 225.834 265.37 223.354 264.389 221.052C263.407 218.661 262.694 216.181 260.999 214.321C259.393 212.55 256.985 211.487 254.577 211.487C252.168 211.487 249.76 212.55 248.154 214.41L253.595 233.805C254.844 236.019 256.896 237.79 259.215 238.764C260.196 239.207 261.356 239.472 262.337 239.118C263.318 238.764 264.121 237.613 263.764 236.638C264.567 237.967 266.529 238.498 267.867 237.701C269.295 236.993 269.919 235.133 269.384 233.716C270.543 233.716 271.703 233.627 272.684 233.185C273.755 232.742 274.557 231.768 274.557 230.616C274.557 229.465 273.487 228.579 272.417 228.048Z" fill="#263238"/>
<path d="M229.869 219.281C225.319 223.62 227.014 228.402 227.817 231.945C229.333 236.638 229.958 240.004 232.188 244.432L239.681 213.967C236.826 215.118 234.775 214.852 229.869 219.281Z" fill="#263238"/>
<path d="M236.38 215.472C240.929 212.196 246.371 214.055 249.671 215.384C253.328 217.421 255.915 220.963 256.807 225.037C257.521 228.845 258.413 233.539 256.45 235.93C255.38 237.347 253.685 238.233 251.99 238.321L229.601 224.417C231.028 220.963 233.347 217.864 236.38 215.472Z" fill="#263238"/>
<path d="M246.192 264.004C249.225 263.827 248.957 263.738 250.83 262.498C259.572 256.919 255.736 254.085 255.736 254.085C253.06 251.96 253.685 249.037 253.596 244.166C253.596 243.989 253.863 241.598 253.863 241.421C253.774 240.801 253.06 243.635 252.614 243.192C251.366 241.952 249.403 241.952 248.154 243.192L243.248 245.672C243.248 245.76 243.248 245.849 243.248 245.937C243.694 248.506 244.14 250.454 244.408 252.048C244.408 252.225 244.497 252.402 244.497 252.579C244.497 252.757 244.586 252.934 244.586 253.199C244.854 255.325 242.178 257.45 242.267 260.373C241.375 261.081 243.159 264.004 246.192 264.004Z" fill="#E4897B"/>
<path opacity="0.2" d="M243.159 245.672C243.159 245.76 243.159 245.849 243.159 245.937C243.605 248.506 244.051 250.454 244.319 252.048C244.408 252.225 244.408 252.402 244.408 252.579C244.408 252.757 244.408 253.022 244.408 253.199C246.995 251.96 249.314 250.365 251.098 248.329C252.436 246.734 253.328 244.786 253.506 242.749C253.417 242.129 252.882 243.723 252.525 243.281C251.276 242.041 249.314 242.041 248.065 243.192L243.159 245.672Z" fill="black"/>
<path d="M253.863 226.808C255.38 235.664 256.182 239.384 252.793 244.963C247.798 253.376 236.737 253.465 232.634 245.229C228.976 237.79 227.192 224.594 234.774 218.926C242.446 213.347 252.347 217.952 253.863 226.808Z" fill="#E4897B"/>
<path d="M259.483 233.539C258.948 235.576 257.61 237.17 256.093 238.055C253.952 239.295 251.722 235.93 251.812 233.362C251.99 231.059 253.863 229.111 256.272 228.934C258.68 228.668 260.107 231.148 259.483 233.539Z" fill="#E4897B"/>
<path opacity="0.2" d="M254.488 234.424C254.309 233.539 254.488 232.653 254.934 231.945C255.38 231.236 256.183 230.705 256.985 230.528" stroke="black" stroke-width="0.5" stroke-miterlimit="10" stroke-linecap="round" stroke-linejoin="round"/>
<path d="M243.248 232.653C243.427 233.627 243.159 234.513 242.624 234.69C242.089 234.867 241.375 234.247 241.197 233.273C241.018 232.299 241.286 231.413 241.821 231.236C242.356 231.148 242.981 231.768 243.248 232.653Z" fill="#263238"/>
<path d="M234.507 235.044C234.685 235.93 234.417 236.816 233.882 236.993C233.347 237.17 232.633 236.55 232.455 235.664C232.277 234.779 232.544 233.893 233.079 233.716C233.704 233.539 234.328 234.159 234.507 235.044Z" fill="#263238"/>
<path d="M244.14 228.934C244.051 228.934 243.873 228.934 243.783 228.934C242.089 228.048 240.661 228.934 240.661 228.934C240.483 229.022 240.215 229.022 240.037 228.757C239.948 228.579 240.037 228.225 240.215 228.137C240.305 228.048 242.089 226.985 244.14 228.137C244.319 228.225 244.408 228.491 244.319 228.757C244.319 228.845 244.229 228.934 244.14 228.934Z" fill="#263238"/>
<path d="M230.403 231.413C230.314 231.413 230.225 231.325 230.136 231.236C229.957 231.059 230.047 230.793 230.225 230.616C231.92 228.934 233.615 229.377 233.704 229.377C233.882 229.465 234.061 229.642 233.971 229.908C233.882 230.174 233.704 230.262 233.436 230.262C233.347 230.262 232.009 229.908 230.671 231.236C230.582 231.413 230.493 231.413 230.403 231.413Z" fill="#263238"/>
<path d="M236.826 233.982C236.826 233.982 236.38 237.613 235.398 240.092C235.22 240.535 235.577 240.978 236.023 241.066C237.182 241.155 238.431 240.447 238.431 240.447L236.826 233.982Z" fill="#A24E3F"/>
<path d="M242.178 231.236L239.948 231.325C239.948 231.325 241.553 232.476 242.178 231.236Z" fill="#263238"/>
<path d="M233.347 233.627L231.206 233.716C231.206 233.716 232.722 234.956 233.347 233.627Z" fill="#263238"/>
<path d="M251.455 229.465C251.455 229.465 245.3 224.683 244.141 219.723C244.141 219.723 224.784 220.786 229.423 236.107C229.423 236.107 223.357 221.672 237.807 216.624C252.258 211.664 259.037 230.351 253.507 238.321C253.507 238.321 255.291 232.476 251.455 229.465Z" fill="#263238"/>
<path d="M255.915 228.579C254.577 222.646 251.276 218.572 246.727 217.509C240.572 216.092 233.347 217.686 233.347 217.686C233.258 219.458 229.779 224.86 229.69 226.631C231.385 226.277 236.291 222.646 237.718 221.849L236.737 223.177C236.737 223.177 239.413 222.734 240.662 221.052C243.605 228.314 253.417 228.579 255.915 228.579Z" fill="#263238"/>
<path d="M245.3 214.055C245.3 214.055 249.671 214.41 252.079 217.244C252.079 217.244 249.76 213.347 245.3 214.055Z" fill="#2360A6"/>
<path d="M241.554 242.572C242.535 241.686 243.784 240.889 244.408 239.561" stroke="#263238" stroke-width="0.75" stroke-miterlimit="10" stroke-linecap="round" stroke-linejoin="round"/>
<path d="M242.267 257.096C242.267 257.096 237.183 265.332 246.371 265.066C255.558 264.801 258.323 256.122 258.769 253.642L255.915 252.668C255.915 252.668 254.22 259.753 248.065 261.17C241.821 262.587 243.338 256.21 243.338 256.21L242.267 257.096Z" fill="#263238"/>
<path d="M282.407 275.251C282.407 275.251 287.58 289.952 288.116 294.026C288.294 295.62 289.989 299.517 284.994 303.059C280.623 306.07 249.492 307.133 249.492 307.133L248.6 299.251L274.29 292.609L270.454 280.653L282.407 275.251Z" fill="#E4897B"/>
<path d="M250.295 298.808C250.295 298.808 245.567 295.177 245.389 295.089C245.211 295 239.502 294.734 238.699 295.443C237.896 296.151 237.361 299.163 237.361 299.163C237.361 299.163 235.22 299.96 234.774 301.022C234.328 302.085 235.22 303.059 235.22 303.059C235.22 303.059 234.774 304.211 235.488 305.096C236.201 306.07 236.201 306.07 236.201 306.07C236.201 306.07 235.488 306.956 236.112 307.576C236.737 308.196 251.901 307.044 251.901 307.044L250.295 298.808Z" fill="#E4897B"/>
<path opacity="0.3" d="M237.272 299.162L243.784 298.1C243.784 298.1 240.84 297.657 239.234 298.1C237.807 298.543 237.272 299.162 237.272 299.162Z" fill="black"/>
<path d="M244.943 289.598L241.464 298.543C240.751 298.365 239.948 298.897 239.502 298.808L243.338 288.889C243.516 288.447 244.051 288.181 244.497 288.447C244.943 288.712 245.211 289.155 244.943 289.598Z" fill="#263238"/>
<path opacity="0.3" d="M274.29 292.52C274.29 292.52 279.909 292.786 280.712 296.063C280.712 296.063 280.712 290.838 273.844 291.281L274.29 292.52Z" fill="black"/>
<path d="M228.174 300.757C228.174 300.757 238.789 299.96 241.286 301.997C243.784 304.033 246.103 307.487 246.103 307.487L227.104 307.133L228.174 300.757Z" fill="#E4897B"/>
<path opacity="0.3" d="M234.061 300.579C234.061 300.579 233.347 303.502 234.596 305.627C235.042 306.336 234.15 306.956 234.418 307.221L237.272 307.31L234.953 300.668H234.061V300.579Z" fill="black"/>
<path d="M189.461 425.893L190.71 418.897L204.893 419.959L200.968 430.055L192.583 430.321L189.461 425.893Z" fill="#E4897B"/>
<path d="M188.034 424.653H191.78C192.583 424.653 193.386 425.096 193.921 425.716C196.062 428.638 197.667 427.576 200.076 424.83C201.592 424.653 201.949 426.336 202.127 426.779L204.893 436.875C205.16 437.76 204.625 438.557 203.822 438.823C203.644 438.823 203.555 438.912 203.376 438.912C198.827 438.912 196.686 438.912 191.067 438.912H173.762C169.034 438.912 168.053 434.218 170.015 433.775C178.757 431.827 184.912 429.347 187.588 426.779C188.034 426.424 187.499 426.07 188.034 424.653Z" fill="#2360A6"/>
<path d="M185.625 428.019C186.874 428.196 188.123 428.993 188.837 430.055" stroke="white" stroke-width="0.5" stroke-miterlimit="10" stroke-linecap="round" stroke-linejoin="round"/>
<path d="M183.128 429.258C184.377 429.436 185.626 430.233 186.339 431.295" stroke="white" stroke-width="0.5" stroke-miterlimit="10" stroke-linecap="round" stroke-linejoin="round"/>
<path d="M180.273 430.764C181.522 430.941 182.771 431.738 183.485 432.801" stroke="white" stroke-width="0.5" stroke-miterlimit="10" stroke-linecap="round" stroke-linejoin="round"/>
<path d="M193.207 404.284L190.174 397.908L202.306 390.557L205.071 401.096L198.292 406.144L193.207 404.284Z" fill="#E4897B"/>
<path d="M191.334 404.107L194.367 401.982C195.08 401.539 195.972 401.362 196.775 401.627C200.254 402.779 200.878 400.919 201.235 397.376C202.395 396.402 203.644 397.554 204 397.819L212.118 404.461C212.831 404.993 212.92 405.967 212.385 406.675C212.296 406.764 212.207 406.941 212.028 407.03C208.282 409.598 206.587 410.838 201.949 414.114L187.855 424.033C184.02 426.779 180.452 423.413 181.79 421.996C187.766 415.443 191.334 409.775 192.048 406.233C192.315 405.524 191.691 405.524 191.334 404.107Z" fill="#2360A6"/>
<path d="M191.334 408.269C192.494 407.65 193.921 407.65 195.08 408.092" stroke="white" stroke-width="0.5" stroke-miterlimit="10" stroke-linecap="round" stroke-linejoin="round"/>
<path d="M189.996 410.749C191.156 410.129 192.583 410.129 193.742 410.572" stroke="white" stroke-width="0.5" stroke-miterlimit="10" stroke-linecap="round" stroke-linejoin="round"/>
<path d="M188.479 413.583C189.639 412.963 191.066 412.963 192.226 413.406" stroke="white" stroke-width="0.5" stroke-miterlimit="10" stroke-linecap="round" stroke-linejoin="round"/>
<path d="M237.005 323.162C237.005 323.162 191.869 317.052 178.311 329.805C178.311 329.805 167.785 336.447 171.799 358.852C174.475 372.668 182.325 390.469 190.799 401.805L202.663 391.797C202.663 391.797 196.151 364.255 195.705 350.085L212.118 349.111L235.577 333.17L238.075 326.528L237.005 323.162Z" fill="#263238"/>
<path opacity="0.3" d="M197.4 349.908C197.4 349.908 196.24 345.657 197.311 340.52C198.47 335.384 201.414 330.336 217.559 328.299C233.704 326.262 199.095 349.908 199.095 349.908H197.4Z" fill="black"/>
<path d="M281.337 322.72C281.337 322.72 282.586 335.472 278.483 344.771C274.379 354.07 260.018 357.524 250.295 356.904C240.573 356.284 228.085 355.487 222.733 356.993C222.733 356.993 215.864 395.782 203.911 424.122L189.461 422.882C189.461 422.882 197.311 368.063 198.559 355.399C199.808 342.646 199.184 340.786 207.033 334.587C214.883 328.299 254.934 319.886 281.337 322.72Z" fill="#263238"/>
<path opacity="0.3" d="M197.4 365.583L192.761 400.122C192.761 400.122 192.583 381.878 192.94 376.388C193.297 369.657 197.4 365.583 197.4 365.583Z" fill="black"/>
<path d="M211.404 435.9L227.192 361.686H280.712L292.576 435.9" stroke="#263238" stroke-width="3" stroke-miterlimit="10" stroke-linecap="round" stroke-linejoin="round"/>
<path opacity="0.5" d="M211.404 435.9L227.192 361.686H280.712L292.576 435.9" stroke="white" stroke-width="3" stroke-miterlimit="10" stroke-linecap="round" stroke-linejoin="round"/>
<path d="M282.139 361.686H226.033C224.516 361.686 223.178 360.447 223.178 358.853C223.178 357.347 224.427 356.019 226.033 356.019H282.139C283.656 356.019 284.994 357.258 284.994 358.853C284.905 360.447 283.656 361.686 282.139 361.686Z" fill="#2360A6"/>
<path d="M302.477 313.421H264.032V330.159H302.477V313.421Z" fill="#263238"/>
<path opacity="0.4" d="M302.477 313.421H264.032V330.159H302.477V313.421Z" fill="white"/>
<path d="M261.445 311.65H140.847V330.159H261.445V311.65Z" fill="#263238"/>
<path opacity="0.4" d="M261.445 311.65H140.847V330.159H261.445V311.65Z" fill="white"/>
<path d="M265.905 310.233H261.445V435.812H265.905V310.233Z" fill="#263238"/>
<path opacity="0.5" d="M265.905 310.233H261.445V435.812H265.905V310.233Z" fill="white"/>
<path d="M305.153 310.233H300.693V435.812H305.153V310.233Z" fill="#263238"/>
<path opacity="0.5" d="M305.153 310.233H300.693V435.812H305.153V310.233Z" fill="white"/>
<path d="M143.077 310.233H138.617V435.812H143.077V310.233Z" fill="#263238"/>
<path opacity="0.5" d="M143.077 310.233H138.617V435.812H143.077V310.233Z" fill="white"/>
<path d="M306.58 307.133H134.157V313.509H306.58V307.133Z" fill="#263238"/>
<path opacity="0.5" d="M306.58 307.133H134.157V313.509H306.58V307.133Z" fill="white"/>
<path d="M251.544 305.627H201.949V307.31H251.544V305.627Z" fill="#2360A6"/>
<path opacity="0.5" d="M251.544 305.627H201.949V307.31H251.544V305.627Z" fill="white"/>
</g>
<path d="M356.979 4.11435C344.056 8.21572 311.352 39.6983 303.848 74.9556C296.343 110.213 331.467 120.316 336.817 114.052C342.167 107.788 317.531 78.761 291.999 102.485C279.148 114.426 267.987 140.359 271.603 152.996" stroke="#2360A6" stroke-linecap="square" stroke-linejoin="round"/>
<defs>
<linearGradient id="paint0_linear_4626_3606" x1="201.655" y1="-144.249" x2="242.957" y2="436.875" gradientUnits="userSpaceOnUse">
<stop stop-color="#2360A6"/>
<stop offset="1" stop-color="white" stop-opacity="0"/>
</linearGradient>
<clipPath id="clip0_4626_3606">
<rect width="446" height="360" fill="white" transform="translate(0 79.0001)"/>
</clipPath>
</defs>
</svg>
