<svg width="442" height="491" viewBox="0 0 442 491" fill="none" xmlns="http://www.w3.org/2000/svg">
<ellipse cx="220.5" cy="255.017" rx="210.5" ry="211" fill="url(#paint0_linear_4626_2100)"/>
<g clip-path="url(#clip0_4626_2100)">
<path d="M138.642 68.0172H132.388V202.922H138.642V68.0172Z" fill="#EFB8C1"/>
<path d="M41.7562 69.176V203.019C41.7562 203.115 41.7562 203.115 41.8524 203.115H131.426C131.522 203.115 131.522 203.115 131.522 203.019V69.176C131.522 69.0794 131.522 69.0794 131.426 69.0794L41.7562 69.176C41.7562 69.0794 41.7562 69.0794 41.7562 69.176Z" fill="#F4D0D6"/>
<path d="M132.388 204.177H40.7941C40.6979 204.177 40.6979 204.177 40.6979 204.081V68.1137C40.6979 68.0172 40.6979 68.0172 40.7941 68.0172H132.388C132.485 68.0172 132.485 68.0172 132.485 68.1137L132.388 204.177C132.485 204.177 132.485 204.081 132.388 204.177ZM42.9108 202.053H130.368C130.464 202.053 130.464 202.053 130.464 201.956V70.2382C130.464 70.1416 130.464 70.1416 130.368 70.1416H42.9108C42.8145 70.1416 42.8146 70.1416 42.8146 70.2382L42.9108 202.053C42.8145 202.053 42.8145 202.053 42.9108 202.053Z" fill="#E9A1AC"/>
<path d="M50.8002 77.3842V194.617C50.8002 194.714 50.8002 194.714 50.8964 194.714H122.575C122.671 194.714 122.671 194.714 122.671 194.617V77.3842C122.671 77.2877 122.671 77.2877 122.575 77.2877L50.8002 77.3842Z" fill="white"/>
<path d="M106.7 158.018H66.4828C66.4828 158.018 66.3866 158.018 66.3866 157.921V110.603C66.3866 110.603 66.3866 110.507 66.4828 110.507H106.7C106.7 110.507 106.796 110.507 106.796 110.603L106.7 158.018Z" fill="#F4D0D6"/>
<path d="M103.621 152.224C103.717 152.417 101.697 153.286 97.9443 152.803C96.1163 152.514 93.8071 151.838 91.498 150.196C89.2852 148.554 87.1685 145.851 86.495 142.278C85.7253 138.705 86.9761 134.359 90.3435 131.462C91.2094 130.786 92.1715 130.207 93.2299 129.724C94.3844 129.338 95.6352 129.144 96.8859 129.338C98.1367 129.531 99.3875 129.917 100.542 130.883C101.697 131.848 102.274 133.587 101.985 135.132C101.697 136.677 100.927 137.835 99.9647 138.801C99.0026 139.767 98.0405 140.443 96.8859 141.022C94.6731 142.181 92.2677 142.954 89.67 143.147C87.0723 143.243 84.3783 142.76 81.973 141.408C79.5677 140.057 77.5472 138.029 76.2965 135.518C75.0457 133.007 74.5647 129.917 75.2381 127.213C75.9116 124.509 77.451 122.095 79.5677 120.357C80.626 119.488 81.8768 118.908 83.2238 118.522C84.5708 118.136 85.9177 118.136 87.3609 118.425C88.7079 118.715 90.0549 119.391 91.1132 120.55C92.0753 121.709 92.5564 123.157 92.5564 124.509C92.5564 125.861 92.1715 127.213 91.5943 128.275C91.017 129.434 90.1511 130.303 89.2852 131.076C87.5533 132.524 85.6291 133.49 83.6086 134.166C81.5882 134.745 79.5677 134.938 77.6435 134.649C75.7192 134.359 73.8912 133.683 72.448 132.621C69.4654 130.593 67.7336 127.503 67.4449 124.702C67.1563 121.805 68.1184 119.391 69.273 117.846C70.4275 116.301 71.7745 115.432 72.7366 115.142C73.6987 114.756 74.1798 114.756 74.276 114.852C74.276 114.949 73.8912 115.142 73.1215 115.722C72.3518 116.204 71.2934 117.17 70.4275 118.619C69.5616 120.067 68.8881 122.192 69.3692 124.413C69.754 126.73 71.2934 129.144 73.795 130.689C76.2003 132.235 79.6639 132.621 82.9351 131.559C84.5708 131.076 86.2064 130.11 87.5533 128.951C88.9003 127.792 89.7662 126.247 89.67 124.606C89.67 122.964 88.6117 121.902 86.8799 121.516C86.0139 121.322 85.148 121.419 84.2821 121.612C83.4162 121.902 82.5503 122.288 81.7806 122.964C80.2412 124.123 79.0866 125.958 78.6056 127.986C78.1245 130.014 78.4132 132.041 79.3753 133.973C80.3374 135.904 81.8768 137.449 83.7048 138.511C85.5329 139.574 87.6495 139.96 89.67 139.863C91.6905 139.767 93.8072 139.187 95.539 138.222C96.4049 137.739 97.2708 137.16 97.8481 136.58C98.5216 136.001 98.9064 135.228 99.0026 134.649C99.0988 134.069 98.9064 133.49 98.5216 133.104C98.1367 132.717 97.367 132.331 96.5973 132.235C95.8276 132.138 95.0579 132.235 94.2882 132.428C93.5185 132.717 92.845 133.104 92.1715 133.587C90.9208 134.552 89.9587 136.001 89.3814 137.449C88.8041 138.898 88.7079 140.443 88.9003 141.891C89.2852 144.788 90.9208 147.203 92.7488 148.748C94.5769 150.293 96.5973 151.065 98.2329 151.548C101.504 152.321 103.525 151.934 103.621 152.224Z" fill="#D95A6E"/>
<path d="M375.036 461.626C373.882 460.661 371.188 457.377 373.208 453.708C373.978 452.356 375.613 451.68 377.057 451.1C378.5 450.521 380.039 449.942 381.194 448.976C383.503 447.045 384.08 443.954 385.619 441.444C387.351 438.547 390.526 436.326 393.99 436.519C397.935 436.712 401.11 439.802 402.649 443.375C404.092 446.948 404.189 450.907 404.189 454.77C404.189 456.895 404.092 459.309 402.553 460.757C401.11 462.109 398.897 462.109 396.876 462.013C389.757 461.819 382.637 461.626 375.517 461.337" fill="#F5F5F5"/>
<path d="M415.83 404.072H359.738L369.841 463.171C370.322 465.779 372.15 467.71 374.651 468.386C374.747 468.386 374.747 468.386 374.844 468.483C375.036 468.483 375.132 468.579 375.325 468.579C375.71 468.676 376.094 468.676 376.479 468.676C376.479 468.676 376.479 468.676 376.479 468.772H376.768H401.783C402.264 468.772 402.745 468.772 403.13 468.676C406.113 468.193 408.422 465.875 408.807 462.882L413.714 422.13L413.906 420.489L415.83 404.362V404.072ZM405.247 441.733H399.474L400.051 424.544H406.69L405.247 441.733ZM407.267 424.544H412.751L410.731 441.733H405.824L407.267 424.544ZM390.815 460.757L390.43 445.886H398.704L398.223 460.757H390.815ZM381.867 445.886H389.949L390.334 460.757H383.118L381.867 445.886ZM382.541 460.757H375.806C375.132 456.701 374.363 451.487 373.401 445.886H381.386L382.541 460.757ZM381.579 441.733L380.232 424.544H389.468L389.853 441.733H381.579ZM390.43 441.733L390.045 424.544H399.57L398.993 441.733H390.43ZM389.853 420.489L389.468 404.555H400.148L399.57 420.489H389.853ZM389.372 420.489H379.943L378.692 404.555H389.083L389.372 420.489ZM379.269 420.489H369.263C368.879 418.268 368.59 416.24 368.301 414.308C367.243 407.838 366.858 405.424 366.666 404.555H378.115L379.269 420.489ZM379.654 424.544L381.001 441.733H372.727C372.438 439.995 372.15 438.257 371.861 436.422C371.188 432.366 370.514 428.311 369.937 424.544H379.654ZM372.15 441.733H366.762L363.875 424.544H369.456C370.226 429.856 371.188 435.746 372.15 441.733ZM372.823 445.886C373.689 451.004 374.459 456.122 375.229 460.757H370.033L367.532 445.886H372.823ZM398.801 460.757L399.282 445.886H404.862L403.611 460.757H398.801ZM400.148 420.489L400.725 404.555H408.422L407.075 420.489H400.148ZM366.088 404.555C366.281 405.714 367.339 411.991 368.686 420.489H363.106L360.412 404.555H366.088ZM408.422 460.757H404.092L405.343 445.886H410.154L408.422 460.757ZM413.232 420.489H407.556L408.903 404.555H415.061L413.232 420.489Z" fill="#E0E0E0"/>
<path d="M442 468.676C442 468.676 342.997 468.772 221 468.772C98.9064 468.772 0 468.772 0 468.676C0 468.676 98.9064 468.579 221 468.579C343.094 468.579 442 468.676 442 468.676Z" fill="#263238"/>
<path d="M65.2321 203.598L61.9608 197.804C63.2116 194.038 63.5002 189.885 62.5381 185.636C59.7479 173.662 47.8176 166.13 35.8873 168.93C23.9569 171.731 16.4523 183.705 19.2425 195.679C22.0327 207.654 33.963 215.186 45.8934 212.386C50.8964 211.227 55.1298 208.426 58.1123 204.757L65.2321 203.598Z" fill="white"/>
<path d="M65.232 203.598C65.232 203.598 65.1358 203.598 64.751 203.695C64.4623 203.791 63.9813 203.791 63.404 203.984C62.1532 204.177 60.3252 204.564 58.0161 204.95C57.9199 204.95 57.9199 204.95 57.9199 204.853C57.9199 204.853 57.9199 204.853 57.9199 204.757L58.1123 204.853C56.2843 207.074 53.4941 209.778 49.357 211.42C47.3365 212.289 44.9312 212.868 42.4297 213.062C39.9282 213.255 37.138 213.062 34.4441 212.192C31.7501 211.42 28.9599 209.971 26.5546 207.943C24.1493 205.916 22.0326 203.405 20.5895 200.411C17.6069 194.424 17.5107 186.506 21.0705 180.035C22.8023 176.752 25.3039 173.952 28.2865 171.924C31.269 169.896 34.6365 168.737 38.0039 168.254C41.3714 167.771 44.7388 168.158 47.7214 169.123C50.704 170.089 53.3979 171.634 55.5146 173.565C59.8441 177.428 62.2495 182.353 62.9229 186.795C63.6926 191.237 62.9229 195.003 62.057 197.707V197.611C63.1154 199.542 63.8851 200.991 64.4623 201.956C64.751 202.439 64.9434 202.825 65.0396 203.115C65.1358 203.501 65.232 203.598 65.232 203.598C65.232 203.598 65.1358 203.501 65.0396 203.212C64.8472 202.922 64.6548 202.536 64.3661 202.053C63.7889 201.087 62.9229 199.639 61.8646 197.804V197.707C62.7305 195.003 63.404 191.237 62.6343 186.892C61.8646 182.546 59.5555 177.621 55.3222 173.952C53.2055 172.117 50.6077 170.572 47.6252 169.606C44.6426 168.641 41.4676 168.351 38.1001 168.737C34.8289 169.22 31.5577 170.379 28.6713 172.31C25.7849 174.241 23.2834 177.042 21.5516 180.229C18.0879 186.602 18.2804 194.231 21.0705 200.122C23.8607 206.109 29.1524 210.165 34.5403 211.71C37.2342 212.482 39.9282 212.772 42.4297 212.579C44.9312 212.386 47.2403 211.903 49.2608 211.034C53.3017 209.392 56.1881 206.785 58.0161 204.564C58.0161 204.564 58.1123 204.467 58.2085 204.564C58.2085 204.564 58.3047 204.66 58.2085 204.66L58.1123 204.467C60.4214 204.081 62.1532 203.791 63.404 203.695C63.9813 203.598 64.4623 203.501 64.751 203.501C65.0396 203.598 65.232 203.598 65.232 203.598Z" fill="#263238"/>
<path d="M34.6365 190.658C34.6365 191.913 33.5781 192.879 32.4236 192.879C31.1728 192.879 30.2107 191.817 30.2107 190.658C30.2107 189.403 31.269 188.437 32.4236 188.437C33.5781 188.34 34.6365 189.403 34.6365 190.658Z" fill="#263238"/>
<path d="M43.6804 190.658C43.6804 191.913 42.6221 192.879 41.4676 192.879C40.2168 192.879 39.2547 191.817 39.2547 190.658C39.2547 189.403 40.313 188.437 41.4676 188.437C42.6221 188.34 43.6804 189.403 43.6804 190.658Z" fill="#263238"/>
<path d="M52.6282 189.499C53.2055 190.561 52.9168 192.01 51.7623 192.589C50.7039 193.169 49.2607 192.879 48.6835 191.72C48.1062 190.658 48.3948 189.209 49.5494 188.63C50.7039 188.051 52.0509 188.437 52.6282 189.499Z" fill="#263238"/>
<path d="M189.25 234.5C189.25 234.5 188.769 238.942 187.903 240.97C187.037 242.997 185.786 243.77 185.882 246.957C185.979 250.143 185.786 253.523 185.786 253.523C185.786 253.523 181.072 260.09 181.457 260.186C181.745 260.186 189.827 268.008 189.827 268.008L197.428 255.551L208.3 243.77L210.898 232.472L210.224 231.796V229.768C210.224 229.768 208.589 227.933 207.338 230.057C207.338 230.057 206.761 227.354 204.644 229.961C202.527 232.568 199.064 238.652 198.679 238.845C198.294 239.038 193.964 242.418 193.964 242.418L191.559 242.901C191.559 242.901 193.002 241.066 192.906 239.038C192.81 237.01 193.676 235.465 192.136 234.306C190.693 233.244 189.25 234.5 189.25 234.5Z" fill="#FFBF9D"/>
<path d="M193.002 249.661C193.002 249.661 193.291 249.468 193.676 249.081C194.157 248.695 194.734 248.212 195.696 247.729C197.524 246.764 200.122 245.798 203.297 244.929H203.393V244.832C203.778 244.349 204.163 243.867 204.548 243.384C204.74 243.191 204.933 242.901 205.125 242.708V242.611V242.515C205.125 241.259 205.125 240.1 205.221 238.942C205.221 238.362 205.317 237.879 205.606 237.59C205.895 237.203 206.376 237.107 206.761 237.107L206.568 237.01C207.626 240.294 208.492 242.418 208.589 242.322C208.589 242.322 208.396 241.839 208.108 240.873C207.819 239.907 207.434 238.555 206.953 236.914V236.817H206.857C206.28 236.721 205.702 236.914 205.317 237.397C204.933 237.879 204.836 238.459 204.836 239.038C204.836 240.197 204.74 241.356 204.74 242.611L204.836 242.515C204.644 242.708 204.451 242.997 204.259 243.191C203.874 243.673 203.489 244.156 203.105 244.639L203.201 244.543C200.026 245.315 197.332 246.474 195.6 247.44C194.734 247.922 194.061 248.502 193.676 248.888C193.195 249.371 193.002 249.661 193.002 249.661Z" fill="#FF9A6C"/>
<path d="M201.661 240.1C201.758 240.197 203.104 237.976 204.644 235.176C206.183 232.375 207.338 230.057 207.242 229.961C207.145 229.864 205.798 232.085 204.259 234.886C202.72 237.783 201.565 240.1 201.661 240.1Z" fill="#FF9A6C"/>
<path d="M207.434 236.817C207.53 236.817 207.626 236.431 207.723 235.948C207.819 235.369 208.011 234.596 208.396 233.824C208.781 233.051 209.262 232.472 209.743 232.182C210.224 231.892 210.513 231.699 210.513 231.699C210.513 231.602 210.128 231.602 209.551 231.989C208.973 232.278 208.396 232.858 208.011 233.727C207.626 234.596 207.53 235.369 207.434 235.948C207.338 236.527 207.338 236.817 207.434 236.817Z" fill="#FF9A6C"/>
<path d="M198.198 240.294C198.198 240.39 199.641 240.294 201.18 241.066C202.72 241.839 203.489 242.997 203.682 242.901C203.682 242.901 203.586 242.515 203.201 242.032C202.816 241.549 202.239 240.97 201.373 240.583C200.507 240.197 199.737 240.004 199.16 240.1C198.582 240.1 198.198 240.197 198.198 240.294Z" fill="#FF9A6C"/>
<path d="M120.669 438.844H131.253V382.158H120.669V438.844Z" fill="#E0E0E0"/>
<path d="M163.754 373.074C163.561 373.074 131.33 383.214 131.33 383.214H120.747L83.7048 373.074H163.754Z" fill="#E0E0E0"/>
<path d="M170.777 458.922C170.777 458.922 165.87 443.954 159.135 440.381C148.36 434.587 123.441 431.787 123.441 431.787L120.747 438.836C120.747 438.836 154.036 440.188 159.232 446.851C164.042 453.032 167.602 458.922 167.602 458.922H170.777Z" fill="#E0E0E0"/>
<path d="M171.602 466.741C174.345 463.988 174.345 459.525 171.602 456.772C168.859 454.019 164.412 454.019 161.669 456.772C158.926 459.525 158.926 463.988 161.669 466.741C164.412 469.494 168.859 469.494 171.602 466.741Z" fill="#263238"/>
<path d="M80.7223 458.633C80.7223 458.633 85.6291 443.665 92.364 440.092C103.14 434.298 128.059 431.497 128.059 431.497L130.753 438.547C130.753 438.547 97.4632 439.899 92.2678 446.562C87.4571 452.742 83.8973 458.633 83.8973 458.633H80.7223Z" fill="#E0E0E0"/>
<path d="M87.5913 466.698C90.3342 463.945 90.3342 459.482 87.5913 456.729C84.8485 453.976 80.4015 453.976 77.6587 456.729C74.9159 459.481 74.9159 463.945 77.6587 466.698C80.4015 469.451 84.8485 469.451 87.5913 466.698Z" fill="#263238"/>
<path d="M129.598 435.553L128.059 454.867L123.729 455.736V435.553" fill="#E0E0E0"/>
<path d="M132.362 463.338C133.25 459.548 130.909 455.753 127.133 454.861C123.358 453.97 119.577 456.319 118.688 460.109C117.8 463.899 120.141 467.694 123.917 468.585C127.693 469.477 131.473 467.127 132.362 463.338Z" fill="#263238"/>
<path d="M120.939 383.503C120.939 383.6 123.152 383.696 125.942 383.696C128.732 383.696 130.945 383.6 130.945 383.503C130.945 383.407 128.732 383.31 125.942 383.31C123.248 383.31 120.939 383.407 120.939 383.503Z" fill="#263238"/>
<path d="M120.747 432.946C120.65 433.042 122.863 434.298 125.75 434.394C128.732 434.491 130.945 433.332 130.849 433.235C130.849 433.139 128.636 434.008 125.75 433.911C122.959 433.911 120.843 432.849 120.747 432.946Z" fill="#263238"/>
<path d="M134.986 218.952H85.4367C73.2177 218.952 63.3078 228.899 63.3078 241.163V350.863C63.3078 357.044 68.3108 361.969 74.3722 361.969H146.051C152.208 361.969 157.115 356.947 157.115 350.863V241.163C157.115 228.899 147.205 218.952 134.986 218.952Z" fill="#455A64"/>
<path d="M169.334 373.074H69.0805C65.9055 373.074 63.3078 370.467 63.3078 367.28V365.348C63.3078 362.162 65.9055 359.554 69.0805 359.554H169.334C172.509 359.554 175.107 362.162 175.107 365.348V367.28C175.203 370.467 172.605 373.074 169.334 373.074Z" fill="#455A64"/>
<path d="M159.135 359.458C159.135 359.361 138.45 359.168 113.05 359.168C87.5533 359.168 66.9639 359.265 66.9639 359.458C66.9639 359.554 87.6495 359.748 113.05 359.748C138.45 359.748 159.135 359.651 159.135 359.458Z" fill="#263238"/>
<path d="M184.535 431.401L179.244 451.004C179.244 451.004 196.754 463.171 196.177 466.841L159.039 457.667L166.063 426.765L184.535 431.401Z" fill="#455A64"/>
<path d="M168.179 446.465C167.41 446.465 166.736 447.238 166.736 448.01C166.736 448.783 167.41 449.555 168.179 449.555C168.949 449.555 169.815 448.686 169.719 447.914C169.623 447.141 168.757 446.272 168.083 446.562" fill="#E0E0E0"/>
<path d="M158.943 457.571L159.809 454.48L195.119 464.427C195.119 464.427 196.562 465.586 196.177 466.744L158.943 457.571Z" fill="#263238"/>
<path d="M179.917 450.907C179.821 451.1 178.955 450.907 177.897 451.294C176.838 451.68 176.165 452.356 176.069 452.259C175.876 452.163 176.454 451.1 177.704 450.714C178.955 450.231 180.013 450.811 179.917 450.907Z" fill="white"/>
<path d="M183.381 453.611C183.381 453.804 182.515 453.901 181.745 454.577C180.879 455.156 180.591 456.025 180.398 455.929C180.206 455.929 180.398 454.77 181.36 453.998C182.323 453.225 183.477 453.418 183.381 453.611Z" fill="white"/>
<path d="M184.535 458.922C184.343 458.922 184.343 457.957 185.017 456.991C185.69 456.122 186.652 455.929 186.748 456.025C186.845 456.219 186.171 456.605 185.594 457.377C184.92 458.15 184.728 458.922 184.535 458.922Z" fill="white"/>
<path d="M180.591 446.369C180.495 446.562 179.725 446.079 178.666 445.886C177.608 445.693 176.742 445.886 176.646 445.693C176.55 445.5 177.512 445.017 178.763 445.306C180.013 445.403 180.783 446.176 180.591 446.369Z" fill="white"/>
<path d="M151.823 443.761L155.768 468L164.235 486.251C164.812 487.603 164.235 489.148 162.888 489.727C162.118 490.017 161.348 489.921 160.675 489.534C156.441 486.734 141.24 475.918 140.951 474.663C140.47 472.635 134.986 449.073 134.986 449.073L151.823 443.761Z" fill="#455A64"/>
<path d="M162.888 489.824L140.47 472.828L140.663 473.89C140.951 474.953 141.24 475.532 142.01 476.111C143.838 477.657 148.937 481.712 160.675 489.631C161.252 490.017 162.118 490.114 162.888 489.824Z" fill="#263238"/>
<g opacity="0.6">
<path d="M143.838 464.041C144.511 464.33 144.896 465.199 144.607 465.875C144.319 466.551 143.453 466.938 142.779 466.648C142.106 466.358 141.625 465.296 142.01 464.62C142.394 463.944 143.357 463.558 143.934 464.041" fill="white"/>
</g>
<path d="M155.576 480.264C155.768 480.264 156.057 478.912 157.307 477.946C158.558 476.981 159.905 477.077 159.905 476.884C159.905 476.787 159.616 476.691 159.039 476.691C158.462 476.691 157.692 476.981 157.019 477.463C156.345 478.043 155.864 478.719 155.672 479.298C155.479 479.878 155.576 480.264 155.576 480.264Z" fill="white"/>
<path d="M157.885 483.161C157.981 483.257 158.654 482.292 159.809 481.712C160.963 481.133 162.022 481.133 162.022 480.94C162.022 480.843 160.867 480.554 159.52 481.23C158.173 481.906 157.692 483.161 157.885 483.161Z" fill="white"/>
<path d="M151.727 476.691C151.823 476.787 152.785 475.339 154.517 474.277C156.249 473.118 157.885 472.925 157.788 472.732C157.788 472.635 155.96 472.635 154.229 473.794C152.401 475.049 151.631 476.691 151.727 476.691Z" fill="white"/>
<path d="M149.899 469.448C149.995 469.545 151.15 468.772 152.882 468.386C154.517 468 155.96 468.193 155.96 468C155.96 467.903 154.517 467.42 152.689 467.903C150.957 468.289 149.803 469.352 149.899 469.448Z" fill="white"/>
<path d="M148.648 462.399C148.744 462.495 149.899 461.433 151.727 461.24C153.555 460.95 154.902 461.626 154.998 461.433C154.998 461.337 154.71 461.143 154.132 460.95C153.555 460.757 152.689 460.564 151.727 460.757C150.765 460.95 149.995 461.337 149.418 461.723C148.841 462.013 148.552 462.302 148.648 462.399Z" fill="white"/>
<path d="M151.342 459.792C151.342 459.792 151.342 459.405 151.246 458.826C151.054 458.246 150.765 457.377 150.091 456.605C149.803 456.219 149.418 455.639 148.648 455.446C148.263 455.349 147.782 455.543 147.59 455.929C147.397 456.315 147.397 456.701 147.397 457.088C147.686 458.633 149.225 459.888 150.957 459.695C152.689 459.598 154.036 458.246 154.421 456.798C154.517 456.412 154.517 456.025 154.229 455.639C153.94 455.253 153.459 455.156 153.17 455.349C152.497 455.639 152.112 456.122 151.823 456.508C151.15 457.377 150.765 458.15 150.572 458.729C150.38 459.309 150.38 459.598 150.38 459.598C150.476 459.598 150.765 458.343 152.112 456.798C152.497 456.412 152.882 456.025 153.363 455.832C153.555 455.736 153.844 455.832 153.94 456.025C154.036 456.219 154.036 456.508 154.036 456.798C153.651 457.957 152.401 459.212 150.957 459.309C149.514 459.405 148.167 458.343 147.879 457.088C147.782 456.798 147.879 456.508 147.975 456.315C148.071 456.122 148.36 456.025 148.552 456.025C149.033 456.122 149.418 456.605 149.803 456.991C151.15 458.44 151.246 459.888 151.342 459.792Z" fill="white"/>
<path d="M160.29 328.363C167.41 332.129 194.926 348.16 202.335 352.988C207.723 356.561 211.09 366.121 209.358 372.108C202.239 397.023 181.842 447.527 181.842 447.527L158.366 444.534L174.818 374.04L141.625 358.396L109.201 326.142L160.29 328.363Z" fill="#263238"/>
<path d="M121.516 329.908C121.516 329.908 151.054 364.576 151.631 371.625C152.497 381.186 160.29 466.165 160.29 466.165L135.66 469.931L116.802 382.248L93.7109 355.209L90.7283 340.241L93.9995 324.5L121.516 329.908Z" fill="#263238"/>
<path d="M129.502 340.241C129.502 340.241 129.598 340.338 129.694 340.531C129.887 340.724 130.079 341.014 130.272 341.303C130.849 342.076 131.619 343.041 132.677 344.393C134.697 347.097 137.68 350.96 141.336 355.788C143.164 358.203 145.088 360.81 147.205 363.707C148.263 365.155 149.322 366.604 150.284 368.246C150.765 369.018 150.957 369.887 151.15 370.853C151.342 371.819 151.438 372.784 151.631 373.75C152.593 381.668 153.17 390.456 153.94 399.63C154.325 404.265 154.71 408.707 155.094 413.053C155.479 417.398 155.864 421.551 156.249 425.51C157.019 433.429 157.692 440.575 158.269 446.658C158.847 452.646 159.328 457.474 159.713 460.95C159.905 462.592 160.001 463.944 160.098 464.813C160.194 465.199 160.194 465.586 160.194 465.779C160.194 465.972 160.29 466.165 160.29 466.165C160.29 466.165 160.29 466.068 160.29 465.779C160.29 465.489 160.29 465.199 160.194 464.813C160.098 463.944 160.001 462.592 159.905 460.95C159.616 457.57 159.135 452.646 158.654 446.658C158.077 440.671 157.404 433.429 156.73 425.51C156.345 421.551 155.96 417.398 155.576 413.053C155.191 408.707 154.806 404.265 154.421 399.63C153.651 390.456 153.074 381.668 152.112 373.75C152.016 372.784 151.823 371.819 151.631 370.853C151.535 370.37 151.438 369.887 151.342 369.404C151.246 368.922 151.054 368.439 150.765 368.052C149.803 366.411 148.648 364.962 147.686 363.514C145.569 360.617 143.645 358.009 141.817 355.595C138.161 350.767 135.082 347.001 133.062 344.297C132.003 343.041 131.234 341.979 130.656 341.303C130.368 341.014 130.175 340.724 129.983 340.531C129.598 340.338 129.502 340.241 129.502 340.241Z" fill="#455A64"/>
<path d="M183.285 366.314C183.189 366.218 181.072 368.052 178.57 370.467C176.069 372.881 174.048 374.909 174.145 375.005C174.241 375.102 176.357 373.267 178.955 370.853C181.457 368.439 183.381 366.411 183.285 366.314Z" fill="#455A64"/>
<path d="M139.123 240.197C139.123 240.197 146.724 240.873 150.091 245.412C153.94 250.723 172.028 274.961 172.028 274.961L185.305 253.137L199.064 260.09C199.064 260.09 186.267 293.695 181.264 296.689C176.261 299.586 169.526 299.972 166.544 296.689C163.561 293.406 146.916 271.581 146.916 271.581L139.123 240.197Z" fill="#263238"/>
<path d="M158.654 327.687L127.674 239.328L123.537 234.113L100.253 231.12L96.3087 242.321L109.201 328.46L158.654 327.687Z" fill="#FAFAFA"/>
<path d="M130.56 307.891C130.56 307.891 130.56 307.698 130.56 307.311C130.56 306.925 130.56 306.346 130.56 305.67C130.56 304.994 130.464 304.125 130.368 303.159C130.272 302.193 130.175 301.035 130.079 299.779C129.598 294.854 128.54 287.998 127 280.562C125.461 273.127 123.825 266.367 122.575 261.538C121.997 259.124 121.42 257.193 121.035 255.841C120.843 255.165 120.747 254.682 120.554 254.296C120.458 253.91 120.362 253.716 120.362 253.813C120.362 253.813 120.362 254.006 120.458 254.392C120.554 254.779 120.65 255.358 120.843 255.938C121.228 257.386 121.613 259.317 122.19 261.635C123.344 266.463 124.884 273.223 126.423 280.659C127.963 288.094 129.021 294.854 129.598 299.876C129.791 301.131 129.887 302.193 129.983 303.256C130.079 304.221 130.175 305.09 130.175 305.766C130.272 306.442 130.272 306.925 130.272 307.408C130.56 307.698 130.56 307.891 130.56 307.891Z" fill="#263238"/>
<path d="M159.328 315.423C159.328 314.554 148.841 251.495 148.841 251.495L147.205 246.57C145.762 243.094 142.779 240.487 139.123 239.521L128.347 236.914L123.729 233.341L123.537 235.465L128.347 251.013L147.975 315.423H159.328Z" fill="#263238"/>
<path d="M112.472 313.685C112.472 311.85 114.204 298.331 113.05 287.515C112.184 279.597 109.971 265.981 108.239 256.227C106.988 248.888 104.679 241.742 101.504 234.982L99.5799 230.83L95.539 237.3L78.0283 244.253L84.667 313.588H112.472V313.685Z" fill="#263238"/>
<path d="M78.0283 315.713L68.4071 350.574L107.469 361.389L110.644 312.526L78.0283 315.713Z" fill="#263238"/>
<path d="M78.0283 315.713C78.0283 315.713 78.0283 315.809 77.9321 315.906C77.9321 316.003 77.8359 316.196 77.7397 316.389C77.6435 316.872 77.451 317.451 77.1624 318.224C76.6813 319.865 76.0079 322.279 75.1419 325.37C73.4101 331.55 71.0048 340.241 68.1184 350.477L68.0222 350.67L68.2146 350.767C75.9116 352.891 84.667 355.306 93.9034 357.913C98.5216 359.168 103.044 360.424 107.277 361.582L107.566 361.679V361.389C108.431 347.387 109.201 335.219 109.778 326.432C110.067 322.086 110.259 318.61 110.356 316.196C110.452 315.037 110.452 314.071 110.452 313.492C110.452 313.202 110.452 313.009 110.452 312.816C110.452 312.623 110.452 312.526 110.452 312.526C110.452 312.526 110.452 312.623 110.452 312.719C110.452 312.912 110.452 313.106 110.356 313.395C110.259 314.071 110.259 314.94 110.163 316.099C109.971 318.513 109.778 321.99 109.394 326.335C108.816 335.026 107.95 347.29 106.988 361.196L107.277 361.003C103.044 359.844 98.5216 358.589 93.9034 357.333C84.667 354.823 75.9116 352.408 68.2146 350.284L68.4071 350.574C71.1972 340.241 73.6025 331.55 75.2382 325.37C76.0079 322.279 76.6813 319.865 77.1624 318.224C77.3548 317.451 77.5473 316.775 77.6435 316.292C77.6435 316.099 77.7397 315.906 77.7397 315.809C78.0283 315.809 78.0283 315.809 78.0283 315.713Z" fill="#455A64"/>
<path d="M117.475 299.393L86.7836 297.075L85.9177 263.566L78.9904 243.963C78.9904 243.963 68.2146 247.922 67.926 261.056C67.6374 274.189 67.3487 302 69.6578 310.305C69.754 310.595 69.8503 310.884 69.9465 311.174C71.9669 317.258 78.2207 320.831 84.5708 319.962L120.266 315.133L117.475 299.393Z" fill="#263238"/>
<path d="M85.5329 265.305C85.5329 265.305 85.5329 265.498 85.5329 265.981C85.5329 266.463 85.5329 267.043 85.5329 267.815C85.6291 269.457 85.6291 271.775 85.7253 274.478C85.9177 280.176 86.2064 287.998 86.5912 296.592C86.5912 296.786 86.5912 296.882 86.5912 296.979V297.172H86.7837C95.2504 297.848 102.851 298.427 108.528 298.91C111.222 299.103 113.531 299.296 115.07 299.393C115.84 299.393 116.417 299.489 116.898 299.489C117.283 299.489 117.475 299.489 117.475 299.489C117.475 299.489 117.283 299.393 116.898 299.393C116.417 299.296 115.84 299.296 115.166 299.2C113.531 299.007 111.318 298.813 108.624 298.62C103.044 298.138 95.4428 297.462 86.9761 296.786L87.1685 296.979C87.1685 296.882 87.1685 296.689 87.1685 296.592C86.7837 287.998 86.3988 280.176 86.2064 274.478C86.014 271.678 85.9177 269.457 85.8215 267.815C85.7253 267.043 85.7253 266.463 85.7253 265.981C85.5329 265.498 85.5329 265.305 85.5329 265.305Z" fill="#455A64"/>
<path d="M78.9904 246.088C78.8942 246.184 81.3957 248.502 83.1276 252.268C84.8594 256.034 85.0518 259.414 85.2442 259.414C85.3404 259.414 85.3404 258.545 85.148 257.193C84.9556 255.841 84.4745 254.006 83.6086 252.075C82.7427 250.143 81.5882 248.598 80.7223 247.633C79.7601 246.57 79.0866 245.991 78.9904 246.088Z" fill="#455A64"/>
<path d="M95.0579 238.459C95.0579 238.459 95.0579 238.652 95.0579 239.038C95.0579 239.424 95.1541 239.907 95.1541 240.583C95.2503 241.935 95.539 243.867 96.02 246.281C96.886 251.109 98.5216 257.676 101.408 264.725L101.504 264.918H101.697C102.466 264.822 103.332 264.629 104.102 264.435C104.487 264.339 104.872 264.339 105.256 264.242L105.064 263.856C103.813 265.305 102.466 266.946 102.274 268.974C102.178 269.94 102.466 270.905 102.755 271.775C103.14 272.644 103.525 273.416 103.813 274.189C105.256 277.279 106.507 279.983 107.662 282.3C108.72 284.521 109.586 286.453 110.259 287.708C110.548 288.288 110.837 288.77 111.029 289.157C111.222 289.446 111.318 289.64 111.318 289.64C111.318 289.64 111.222 289.446 111.125 289.06C110.933 288.674 110.741 288.191 110.452 287.515C109.875 286.163 109.009 284.328 107.95 282.011C106.892 279.693 105.641 276.893 104.198 273.803C103.525 272.257 102.562 270.712 102.659 268.878C102.851 267.139 104.102 265.498 105.256 264.049L105.738 263.566L105.064 263.663C104.679 263.759 104.294 263.759 103.909 263.856C103.044 264.049 102.274 264.146 101.504 264.339L101.793 264.532C98.9064 257.579 97.2708 251.013 96.3087 246.281C95.8276 243.867 95.539 241.935 95.3466 240.68C95.2503 240.1 95.1541 239.521 95.1541 239.135C95.1541 238.652 95.1541 238.459 95.0579 238.459Z" fill="#455A64"/>
<path d="M140.759 285.004C140.759 285.004 140.759 284.811 140.759 284.522C140.759 284.232 140.759 283.652 140.759 283.073C140.759 281.818 140.663 279.983 140.47 277.762C140.085 273.223 138.931 267.043 137.391 260.38C136.622 257 135.852 253.813 135.082 250.916C134.313 248.019 133.35 245.508 132.388 243.384C131.426 241.356 130.464 239.714 129.791 238.749C129.406 238.266 129.117 237.879 128.925 237.59C128.732 237.3 128.636 237.203 128.54 237.203C128.54 237.203 128.925 237.783 129.598 238.845C130.272 239.907 131.138 241.452 132.1 243.577C132.966 245.605 133.832 248.212 134.601 251.109C135.371 254.006 136.141 257.193 136.91 260.573C138.546 267.332 139.7 273.416 140.182 277.955C140.47 280.176 140.566 282.011 140.663 283.266C140.663 283.846 140.759 284.328 140.759 284.715C140.759 284.811 140.759 285.004 140.759 285.004Z" fill="#455A64"/>
<path d="M78.8942 304.028C78.9904 304.125 79.9526 301.614 82.4541 299.586C84.8594 297.558 87.5534 297.075 87.4571 296.979C87.4571 296.882 86.7837 296.979 85.7253 297.268C84.667 297.558 83.32 298.234 82.0692 299.2C80.8185 300.262 79.9526 301.421 79.4715 302.386C78.9904 303.352 78.798 304.028 78.8942 304.028Z" fill="#455A64"/>
<path d="M119.207 255.744L121.805 317.354L129.502 331.453L134.697 315.133L122.19 255.262L119.207 255.744Z" fill="#2360A6"/>
<path d="M184.632 276.024C184.536 276.41 163.08 323.342 163.08 323.342H123.441L140.855 279.017C140.855 279.017 154.421 280.755 166.448 279.79C176.165 278.921 184.632 276.024 184.632 276.024Z" fill="#E0E0E0"/>
<path d="M184.632 276.024C184.632 276.024 184.535 276.024 184.439 276.12C184.247 276.217 184.151 276.217 183.862 276.313C183.381 276.506 182.611 276.7 181.649 276.989C179.629 277.569 176.742 278.341 172.894 279.017C165.293 280.466 154.132 280.659 140.855 279.21L141.047 279.114C136.044 291.861 130.079 307.118 123.729 323.342L123.633 323.438L123.441 323.052C137.68 323.052 151.246 323.052 163.08 323.052L162.888 323.149C175.684 295.434 183.766 277.762 184.632 276.024C183.862 277.858 175.876 295.53 163.273 323.438L163.176 323.535H162.984C151.15 323.535 137.584 323.535 123.344 323.535H122.96L123.056 323.149L123.152 323.052C129.598 306.829 135.563 291.668 140.566 278.824L140.663 278.631H140.855C154.036 280.176 165.197 280.079 172.798 278.631C176.646 277.955 179.532 277.279 181.553 276.7C182.515 276.41 183.285 276.217 183.862 276.024C184.151 275.927 184.343 275.927 184.439 275.83C184.535 276.024 184.632 276.024 184.632 276.024Z" fill="#263238"/>
<path d="M117.475 299.683L120.169 299.876C120.169 299.876 129.117 291.571 130.368 291.571C131.619 291.571 135.563 292.633 135.563 292.633L134.505 295.434C134.505 295.434 141.047 295.047 143.068 295.434C145.088 295.82 147.397 296.882 146.532 299.296C146.532 299.296 148.167 302 144.8 303.256C144.8 303.256 145.569 304.704 143.645 305.96C143.357 306.153 142.972 306.346 142.587 306.539C139.316 307.987 139.508 308.181 139.508 308.181C139.508 308.181 139.412 309.629 138.257 310.788C137.103 311.947 130.464 314.457 126.904 314.651C123.344 314.844 120.073 313.781 120.073 313.781L117.475 299.683Z" fill="#FFBF9D"/>
<path d="M126.904 295.337C126.904 295.434 128.636 295.627 130.753 295.53C132.869 295.53 134.601 295.434 134.601 295.241C134.601 295.144 132.869 294.951 130.753 295.047C128.636 295.144 126.904 295.24 126.904 295.337Z" fill="#FF9A6C"/>
<path d="M128.636 300.455C128.636 300.552 129.598 300.455 131.234 300.359C132.966 300.262 135.179 300.069 137.488 299.972C139.893 299.876 142.01 299.779 143.741 299.683C145.377 299.586 146.339 299.586 146.339 299.489C146.339 299.393 145.377 299.393 143.741 299.393C142.106 299.393 139.893 299.393 137.488 299.586C135.082 299.779 132.773 299.972 131.234 300.165C129.598 300.262 128.54 300.455 128.636 300.455Z" fill="#FF9A6C"/>
<path d="M132.292 305.187C132.292 305.284 135.178 304.994 138.738 304.511C142.298 304.028 145.088 303.449 145.088 303.352C145.088 303.256 142.202 303.545 138.642 304.028C135.178 304.608 132.292 305.09 132.292 305.187Z" fill="#FF9A6C"/>
<path d="M133.062 309.146C133.062 309.243 134.601 309.339 136.525 308.953C138.354 308.663 139.797 308.084 139.797 307.987C139.797 307.891 138.257 308.181 136.429 308.47C134.505 308.857 133.062 308.953 133.062 309.146Z" fill="#FF9A6C"/>
<g opacity="0.3">
<path d="M165.678 331.453L175.203 336.958L71.0048 341.207L73.6987 331.453H165.678Z" fill="#404D61"/>
</g>
<path d="M119.207 255.744L117.091 253.041L118.63 248.502H121.132L123.152 252.654L122.19 255.262L119.207 255.744Z" fill="#2360A6"/>
<path d="M127.674 247.729C127.674 247.729 127.674 247.922 127.578 248.212C127.482 248.502 127.385 248.985 127.097 249.661C126.616 250.819 125.557 252.461 123.633 253.813L123.441 254.006L123.344 253.716C122.96 252.558 122.478 251.302 121.901 250.047C121.228 248.792 120.362 247.536 119.111 246.764L119.496 246.667C119.303 247.536 119.015 248.405 118.726 249.274C117.956 251.592 117.187 253.716 116.321 255.648L116.225 255.938L116.032 255.744C113.242 253.716 111.125 251.689 109.586 250.24C108.816 249.468 108.335 248.888 107.95 248.502C107.566 248.116 107.373 247.826 107.373 247.826C107.373 247.826 107.662 248.019 108.047 248.405C108.528 248.888 109.105 249.371 109.778 250.047C111.318 251.495 113.531 253.33 116.225 255.358L115.84 255.455C116.61 253.523 117.475 251.399 118.149 249.178C118.438 248.309 118.726 247.44 118.919 246.667L119.015 246.377L119.303 246.57C120.65 247.536 121.613 248.792 122.19 250.143C122.863 251.399 123.248 252.751 123.633 253.813L123.344 253.716C125.172 252.461 126.231 250.916 126.808 249.854C127.482 248.405 127.578 247.729 127.674 247.729Z" fill="#263238"/>
<path d="M129.598 175.497C125.75 174.724 122.19 178.587 118.245 178.297C115.84 178.104 113.916 176.462 111.703 175.497C108.431 174.145 103.909 174.338 100.927 176.269C97.9443 178.201 96.02 180.229 96.02 183.802C92.9412 182.45 88.5155 186.699 87.2647 190.368C86.0139 194.038 86.7836 197.707 88.2268 201.377C90.5359 207.75 94.192 213.544 98.714 218.566C99.0988 219.049 99.7723 219.435 100.253 219.145C100.638 218.952 100.638 218.469 100.734 218.083C100.927 214.607 100.061 211.034 99.3875 207.654C98.714 204.177 98.1367 200.604 98.9064 197.128C99.6761 193.651 101.889 190.368 105.256 189.306C107.758 188.533 110.452 189.016 112.857 190.078C115.263 191.141 117.379 192.589 119.688 193.748C121.997 194.907 124.499 195.873 127.097 195.679C129.694 195.486 132.292 193.941 133.158 191.527C134.024 189.016 132.388 185.83 129.791 185.636C132.1 185.154 133.928 182.932 133.832 180.615C133.735 178.201 131.907 175.98 129.598 175.497Z" fill="#263238"/>
<path d="M131.907 217.117C131.234 212.289 129.117 202.632 127.097 193.845C124.884 184.381 115.84 178.201 106.315 179.553L105.353 179.649C95.1541 181.774 92.5564 191.817 94.9617 201.956L100.157 232.085L119.111 246.377L124.21 237.59L123.825 229.768C123.825 229.961 133.158 227.064 131.907 217.117Z" fill="#FFBF9D"/>
<path d="M123.825 229.961C123.825 229.961 117.379 231.506 110.163 228.319C110.163 228.319 114.204 234.789 123.922 232.472L123.825 229.961Z" fill="#FF9A6C"/>
<path d="M125.461 203.598C125.557 204.37 125.076 205.046 124.306 205.24C123.537 205.433 122.767 204.95 122.671 204.177C122.575 203.405 123.056 202.729 123.825 202.536C124.595 202.343 125.269 202.825 125.461 203.598Z" fill="#263238"/>
<path d="M125.653 198.963C125.461 199.156 124.306 198.576 122.767 198.77C121.228 198.963 120.266 199.928 120.073 199.735C119.977 199.639 120.073 199.349 120.554 198.866C120.939 198.48 121.709 197.997 122.671 197.804C123.633 197.707 124.499 197.9 124.98 198.19C125.557 198.576 125.75 198.866 125.653 198.963Z" fill="#263238"/>
<path d="M111.51 206.012C111.606 206.785 111.125 207.461 110.356 207.654C109.586 207.847 108.816 207.364 108.72 206.592C108.624 205.819 109.105 205.143 109.875 204.95C110.644 204.757 111.414 205.24 111.51 206.012Z" fill="#263238"/>
<path d="M110.837 201.473C110.644 201.667 109.49 201.087 107.95 201.28C106.411 201.473 105.449 202.439 105.256 202.246C105.16 202.149 105.256 201.86 105.737 201.377C106.122 200.991 106.892 200.508 107.854 200.315C108.816 200.218 109.682 200.411 110.163 200.701C110.741 201.087 110.933 201.377 110.837 201.473Z" fill="#263238"/>
<path d="M117.956 211.903C117.956 211.806 118.822 211.516 120.362 211.13C120.747 211.034 121.131 210.937 121.131 210.647C121.228 210.358 120.939 209.971 120.747 209.489C120.266 208.619 119.688 207.654 119.207 206.688C116.994 202.729 115.359 199.446 115.551 199.349C115.744 199.252 117.668 202.439 119.784 206.398C120.362 207.364 120.843 208.33 121.324 209.199C121.516 209.585 121.901 210.068 121.709 210.647C121.613 210.937 121.42 211.227 121.131 211.323C120.939 211.42 120.65 211.516 120.458 211.516C118.919 211.903 118.053 211.999 117.956 211.903Z" fill="#263238"/>
<path d="M109.875 193.651C109.778 194.134 108.239 194.134 106.507 194.617C104.775 195.1 103.428 195.776 103.14 195.486C103.044 195.293 103.236 194.907 103.717 194.424C104.198 193.941 105.064 193.458 106.122 193.169C107.181 192.879 108.143 192.879 108.816 193.072C109.49 193.169 109.875 193.458 109.875 193.651Z" fill="#263238"/>
<path d="M124.499 194.714C124.306 195.1 123.152 194.907 121.901 195.1C120.65 195.197 119.592 195.679 119.303 195.39C119.207 195.197 119.303 194.907 119.688 194.424C120.073 194.038 120.843 193.651 121.709 193.555C122.575 193.458 123.344 193.651 123.825 193.941C124.403 194.134 124.595 194.521 124.499 194.714Z" fill="#263238"/>
<path d="M96.3087 208.909C96.1163 208.909 88.5155 208.04 89.67 214.8C90.9208 221.559 97.8481 219.242 97.8481 219.242L96.3087 208.909Z" fill="#FFBF9D"/>
<path d="M94.8655 216.538C94.8655 216.538 94.7693 216.635 94.5768 216.731C94.3844 216.828 94.0958 217.021 93.7109 216.924C92.9412 216.828 92.1715 215.765 91.8829 214.607C91.7867 214.027 91.7867 213.351 91.8829 212.868C91.9791 212.386 92.2677 211.903 92.5564 211.806C92.9412 211.613 93.2299 211.806 93.3261 211.999C93.4223 212.192 93.4223 212.289 93.4223 212.289C93.4223 212.289 93.5185 212.192 93.4223 211.903C93.3261 211.806 93.2299 211.613 93.0374 211.516C92.845 211.42 92.6526 211.42 92.364 211.42C91.8829 211.516 91.498 212.096 91.3056 212.675C91.1132 213.255 91.1132 213.931 91.2094 214.607C91.498 215.959 92.4602 217.117 93.4223 217.214C93.9034 217.214 94.2882 217.021 94.4806 216.828C94.8655 216.635 94.8655 216.538 94.8655 216.538Z" fill="#FF9A6C"/>
<path d="M125.846 184.574C124.691 182.739 122.863 181.484 121.035 180.422C116.994 178.201 112.184 177.138 107.662 177.718C103.044 178.297 98.714 180.615 95.8276 184.284C93.5185 187.181 92.364 190.851 92.0753 194.617C91.7867 198.287 92.1716 203.212 93.3261 206.688C93.8072 208.233 94.8655 208.716 96.1163 209.682C96.886 210.261 98.1367 210.647 98.9064 209.875C99.2913 209.489 99.3875 208.813 99.4837 208.233C100.061 202.825 100.446 197.031 97.8481 192.3C98.9064 190.465 100.157 188.63 101.889 187.375C103.621 186.119 105.738 185.347 107.854 185.636C111.029 186.119 113.242 188.823 115.936 190.465C119.785 192.879 124.788 193.265 129.021 191.43L125.846 184.574Z" fill="#263238"/>
<path d="M87.3609 199.059C87.3609 198.963 88.1306 198.963 89.189 198.673C90.3435 198.48 91.7867 197.9 93.3261 196.935C94.7693 195.969 95.9238 194.81 96.5011 193.845C97.1746 192.879 97.4632 192.203 97.5594 192.3C97.5594 192.3 97.367 193.072 96.7897 194.038C96.2125 195.003 95.0579 196.355 93.5185 197.321C91.9791 198.287 90.4397 198.866 89.189 198.963C88.1306 199.156 87.3609 199.059 87.3609 199.059Z" fill="#E0E0E0"/>
<path d="M88.1306 200.991C88.1306 200.894 88.9003 200.894 89.9587 200.604C91.1132 200.411 92.5564 199.832 94.0958 198.866C95.539 197.9 96.6935 196.742 97.2708 195.776C97.9443 194.81 98.2329 194.134 98.3291 194.231C98.3291 194.231 98.1367 195.003 97.5594 195.969C96.9822 196.935 95.8276 198.287 94.2882 199.252C92.7488 200.218 91.2094 200.797 89.9587 200.894C88.9003 201.087 88.1306 200.991 88.1306 200.991Z" fill="#E0E0E0"/>
<path d="M114.3 214.703C114.3 214.703 115.936 214.993 117.475 215.476L119.592 215.959C119.4 216.828 118.919 218.276 118.149 218.759C117.379 219.242 115.936 219.532 115.166 218.952C114.493 218.566 114.108 217.89 113.916 216.924C113.723 216.055 114.3 214.703 114.3 214.703Z" fill="#FF9A6C"/>
<path d="M119.111 217.504C119.111 217.504 119.111 217.697 119.015 218.083C118.919 218.276 118.822 218.469 118.63 218.662C118.534 218.759 118.438 218.856 118.341 218.952C118.149 219.049 118.053 219.145 117.86 219.145C117.475 219.242 117.187 219.338 116.706 219.338C116.321 219.338 115.84 219.338 115.359 219.145C114.878 218.952 114.493 218.662 114.204 218.18C113.916 217.793 113.723 217.214 113.819 216.635C113.819 216.055 113.916 215.572 114.012 215.089C114.012 214.993 114.012 214.896 114.108 214.703C114.108 214.607 114.397 214.317 114.589 214.317C114.781 214.317 114.878 214.413 114.974 214.413L115.263 214.51C116.032 214.703 116.802 214.993 117.475 215.186C118.726 215.572 119.496 215.862 119.496 215.862C119.496 215.959 118.63 215.765 117.379 215.476C116.706 215.283 115.936 215.089 115.166 214.896L114.878 214.8C114.781 214.8 114.685 214.703 114.589 214.703C114.589 214.703 114.589 214.703 114.589 214.8C114.589 214.896 114.493 214.993 114.493 215.089C114.397 215.572 114.3 216.055 114.3 216.538C114.204 217.504 114.878 218.276 115.551 218.566C116.321 218.856 117.091 218.856 117.668 218.662C117.956 218.566 118.149 218.469 118.341 218.276C118.534 218.083 118.63 217.89 118.726 217.793C118.919 217.697 119.015 217.504 119.111 217.504Z" fill="#263238"/>
<path d="M152.112 279.79C152.016 279.79 151.054 274.768 150.091 268.395C149.129 262.118 148.36 257 148.552 256.903C148.648 256.903 149.61 261.925 150.572 268.298C151.535 274.672 152.208 279.79 152.112 279.79Z" fill="#455A64"/>
<path d="M119.4 315.133C119.4 315.133 119.207 315.23 118.919 315.23C118.534 315.327 118.149 315.327 117.572 315.423C116.321 315.616 114.781 315.906 112.761 316.196C108.72 316.872 103.14 317.644 96.8859 318.61C93.8071 319.093 90.8246 319.479 88.1306 319.769C85.4367 320.058 82.9351 320.155 80.9147 319.962C78.8942 319.865 77.2586 319.479 76.1041 319.189C75.5268 318.996 75.1419 318.9 74.8533 318.803C74.5647 318.706 74.4684 318.61 74.4684 318.61C74.4684 318.61 75.0457 318.803 76.2003 318.996C77.3548 319.286 78.8942 319.576 81.0109 319.672C83.0313 319.769 85.4367 319.672 88.1306 319.382C90.8246 319.093 93.7109 318.61 96.8859 318.224C103.044 317.354 108.72 316.582 112.761 316.003C114.781 315.713 116.321 315.52 117.572 315.423C118.053 315.327 118.534 315.327 118.919 315.327C119.207 315.133 119.4 315.133 119.4 315.133Z" fill="#455A64"/>
<path d="M309.227 335.123H298.836V468.772H309.227V335.123Z" fill="#E0E0E0"/>
<path d="M309.227 468.772C309.227 468.772 309.227 468.483 309.227 468.096C309.227 467.613 309.227 466.938 309.227 466.068C309.227 464.33 309.227 461.723 309.227 458.343C309.227 451.68 309.227 441.927 309.131 429.856C309.131 405.81 309.034 372.398 309.034 335.026L309.323 335.316C306.052 335.316 302.492 335.316 298.932 335.316L299.221 335.026C299.125 395.767 299.125 447.721 299.028 468.676L298.932 468.579C302.3 468.579 304.897 468.579 306.629 468.676C307.495 468.676 308.168 468.676 308.65 468.676C308.938 468.772 309.227 468.772 309.227 468.772C309.227 468.772 309.034 468.772 308.553 468.772C308.072 468.772 307.399 468.772 306.629 468.772C304.897 468.772 302.3 468.772 298.836 468.869H298.74V468.772C298.74 447.817 298.643 395.864 298.547 335.123V334.833H298.836C302.396 334.833 305.859 334.833 309.227 334.833H309.515V335.123C309.515 372.591 309.419 406.003 309.419 430.145C309.419 442.12 309.323 451.873 309.323 458.536C309.323 461.819 309.323 464.427 309.323 466.165C309.323 467.034 309.323 467.71 309.323 468.096C309.227 468.579 309.227 468.772 309.227 468.772Z" fill="#263238"/>
<path d="M31.4615 330.488H21.0705V468.772H31.4615V330.488Z" fill="#E0E0E0"/>
<path d="M31.4615 468.772C31.4615 468.772 31.4615 468.483 31.4615 468.096C31.4615 467.613 31.4615 466.938 31.4615 465.972C31.4615 464.137 31.4615 461.433 31.4615 457.957C31.4615 451.004 31.4615 440.961 31.3653 428.504C31.3653 403.589 31.269 369.115 31.269 330.391L31.5577 330.681C28.2865 330.681 24.7266 330.681 21.1667 330.681L21.4554 330.391C21.263 393.546 21.1667 447.431 21.1667 468.772L21.0705 468.676C24.438 468.676 27.0357 468.676 28.7675 468.772C29.6334 468.772 30.3069 468.772 30.788 468.772C31.1728 468.772 31.4615 468.772 31.4615 468.772C31.4615 468.772 31.269 468.772 30.788 468.772C30.3069 468.772 29.7296 468.772 28.8637 468.772C27.1319 468.772 24.5342 468.772 21.0705 468.869H20.9743V468.772C20.9743 447.431 20.8781 393.546 20.7819 330.488V330.198H21.0705C24.6304 330.198 28.094 330.198 31.4615 330.198H31.7501V330.488C31.7501 369.211 31.6539 403.782 31.6539 428.697C31.6539 441.154 31.5577 451.1 31.5577 458.053C31.5577 461.53 31.5577 464.137 31.5577 465.972C31.5577 466.841 31.5577 467.517 31.5577 468C31.4615 468.579 31.4615 468.772 31.4615 468.772Z" fill="#263238"/>
<path d="M110.452 330.488H100.061V468.869H110.452V330.488Z" fill="#E0E0E0"/>
<path d="M110.356 468.869C110.356 468.869 110.356 468.579 110.356 468.193C110.356 467.71 110.356 467.034 110.356 466.068C110.356 464.234 110.356 461.53 110.356 458.053C110.356 451.1 110.356 441.057 110.259 428.6C110.259 403.686 110.163 369.115 110.163 330.488L110.452 330.777C107.181 330.777 103.621 330.777 100.061 330.777L100.35 330.488C100.253 393.643 100.253 447.527 100.157 468.869L100.061 468.772C103.428 468.772 106.026 468.772 107.758 468.869C108.624 468.869 109.297 468.869 109.778 468.869C110.163 468.772 110.356 468.869 110.356 468.869C110.356 468.869 110.163 468.869 109.682 468.869C109.201 468.869 108.624 468.869 107.758 468.869C106.026 468.869 103.428 468.869 99.9647 468.965H99.8685V468.869C99.8685 447.527 99.7723 393.643 99.6761 330.488V330.198H99.9647C103.525 330.198 106.988 330.198 110.356 330.198H110.644V330.488C110.644 369.211 110.548 403.879 110.548 428.793C110.548 441.251 110.452 451.294 110.452 458.15C110.452 461.626 110.452 464.234 110.452 466.068C110.452 466.938 110.452 467.613 110.452 468.096C110.356 468.579 110.356 468.869 110.356 468.869Z" fill="#263238"/>
<path d="M331.741 323.824H3.75229V340.724H331.741V323.824Z" fill="#6F4439"/>
<g opacity="0.3">
<path d="M93.0374 323.921H4.23334V340.724H93.0374V323.921Z" fill="#404D61"/>
</g>
<path d="M65.1543 309.563H89.7847V299.809H65.1543V309.563Z" fill="#EBEBEB"/>
<path d="M13.2709 300.244H90.7219V298.216H13.2709V300.244Z" fill="#455A64"/>
<path d="M13.2967 311.215H90.3629V309.188H13.2967V311.215Z" fill="#455A64"/>
<path d="M65.0396 298.62L64.9434 310.788H13.3735V298.62H65.0396Z" fill="#455A64"/>
<path d="M52.532 304.704C52.532 306.346 53.7828 307.698 55.3222 307.698C56.8616 307.698 58.1123 306.346 58.1123 304.704C58.1123 303.062 56.8616 301.711 55.3222 301.711C53.7828 301.711 52.532 303.062 52.532 304.704Z" fill="#263238"/>
<path d="M52.1472 304.704C52.1472 302.773 53.5903 301.228 55.4184 301.228C57.1502 301.228 58.6896 302.773 58.6896 304.704C58.6896 306.635 57.2464 308.181 55.4184 308.181C53.5903 308.181 52.1472 306.635 52.1472 304.704ZM53.0131 304.704C53.0131 306.153 54.0714 307.311 55.4184 307.311C56.7654 307.311 57.8237 306.153 57.8237 304.704C57.8237 303.256 56.7654 302.097 55.4184 302.097C54.0714 302.097 53.0131 303.256 53.0131 304.704Z" fill="#E0E0E0"/>
<path d="M66.9639 307.215C66.9639 307.311 72.0631 307.408 78.3169 307.408C84.5707 307.408 89.67 307.311 89.67 307.215C89.67 307.118 84.5707 307.022 78.3169 307.022C71.9669 307.022 66.9639 307.118 66.9639 307.215Z" fill="#263238"/>
<path d="M66.9639 305.477C66.9639 305.573 72.0631 305.67 78.3169 305.67C84.5707 305.67 89.67 305.573 89.67 305.477C89.67 305.38 84.5707 305.284 78.3169 305.284C71.9669 305.284 66.9639 305.38 66.9639 305.477Z" fill="#263238"/>
<path d="M66.9639 303.835C66.9639 303.932 72.0631 304.028 78.3169 304.028C84.5707 304.028 89.67 303.932 89.67 303.835C89.67 303.738 84.5707 303.642 78.3169 303.642C71.9669 303.545 66.9639 303.642 66.9639 303.835Z" fill="#263238"/>
<path d="M66.9639 302.097C66.9639 302.193 72.0631 302.29 78.3169 302.29C84.5707 302.29 89.67 302.193 89.67 302.097C89.67 302 84.5707 301.904 78.3169 301.904C71.9669 301.904 66.9639 302 66.9639 302.097Z" fill="#263238"/>
<path d="M19.0442 307.761H42.3276V301.291H19.0442V307.761Z" fill="white"/>
<path d="M38.6774 307.118C38.7736 307.118 38.8698 305.959 38.8698 304.511C38.8698 303.062 38.7736 301.904 38.6774 301.904C38.5812 301.904 38.485 303.062 38.485 304.511C38.485 305.959 38.5812 307.118 38.6774 307.118Z" fill="#E0E0E0"/>
<path d="M35.5986 307.118C35.6948 307.118 35.791 305.959 35.791 304.511C35.791 303.062 35.6948 301.904 35.5986 301.904C35.5024 301.904 35.4062 303.062 35.4062 304.511C35.4062 305.959 35.5024 307.118 35.5986 307.118Z" fill="#E0E0E0"/>
<path d="M32.5198 307.118C32.616 307.118 32.7122 305.959 32.7122 304.511C32.7122 303.062 32.616 301.904 32.5198 301.904C32.4236 301.904 32.3274 303.062 32.3274 304.511C32.3274 305.959 32.4236 307.118 32.5198 307.118Z" fill="#E0E0E0"/>
<path d="M29.441 307.118C29.5372 307.118 29.6334 305.959 29.6334 304.511C29.6334 303.062 29.5372 301.904 29.441 301.904C29.3448 301.904 29.2486 303.062 29.2486 304.511C29.2486 305.959 29.3448 307.118 29.441 307.118Z" fill="#E0E0E0"/>
<path d="M26.3622 307.118C26.4584 307.118 26.5546 305.959 26.5546 304.511C26.5546 303.062 26.4584 301.904 26.3622 301.904C26.266 301.904 26.1698 303.062 26.1698 304.511C26.1698 305.959 26.266 307.118 26.3622 307.118Z" fill="#E0E0E0"/>
<path d="M23.2834 307.118C23.3796 307.118 23.4758 305.959 23.4758 304.511C23.4758 303.062 23.3796 301.904 23.2834 301.904C23.1872 301.904 23.091 303.062 23.091 304.511C23.091 305.959 23.1872 307.118 23.2834 307.118Z" fill="#E0E0E0"/>
<path d="M64.751 311.174C64.8472 311.174 64.9434 308.277 64.9434 304.704C64.9434 301.131 64.8472 298.234 64.751 298.234C64.6548 298.234 64.5586 301.131 64.5586 304.704C64.4624 308.277 64.6548 311.174 64.751 311.174Z" fill="#263238"/>
<path d="M15.9713 279.21V276.024L82.1655 276.12H85.9177V279.21H82.1655V298.234H10.6796V279.21H15.9713Z" fill="#F5F5F5"/>
<path d="M32.135 298.234V276.024H15.9713V279.21H10.6796V298.234H32.135Z" fill="#EBEBEB"/>
<path d="M15.9713 276.024C15.9713 276.12 31.5577 276.217 50.704 276.217C69.8503 276.217 85.4367 276.12 85.4367 276.024C85.4367 275.927 69.9465 275.83 50.704 275.83C31.4615 275.83 15.9713 275.927 15.9713 276.024Z" fill="#E0E0E0"/>
<path d="M11.1606 285.97C11.1606 286.067 26.9395 286.163 46.4706 286.163C66.0017 286.163 81.7806 286.067 81.7806 285.97C81.7806 285.873 66.0017 285.777 46.4706 285.777C27.0357 285.777 11.1606 285.873 11.1606 285.97Z" fill="#E0E0E0"/>
<path d="M10.6796 292.826C10.6796 292.923 26.6509 293.019 46.2782 293.019C65.9055 293.019 81.8768 292.923 81.8768 292.826C81.8768 292.73 65.9055 292.633 46.2782 292.633C26.5546 292.633 10.6796 292.73 10.6796 292.826Z" fill="#E0E0E0"/>
<path d="M85.3404 279.21C85.3404 279.114 69.754 279.017 50.6078 279.017C31.4615 279.017 15.8751 279.114 15.8751 279.21C15.8751 279.307 31.3653 279.403 50.6078 279.403C69.8502 279.403 85.3404 279.307 85.3404 279.21Z" fill="#E0E0E0"/>
<path d="M61.8733 322.26H86.5037V312.506H61.8733V322.26Z" fill="#EBEBEB"/>
<path d="M10.0861 312.844H87.5371V310.816H10.0861V312.844Z" fill="#C91330"/>
<path d="M10.112 323.912H87.1782V321.885H10.112V323.912Z" fill="#C91330"/>
<path d="M61.7684 311.367L61.6722 323.535H10.0061V311.367H61.7684Z" fill="#C91330"/>
<path d="M49.2608 317.354C49.2608 318.996 50.5115 320.348 52.0509 320.348C53.5903 320.348 54.8411 318.996 54.8411 317.354C54.8411 315.713 53.5903 314.361 52.0509 314.361C50.5115 314.361 49.2608 315.713 49.2608 317.354Z" fill="#263238"/>
<path d="M48.7797 317.354C48.7797 315.423 50.2229 313.878 52.0509 313.878C53.7828 313.878 55.3222 315.423 55.3222 317.354C55.3222 319.286 53.879 320.831 52.0509 320.831C50.2229 320.831 48.7797 319.286 48.7797 317.354ZM49.6456 317.354C49.6456 318.803 50.704 319.962 52.0509 319.962C53.3979 319.962 54.4563 318.803 54.4563 317.354C54.4563 315.906 53.3979 314.747 52.0509 314.747C50.704 314.844 49.6456 316.003 49.6456 317.354Z" fill="#E0E0E0"/>
<path d="M63.6927 319.865C63.6927 319.962 68.7919 320.058 75.0457 320.058C81.2995 320.058 86.3988 319.962 86.3988 319.865C86.3988 319.769 81.2995 319.672 75.0457 319.672C68.6957 319.672 63.6927 319.769 63.6927 319.865Z" fill="#263238"/>
<path d="M63.6927 318.224C63.6927 318.32 68.7919 318.417 75.0457 318.417C81.2995 318.417 86.3988 318.32 86.3988 318.224C86.3988 318.127 81.2995 318.03 75.0457 318.03C68.6957 317.934 63.6927 318.03 63.6927 318.224Z" fill="#263238"/>
<path d="M63.6927 316.485C63.6927 316.582 68.7919 316.678 75.0457 316.678C81.2995 316.678 86.3988 316.582 86.3988 316.485C86.3988 316.389 81.2995 316.292 75.0457 316.292C68.6957 316.292 63.6927 316.389 63.6927 316.485Z" fill="#263238"/>
<path d="M63.6927 314.747C63.6927 314.844 68.7919 314.94 75.0457 314.94C81.2995 314.94 86.3988 314.844 86.3988 314.747C86.3988 314.651 81.2995 314.554 75.0457 314.554C68.6957 314.554 63.6927 314.651 63.6927 314.747Z" fill="#263238"/>
<path d="M15.7633 320.458H39.0467V313.988H15.7633V320.458Z" fill="white"/>
<path d="M35.4062 319.769C35.5024 319.769 35.5986 318.61 35.5986 317.161C35.5986 315.713 35.5024 314.554 35.4062 314.554C35.31 314.554 35.2138 315.713 35.2138 317.161C35.2138 318.61 35.31 319.769 35.4062 319.769Z" fill="#E0E0E0"/>
<path d="M32.3274 319.769C32.4236 319.769 32.5198 318.61 32.5198 317.161C32.5198 315.713 32.4236 314.554 32.3274 314.554C32.2312 314.554 32.135 315.713 32.135 317.161C32.135 318.61 32.2312 319.769 32.3274 319.769Z" fill="#E0E0E0"/>
<path d="M29.2486 319.769C29.3448 319.769 29.441 318.61 29.441 317.161C29.441 315.713 29.3448 314.554 29.2486 314.554C29.1524 314.554 29.0562 315.713 29.0562 317.161C29.0562 318.61 29.1524 319.769 29.2486 319.769Z" fill="#E0E0E0"/>
<path d="M26.1698 319.769C26.266 319.769 26.3622 318.61 26.3622 317.161C26.3622 315.713 26.266 314.554 26.1698 314.554C26.0736 314.554 25.9774 315.713 25.9774 317.161C25.9774 318.61 26.0736 319.769 26.1698 319.769Z" fill="#E0E0E0"/>
<path d="M23.091 319.769C23.1872 319.769 23.2834 318.61 23.2834 317.161C23.2834 315.713 23.1872 314.554 23.091 314.554C22.9948 314.554 22.8986 315.713 22.8986 317.161C22.8986 318.61 22.9948 319.769 23.091 319.769Z" fill="#E0E0E0"/>
<path d="M20.0122 319.769C20.1084 319.769 20.2046 318.61 20.2046 317.161C20.2046 315.713 20.1084 314.554 20.0122 314.554C19.916 314.554 19.8198 315.713 19.8198 317.161C19.8198 318.61 19.916 319.769 20.0122 319.769Z" fill="#E0E0E0"/>
<path d="M61.4798 323.824C61.576 323.824 61.6722 320.927 61.6722 317.354C61.6722 313.781 61.576 310.884 61.4798 310.884C61.3836 310.884 61.2873 313.781 61.2873 317.354C61.1911 320.927 61.2873 323.824 61.4798 323.824Z" fill="#263238"/>
<path d="M407.941 194.134C407.364 192.3 405.535 190.948 403.707 190.948C401.879 188.823 398.512 188.244 396.107 189.692C394.663 188.437 392.547 187.954 390.719 188.63C388.891 189.209 387.448 190.851 386.966 192.686C385.138 192.01 382.926 192.686 381.771 194.231C380.616 195.776 380.52 198.094 381.579 199.735C379.366 200.025 377.634 202.149 377.73 204.37C377.826 206.592 379.751 208.523 381.867 208.716L406.209 199.252C407.748 198.094 408.422 195.969 407.941 194.134Z" fill="#263238"/>
<path d="M381.001 209.199C383.599 199.639 393.028 193.555 402.745 195.39L403.707 195.583C414.002 198.094 417.658 208.33 414.868 218.662L406.209 253.813L406.017 254.199L388.698 266.174L385.716 263.953L381.867 254.392L383.31 246.377C383.31 246.377 373.593 242.997 375.229 232.858C376.094 228.029 378.692 218.083 381.001 209.199Z" fill="#FFBF9D"/>
<path d="M383.31 246.377C383.31 246.377 389.564 247.922 397.069 244.929C397.069 244.929 392.547 251.689 382.829 248.985L383.31 246.377Z" fill="#FF9A6C"/>
<path d="M381.579 219.338C381.386 220.111 381.867 220.883 382.733 221.077C383.503 221.27 384.273 220.787 384.465 220.014C384.657 219.242 384.176 218.469 383.31 218.276C382.541 218.083 381.771 218.566 381.579 219.338Z" fill="#263238"/>
<path d="M382.06 214.993C382.156 215.186 383.407 214.607 384.946 214.896C386.485 215.186 387.447 216.152 387.64 215.959C387.736 215.862 387.64 215.476 387.159 215.089C386.774 214.607 386.004 214.124 385.042 213.931C384.08 213.738 383.214 213.931 382.637 214.22C382.252 214.607 381.963 214.896 382.06 214.993Z" fill="#263238"/>
<path d="M394.856 221.946C394.663 222.718 395.145 223.491 396.01 223.684C396.78 223.877 397.55 223.394 397.742 222.622C397.935 221.849 397.454 221.077 396.588 220.883C395.818 220.69 395.048 221.173 394.856 221.946Z" fill="#263238"/>
<path d="M396.876 217.504C396.973 217.697 398.223 217.117 399.763 217.407C401.302 217.697 402.264 218.662 402.457 218.469C402.553 218.373 402.457 217.986 401.976 217.6C401.591 217.117 400.821 216.635 399.859 216.441C398.897 216.248 398.031 216.441 397.454 216.731C397.069 217.117 396.78 217.407 396.876 217.504Z" fill="#263238"/>
<path d="M394.952 230.444C394.663 230.347 394.182 231.699 392.835 232.472C391.488 233.341 390.141 233.244 390.045 233.534C390.045 233.63 390.334 233.824 391.007 233.92C391.585 234.017 392.547 233.824 393.316 233.341C394.182 232.858 394.663 232.085 394.856 231.506C395.144 230.83 395.048 230.444 394.952 230.444Z" fill="#263238"/>
<path d="M389.66 228.029C389.66 227.933 388.794 227.643 387.255 227.16C386.87 227.064 386.485 226.871 386.485 226.581C386.485 226.291 386.678 225.905 386.966 225.422C387.544 224.553 388.121 223.587 388.698 222.622C391.104 218.662 392.932 215.283 392.739 215.186C392.547 215.089 390.526 218.276 388.121 222.235C387.544 223.201 386.966 224.167 386.485 225.036C386.293 225.422 385.908 225.905 386.004 226.581C386.101 226.871 386.293 227.16 386.582 227.257C386.774 227.354 387.063 227.45 387.255 227.45C388.698 227.933 389.66 228.126 389.66 228.029Z" fill="#263238"/>
<path d="M397.646 213.062C397.742 213.544 399.185 213.351 400.725 213.738C402.36 214.027 403.611 214.607 403.9 214.317C403.996 214.124 403.804 213.738 403.323 213.255C402.841 212.772 401.976 212.386 401.013 212.192C400.051 211.999 399.185 212.096 398.512 212.386C397.935 212.579 397.646 212.868 397.646 213.062Z" fill="#263238"/>
<path d="M383.214 210.84C383.407 211.227 384.561 211.227 385.812 211.516C387.063 211.806 388.025 212.386 388.41 212.096C388.602 211.903 388.506 211.516 388.121 211.13C387.736 210.647 387.063 210.164 386.197 209.971C385.331 209.778 384.465 209.875 383.984 210.068C383.407 210.261 383.118 210.647 383.214 210.84Z" fill="#263238"/>
<path d="M382.829 204.757C382.829 204.757 386.582 198.963 389.949 197.997C393.894 196.935 394.76 201.184 398.416 200.894C402.072 200.508 405.92 199.446 408.999 202.825C412.367 206.495 410.154 208.233 409.576 212.772C407.267 231.023 409.576 236.817 412.078 228.416C412.367 227.547 415.061 227.257 416.215 223.394C417.658 218.373 419.005 212.192 418.524 208.33C418.139 205.046 416.792 202.632 414.098 199.735C409.865 195.1 403.13 193.845 398.416 193.458C393.701 193.072 383.888 196.742 382.829 204.757Z" fill="#263238"/>
<path d="M411.501 228.029C411.885 226.484 413.425 225.519 414.964 225.905C416.792 226.388 418.717 227.836 417.851 231.699C416.407 238.555 409.865 235.658 409.865 235.465C409.865 235.465 410.923 230.927 411.501 228.029Z" fill="#FFBF9D"/>
<path d="M411.885 233.341C411.885 233.341 411.982 233.437 412.174 233.63C412.367 233.727 412.655 233.92 413.04 233.824C413.81 233.727 414.676 232.665 414.964 231.506C415.157 230.927 415.157 230.251 414.964 229.768C414.868 229.188 414.579 228.802 414.291 228.705C413.906 228.512 413.617 228.705 413.521 228.899C413.425 229.092 413.425 229.188 413.329 229.188C413.329 229.188 413.232 228.995 413.329 228.802C413.425 228.705 413.521 228.512 413.714 228.416C413.906 228.319 414.195 228.319 414.387 228.416C414.868 228.609 415.253 229.188 415.445 229.768C415.638 230.347 415.638 231.023 415.445 231.796C415.06 233.148 414.098 234.306 413.04 234.403C412.559 234.403 412.174 234.21 411.982 234.017C411.886 233.437 411.885 233.341 411.885 233.341Z" fill="#FF9A6C"/>
<path d="M413.81 214.703C412.848 215.186 411.789 215.572 410.635 215.476C409.576 215.379 408.422 214.51 408.422 213.448C408.422 212.965 408.614 212.386 408.422 211.999C408.133 211.516 407.363 211.516 406.786 211.42C404.766 211.227 402.938 209.489 402.841 207.461C402.168 208.137 401.013 207.847 400.34 207.267C399.666 206.592 399.282 205.722 398.801 204.95C398.32 204.177 397.55 203.405 396.684 203.308C396.203 203.308 395.626 203.501 395.145 203.405C394.279 203.115 393.99 202.053 394.086 201.087C394.086 200.121 394.182 199.059 393.509 198.48C392.932 197.9 391.873 197.997 391.104 197.997C390.238 197.997 389.179 197.611 389.179 196.742C389.179 196.259 389.372 195.873 389.757 195.583C391.104 194.134 393.605 193.748 395.337 194.907C396.395 192.782 398.897 191.334 401.302 191.527C403.707 191.72 405.92 193.458 406.69 195.776C408.422 194.714 410.635 194.521 412.463 195.39C414.291 196.162 415.734 197.9 416.119 199.832C417.851 199.735 419.679 200.701 420.448 202.246C421.218 203.791 421.026 205.819 419.967 207.171C421.026 208.137 421.892 209.489 421.699 210.937C421.507 212.386 419.775 213.544 418.524 212.868C418.909 214.124 418.139 215.476 416.985 215.959C415.83 216.345 414.387 215.765 413.81 214.607" fill="#263238"/>
<path d="M418.717 212.868C418.717 212.868 418.717 213.448 418.043 214.124C417.658 214.413 417.177 214.703 416.504 214.703C415.83 214.703 415.157 214.413 414.676 213.738H414.964C414.483 214.22 414.002 214.8 413.329 215.186C412.848 215.476 412.463 215.669 411.982 215.765C411.501 215.862 411.02 215.765 410.539 215.669C409.673 215.379 408.999 214.8 408.807 214.124C408.518 213.448 408.518 212.965 408.518 212.579C408.518 212.192 408.518 211.999 408.614 211.999C408.614 211.999 408.71 212.192 408.71 212.579C408.807 212.965 408.807 213.448 409.095 214.027C409.576 215.089 411.597 216.055 413.232 214.896C413.906 214.51 414.387 214.027 414.868 213.544L415.061 213.351L415.157 213.544C415.542 214.027 416.119 214.317 416.696 214.413C417.273 214.413 417.754 214.22 418.043 214.027C418.524 213.351 418.62 212.868 418.717 212.868Z" fill="#455A64"/>
<path d="M408.614 194.714C408.614 194.714 408.422 194.714 408.133 194.81C407.845 194.907 407.364 195.1 406.882 195.486L406.786 195.583L406.69 195.39C406.209 194.424 405.343 193.072 403.9 192.106C403.13 191.624 402.264 191.237 401.302 191.044C400.34 190.851 399.282 190.948 398.223 191.334C397.454 191.624 396.78 192.106 396.203 192.686C395.626 193.265 395.241 193.941 395.048 194.617L394.952 194.81L394.76 194.714C393.798 194.231 392.739 194.231 391.873 194.521C391.007 194.81 390.43 195.39 390.045 195.873C389.276 196.935 389.276 197.9 389.276 197.804C389.276 197.804 389.276 197.611 389.276 197.224C389.372 196.838 389.468 196.259 389.853 195.679C390.238 195.1 390.911 194.424 391.777 194.134C392.643 193.845 393.894 193.748 394.952 194.231L394.663 194.327C394.856 193.555 395.241 192.879 395.914 192.203C396.492 191.624 397.261 191.141 398.127 190.754C399.185 190.368 400.34 190.272 401.398 190.465C402.457 190.658 403.323 191.141 404.092 191.624C405.632 192.686 406.498 194.134 406.882 195.1H406.69C407.171 194.617 407.748 194.424 408.037 194.424C408.422 194.714 408.614 194.714 408.614 194.714Z" fill="#455A64"/>
<path d="M299.798 325.08C299.798 325.08 300.471 317.644 303.839 315.52C307.206 313.395 316.154 311.56 316.154 311.56L319.714 322.183L313.749 329.715L299.798 325.08Z" fill="#FFBF9D"/>
<path d="M280.075 433.525L280.844 456.412C280.844 456.412 258.042 464.427 257.849 468.676L302.011 469.159L302.203 433.429L280.075 433.525Z" fill="#263238"/>
<path d="M294.41 454.577C295.276 454.77 295.853 455.832 295.661 456.701C295.468 457.57 294.506 458.15 293.64 457.957C292.775 457.764 292.005 456.605 292.293 455.736C292.582 454.867 293.737 454.191 294.603 454.673" fill="#E0E0E0"/>
<path d="M302.107 469.159V466.358L259.293 466.744C259.293 466.744 257.849 467.613 257.753 468.965L302.107 469.159Z" fill="#455A64"/>
<path d="M280.652 456.508C280.652 456.701 281.71 456.798 282.768 457.57C283.827 458.246 284.404 459.212 284.596 459.116C284.789 459.116 284.5 457.764 283.153 456.895C281.903 456.122 280.652 456.315 280.652 456.508Z" fill="#455A64"/>
<path d="M276.034 458.44C275.937 458.633 276.899 459.019 277.669 459.985C278.439 460.854 278.631 461.916 278.824 461.916C279.016 461.916 279.209 460.661 278.246 459.502C277.284 458.343 276.034 458.246 276.034 458.44Z" fill="#455A64"/>
<path d="M273.34 464.041C273.532 464.041 273.821 462.978 273.243 461.819C272.666 460.661 271.704 460.178 271.608 460.371C271.512 460.564 272.185 461.24 272.57 462.206C273.051 463.171 273.147 464.041 273.34 464.041Z" fill="#455A64"/>
<path d="M281.037 451.294C281.133 451.487 282.095 451.197 283.346 451.294C284.596 451.39 285.559 451.776 285.655 451.583C285.751 451.39 284.885 450.618 283.442 450.521C281.999 450.424 280.94 451.1 281.037 451.294Z" fill="#455A64"/>
<path d="M280.267 446.369C280.267 446.465 281.133 446.562 282.48 446.369C283.153 446.272 283.923 445.982 284.789 445.693C285.174 445.5 285.655 445.306 286.04 445.017C286.232 444.92 286.521 444.727 286.713 444.534C287.002 444.341 287.098 443.761 286.809 443.375C286.617 442.989 286.136 442.892 285.847 442.892C285.559 442.892 285.27 442.989 284.981 442.989C284.5 443.085 284.019 443.278 283.634 443.472C282.768 443.858 282.095 444.341 281.614 444.824C280.556 445.789 280.267 446.562 280.267 446.658C280.363 446.755 280.844 446.079 281.903 445.21C282.384 444.824 283.057 444.437 283.923 444.051C284.308 443.858 284.789 443.761 285.174 443.665C285.655 443.568 286.04 443.568 286.136 443.761C286.136 443.858 286.232 443.858 286.04 444.051C285.943 444.148 285.751 444.341 285.559 444.437C285.174 444.727 284.789 444.92 284.404 445.113C283.634 445.5 282.865 445.789 282.287 445.982C281.133 446.175 280.267 446.272 280.267 446.369Z" fill="#455A64"/>
<path d="M261.313 389.201L250.537 409.383C250.537 409.383 226.869 404.845 224.464 408.418L262.371 431.111L280.363 400.306L261.313 389.201Z" fill="#263238"/>
<path d="M263.141 414.501C263.815 415.177 263.815 416.24 263.141 416.916C262.564 417.592 261.409 417.592 260.736 417.012C260.062 416.336 260.062 414.984 260.736 414.405C261.409 413.825 262.756 413.825 263.237 414.598" fill="#E0E0E0"/>
<path d="M262.468 431.014L263.911 428.6L226.677 407.355C226.677 407.355 225.041 407.355 224.271 408.514L262.468 431.014Z" fill="#455A64"/>
<path d="M250.152 409.287C250.056 409.48 250.922 410.156 251.499 411.218C252.077 412.377 252.077 413.439 252.365 413.439C252.558 413.536 252.943 412.184 252.173 410.832C251.499 409.576 250.249 409.094 250.152 409.287Z" fill="#455A64"/>
<path d="M245.149 408.611C244.957 408.804 245.63 409.576 245.823 410.735C246.015 411.894 245.727 412.86 245.919 412.956C246.111 413.053 246.881 412.087 246.592 410.639C246.4 409.19 245.342 408.418 245.149 408.611Z" fill="#455A64"/>
<path d="M240.05 412.184C240.242 412.28 241.012 411.508 241.108 410.252C241.205 408.9 240.627 408.031 240.435 408.128C240.242 408.224 240.531 409.094 240.339 410.156C240.339 411.218 239.858 411.991 240.05 412.184Z" fill="#455A64"/>
<path d="M253.135 404.941C253.135 405.134 254.097 405.424 255.155 406.1C256.214 406.776 256.791 407.645 256.983 407.549C257.176 407.452 256.791 406.293 255.54 405.521C254.386 404.651 253.135 404.748 253.135 404.941Z" fill="#455A64"/>
<path d="M254.963 400.306C254.963 400.403 255.637 400.885 256.887 401.465C257.561 401.754 258.33 401.948 259.293 402.044C259.774 402.141 260.255 402.141 260.736 402.141C261.024 402.141 261.217 402.141 261.602 402.044C261.89 401.948 262.371 401.561 262.275 401.078C262.275 400.692 261.987 400.306 261.698 400.209C261.409 400.016 261.121 399.92 260.928 399.92C260.447 399.727 259.966 399.727 259.485 399.63C258.523 399.533 257.753 399.63 256.983 399.727C255.637 400.016 254.867 400.596 254.963 400.596C255.059 400.692 255.829 400.403 257.08 400.209C257.753 400.113 258.523 400.113 259.389 400.209C259.774 400.306 260.255 400.402 260.736 400.499C261.217 400.596 261.602 400.789 261.602 401.078C261.602 401.175 261.602 401.175 261.409 401.272C261.217 401.368 261.024 401.368 260.832 401.368C260.351 401.368 259.87 401.368 259.485 401.368C258.619 401.272 257.849 401.175 257.176 400.982C255.733 400.596 254.963 400.209 254.963 400.306Z" fill="#263238"/>
<path d="M399.955 355.402C399.955 354.919 399.859 354.629 399.859 354.629L399.955 355.402Z" fill="#263238"/>
<path d="M400.629 355.402L349.925 336.378C349.925 336.378 320.003 322.376 309.034 319.286C297.393 316.099 286.809 324.887 280.363 338.503C275.937 347.773 251.403 405.424 251.403 405.424L270.934 418.074L309.9 348.353L366.858 385.435C366.858 385.435 378.115 385.241 388.987 385.241C398.801 385.338 401.014 359.941 400.629 355.402Z" fill="#263238"/>
<path d="M276.707 452.646L283.827 373.653C283.827 373.653 285.078 357.237 294.506 353.954C303.935 350.67 315 352.022 315 352.022L368.013 385.628L313.653 386.593C313.653 386.593 310.862 398.085 310.093 403.106C309.131 409.094 302.107 453.901 302.107 453.901L276.707 452.646Z" fill="#263238"/>
<path d="M366.858 382.538C366.858 382.538 366.762 382.441 366.569 382.344C366.377 382.248 366.185 382.055 365.8 381.862C365.126 381.475 364.164 380.896 362.913 380.123C360.412 378.578 356.756 376.454 352.138 373.653C347.519 370.949 341.939 367.57 335.685 363.9C332.51 362.065 329.239 360.037 325.679 358.009C323.947 356.947 322.119 355.885 320.291 354.823C318.463 353.76 316.539 352.698 314.615 351.636C312.306 351.539 309.804 351.443 307.206 351.443C304.031 351.636 300.856 351.926 297.681 352.698C296.912 352.891 296.046 353.084 295.276 353.471C294.506 353.857 293.737 354.243 293.063 354.726L292.005 355.499L291.524 355.885L291.043 356.368L290.081 357.237C289.792 357.527 289.503 357.913 289.215 358.203C287.29 360.52 285.847 363.321 284.981 366.121C284.019 368.922 283.538 371.819 283.346 374.716C282.865 380.413 282.384 385.917 281.902 391.132C280.94 401.561 280.171 411.025 279.401 418.943C278.727 426.862 278.15 433.235 277.765 437.678C277.573 439.899 277.477 441.637 277.38 442.796C277.38 443.375 277.284 443.761 277.284 444.148C277.284 444.437 277.284 444.63 277.284 444.63C277.284 444.63 277.284 444.437 277.38 444.148C277.38 443.858 277.477 443.375 277.477 442.796C277.573 441.637 277.765 439.899 277.958 437.678C278.343 433.235 279.016 426.862 279.69 418.943C280.459 411.025 281.325 401.658 282.191 391.132C282.672 385.917 283.153 380.413 283.731 374.716C283.923 371.915 284.404 369.018 285.366 366.218C286.232 363.417 287.579 360.713 289.503 358.396C289.792 358.106 290.081 357.72 290.369 357.43L291.235 356.561L291.716 356.175L292.197 355.788L293.159 355.016C293.833 354.533 294.603 354.243 295.276 353.857C296.046 353.567 296.815 353.374 297.585 353.181C300.76 352.408 303.935 352.119 307.014 351.926C309.515 352.022 312.017 352.119 314.422 352.119H314.326C316.25 353.181 318.078 354.243 320.003 355.305C321.831 356.368 323.659 357.43 325.391 358.492C328.854 360.52 332.222 362.548 335.397 364.383C341.747 368.052 347.231 371.336 351.849 374.136C356.467 376.84 360.123 378.965 362.625 380.51C363.875 381.282 364.838 381.765 365.511 382.151C365.8 382.344 366.088 382.441 366.281 382.538C366.762 382.538 366.858 382.538 366.858 382.538Z" fill="#455A64"/>
<path d="M356.179 315.906L341.65 318.9L328.95 323.149L350.406 336.475L354.062 328.073L356.179 315.906Z" fill="#2360A6"/>
<path d="M408.903 252.558C408.903 252.558 420.545 268.491 416.311 289.35C412.078 310.208 405.054 350.96 404.862 355.499C404.67 359.168 402.649 358.878 402.649 358.878L350.502 337.054L361.47 292.633L377.923 262.408L380.424 254.682L407.652 247.536L408.903 252.558Z" fill="#2360A6"/>
<path d="M352.619 330.294C352.619 330.294 353.388 339.565 353.485 340.724C353.581 341.883 351.945 345.649 351.945 347.773C351.945 349.898 352.619 351.926 351.657 352.505C350.791 353.181 348.578 352.602 348.193 351.153C347.712 349.608 348.097 344.973 348.097 344.973L346.846 349.125L346.461 356.851C346.461 356.851 346.269 358.106 344.825 357.913C343.478 357.816 342.613 356.657 342.613 356.657C342.613 356.657 340.977 356.947 340.207 355.112C340.207 355.112 337.706 355.788 337.032 351.539C337.032 351.539 335.878 351.829 335.204 350.767C334.531 349.608 333.184 346.808 333.184 346.808C333.184 346.808 333.472 336.571 334.242 334.35C334.916 332.129 341.362 324.597 341.362 324.597C341.362 324.597 348 325.176 350.694 324.983L352.619 330.294Z" fill="#FFBF9D"/>
<path d="M343.575 338.889C343.575 338.889 343.478 339.082 343.286 339.468C343.094 339.855 342.901 340.434 342.613 341.207C342.131 342.655 341.65 344.876 341.554 347.194C341.458 349.608 341.65 351.732 341.939 353.278C342.131 354.05 342.228 354.629 342.42 355.112C342.516 355.499 342.613 355.788 342.613 355.788C342.709 355.788 342.42 354.823 342.228 353.278C341.939 351.732 341.747 349.608 341.939 347.194C342.035 344.876 342.516 342.752 342.901 341.207C343.286 339.855 343.671 338.889 343.575 338.889Z" fill="#FF9A6C"/>
<path d="M338.764 338.406C338.764 338.406 338.668 338.599 338.572 339.082C338.475 339.468 338.379 340.048 338.283 340.82C338.091 342.269 337.802 344.393 337.802 346.711C337.898 349.029 338.379 351.057 338.956 352.505C339.245 353.181 339.534 353.76 339.822 354.05C340.015 354.436 340.207 354.63 340.207 354.533C340.303 354.533 339.726 353.76 339.245 352.312C338.764 350.96 338.283 348.932 338.187 346.614C338.091 344.297 338.379 342.269 338.475 340.82C338.764 339.372 338.86 338.406 338.764 338.406Z" fill="#FF9A6C"/>
<path d="M336.744 338.116C336.647 338.116 336.647 338.889 336.455 340.048C336.263 341.207 335.974 342.848 335.781 344.683C335.685 346.518 335.878 348.256 336.263 349.318C336.455 349.898 336.647 350.381 336.84 350.67C337.032 350.96 337.128 351.153 337.128 351.056C337.225 351.056 336.84 350.381 336.455 349.222C336.166 348.063 335.974 346.421 336.07 344.683C336.166 342.848 336.455 341.207 336.551 340.048C336.84 338.792 336.84 338.116 336.744 338.116Z" fill="#FF9A6C"/>
<g opacity="0.3">
<path d="M328.084 325.176C328.084 325.176 336.744 327.591 342.131 329.039C347.616 330.488 350.502 330.874 353.388 329.618C356.275 328.363 367.532 322.666 370.226 320.638C373.882 317.837 386.774 308.47 389.179 305.959C393.605 301.228 399.955 293.792 399.955 293.792L349.155 321.7L329.335 322.859L328.084 325.176Z" fill="#404D61"/>
</g>
<path d="M408.999 273.899C408.807 273.03 408.229 271.485 407.845 270.712C402.938 260.283 385.908 266.27 378.788 272.644C372.342 278.341 347.616 306.056 347.616 306.056L315.577 311.56L319.137 323.535C319.137 323.535 325.583 325.37 333.953 326.239C344.825 327.397 346.557 327.687 352.619 326.142C358.199 324.79 376.768 311.947 387.159 304.414C397.261 296.979 411.308 286.067 408.999 273.899Z" fill="#2360A6"/>
<path d="M408.999 273.899C408.999 273.899 408.999 274.092 409.095 274.478C409.095 274.864 409.192 275.444 409.288 276.216C409.288 277.761 409.192 279.982 408.133 282.686C407.075 285.39 405.151 288.384 402.457 291.474C399.763 294.564 396.299 297.654 392.162 300.841C388.121 304.028 383.503 307.311 378.5 310.787C373.497 314.264 368.109 317.933 362.336 321.506C360.893 322.376 359.354 323.245 357.814 324.114C356.275 324.983 354.735 325.755 352.907 326.335C351.175 326.818 349.347 327.204 347.519 327.397C345.691 327.59 343.767 327.494 341.939 327.3C340.111 327.204 338.187 326.914 336.263 326.721C334.338 326.528 332.414 326.335 330.586 326.045C326.738 325.466 322.889 324.79 319.041 323.727H318.944V323.631C318.367 321.7 317.694 319.575 317.116 317.451C316.539 315.519 315.962 313.588 315.384 311.657L315.288 311.367H315.577C326.834 309.436 337.61 307.601 347.616 305.863L347.519 305.959C355.505 297.075 363.01 288.867 369.841 281.624C371.573 279.789 373.208 278.051 374.844 276.409C376.479 274.768 378.019 273.126 379.751 271.774C383.214 269.07 386.967 267.429 390.43 266.27C393.894 265.208 397.261 264.821 400.051 265.208C401.495 265.401 402.745 265.787 403.804 266.366C404.862 266.946 405.728 267.718 406.401 268.491C407.748 270.036 408.23 271.581 408.518 272.45C408.711 272.933 408.807 273.319 408.903 273.609C408.999 273.802 408.999 273.899 408.999 273.899C408.999 273.899 408.999 273.802 408.903 273.512C408.807 273.223 408.711 272.933 408.518 272.45C408.133 271.484 407.652 270.036 406.305 268.491C405.054 267.042 402.842 265.69 400.051 265.304C397.261 264.918 393.99 265.304 390.526 266.463C387.063 267.525 383.407 269.263 380.039 271.967C378.307 273.319 376.768 274.961 375.132 276.603C373.497 278.244 371.861 279.982 370.129 281.817C363.298 289.06 355.794 297.268 347.808 306.249L347.712 306.345H347.616C337.61 308.084 326.834 309.918 315.577 311.85L315.769 311.56C316.347 313.491 316.924 315.423 317.501 317.354C318.175 319.479 318.752 321.603 319.329 323.534L319.137 323.341C322.985 324.307 326.834 325.079 330.682 325.659C332.607 325.949 334.531 326.142 336.359 326.335C338.283 326.528 340.111 326.721 341.939 326.914C343.767 327.011 345.595 327.107 347.423 327.011C349.251 326.818 350.983 326.528 352.715 326.045C354.351 325.562 355.986 324.693 357.526 323.824C359.065 322.955 360.508 322.086 362.048 321.217C367.916 317.644 373.304 313.974 378.211 310.594C383.214 307.118 387.832 303.835 391.873 300.744C395.914 297.654 399.474 294.468 402.168 291.474C404.862 288.48 406.786 285.487 407.845 282.783C408.999 280.079 408.999 277.858 409.095 276.409C408.999 275.637 408.999 275.154 408.903 274.671C408.999 274.092 408.999 273.899 408.999 273.899Z" fill="#263238"/>
<path d="M408.422 252.268C408.422 252.268 408.326 252.268 408.133 252.365C407.845 252.461 407.556 252.558 407.267 252.751C406.401 253.137 405.247 253.62 403.9 254.199C401.11 255.358 397.165 257 392.643 258.448C389.083 259.704 385.716 260.669 383.022 261.442L383.214 261.538C382.156 259.704 381.579 258.062 381.194 257C381.001 256.42 380.905 255.938 380.809 255.648C380.713 255.358 380.713 255.165 380.713 255.165C380.713 255.165 380.713 255.358 380.713 255.648C380.713 255.938 380.809 256.42 381.001 257C381.29 258.159 381.867 259.897 382.926 261.732L383.022 261.828H383.118C385.812 261.152 389.179 260.186 392.835 258.931C397.261 257.386 401.206 255.841 403.996 254.586C405.439 254.006 406.498 253.427 407.267 253.04C407.652 252.847 407.941 252.751 408.133 252.558C408.326 252.268 408.422 252.268 408.422 252.268Z" fill="#263238"/>
<path d="M402.649 386.014H407.363C409.865 386.014 411.885 384.179 412.174 381.765C413.136 374.136 414.964 352.795 414.964 352.602L411.597 352.312C411.597 352.505 409.769 373.75 408.807 381.379C408.71 382.151 408.037 382.731 407.267 382.731H402.553V386.014H402.649Z" fill="#E0E0E0"/>
<path d="M402.649 386.014C402.649 386.014 402.649 385.917 402.649 385.821C402.649 385.628 402.649 385.435 402.649 385.145C402.649 384.565 402.649 383.696 402.649 382.634L402.553 382.731C403.323 382.731 404.188 382.731 405.151 382.731C405.632 382.731 406.113 382.731 406.69 382.731C406.979 382.731 407.267 382.731 407.556 382.731C407.845 382.634 408.133 382.537 408.422 382.248C408.614 382.055 408.807 381.765 408.903 381.379C408.903 381.089 408.999 380.703 408.999 380.413C409.095 379.737 409.095 379.061 409.192 378.385C409.288 377.033 409.48 375.488 409.673 373.943C410.25 367.763 411.02 360.23 411.789 352.119L411.597 352.312C412.367 352.408 413.232 352.408 414.098 352.505C414.387 352.505 414.676 352.602 414.964 352.602L414.772 352.408C413.714 363.707 412.751 373.943 412.078 381.282C411.982 383.117 410.827 384.565 409.48 385.145C408.229 385.821 406.882 385.628 405.92 385.724C404.958 385.724 404.092 385.724 403.515 385.724C403.226 385.724 403.034 385.724 402.842 385.724C402.649 386.014 402.649 386.014 402.649 386.014C402.649 386.014 402.745 386.014 402.842 386.014C403.034 386.014 403.226 386.014 403.419 386.014C403.996 386.014 404.766 386.014 405.824 386.014C406.305 386.014 406.882 386.014 407.556 386.014C408.229 386.014 408.903 385.821 409.576 385.531C410.923 384.855 412.174 383.407 412.27 381.475C412.944 374.04 414.002 363.9 415.06 352.602V352.408H414.868C414.579 352.408 414.291 352.312 414.002 352.312C413.136 352.215 412.27 352.119 411.501 352.119H411.308V352.312C410.538 360.424 409.865 367.859 409.288 374.136C409.192 375.681 408.999 377.13 408.903 378.578C408.807 379.254 408.807 379.93 408.71 380.606C408.71 380.896 408.614 381.282 408.614 381.572C408.518 381.862 408.422 382.151 408.229 382.344C408.037 382.537 407.748 382.634 407.556 382.731C407.267 382.827 406.979 382.731 406.786 382.731C406.209 382.731 405.728 382.731 405.247 382.731C404.285 382.731 403.419 382.731 402.649 382.731H402.553V382.827C402.553 383.889 402.553 384.759 402.553 385.338C402.553 385.628 402.553 385.821 402.553 386.014C402.553 385.917 402.649 386.014 402.649 386.014Z" fill="#263238"/>
<path d="M328.181 390.07H402.745C405.535 390.07 407.748 388.235 407.748 385.917C407.748 383.6 405.535 381.765 402.745 381.765H328.181C325.391 381.765 323.178 383.6 323.178 385.917C323.178 388.235 325.487 390.07 328.181 390.07Z" fill="#455A64"/>
<path d="M418.717 355.112L428.915 274.961C429.3 272.161 427.28 269.65 424.586 269.36C421.795 268.974 419.294 271.002 419.005 273.706L408.807 353.857C408.422 356.657 410.442 359.168 413.136 359.458C415.83 359.844 418.332 357.816 418.717 355.112Z" fill="#455A64"/>
<path d="M328.758 386.98L317.597 468.869H322.023L338.572 390.07L328.758 386.98Z" fill="#455A64"/>
<path d="M401.879 386.98L412.751 468.869H408.326L391.97 390.07L401.879 386.98Z" fill="#455A64"/>
<path d="M328.181 390.07C328.181 390.166 345.114 390.263 365.992 390.263C386.87 390.263 403.804 390.166 403.804 390.07C403.804 389.973 386.87 389.877 365.992 389.877C345.114 389.877 328.181 389.973 328.181 390.07Z" fill="#263238"/>
</g>
<path d="M355.979 4.11435C343.056 8.21572 310.352 39.6983 302.848 74.9556C295.343 110.213 330.467 120.316 335.817 114.052C341.167 107.788 316.531 78.761 290.999 102.485C278.148 114.426 266.987 140.359 270.603 152.996" stroke="#2360A6" stroke-linecap="square" stroke-linejoin="round"/>
<defs>
<linearGradient id="paint0_linear_4626_2100" x1="200.655" y1="-144.249" x2="241.957" y2="436.875" gradientUnits="userSpaceOnUse">
<stop stop-color="#2360A6"/>
<stop offset="1" stop-color="white" stop-opacity="0"/>
</linearGradient>
<clipPath id="clip0_4626_2100">
<rect width="442" height="422" fill="white" transform="translate(0 68.0172)"/>
</clipPath>
</defs>
</svg>
