<svg width="12" height="11" viewBox="0 0 12 11" fill="none" xmlns="http://www.w3.org/2000/svg">
    <path d="M9.10024 3.17257V2.18455H8.11221V1.19652H9.10024V0.208496H10.0883V1.19652H11.0763V2.18455H10.0883V3.17257H9.10024ZM5.14814 8.35971C5.76565 8.35971 6.29054 8.14358 6.7228 7.71131C7.15506 7.27905 7.37119 6.75417 7.37119 6.13665C7.37119 5.51913 7.15506 4.99424 6.7228 4.56198C6.29054 4.12972 5.76565 3.91359 5.14814 3.91359C4.53062 3.91359 4.00573 4.12972 3.57347 4.56198C3.14121 4.99424 2.92508 5.51913 2.92508 6.13665C2.92508 6.75417 3.14121 7.27905 3.57347 7.71131C4.00573 8.14358 4.53062 8.35971 5.14814 8.35971ZM5.14814 7.37168C4.80233 7.37168 4.51004 7.25229 4.27126 7.01352C4.03249 6.77475 3.9131 6.48246 3.9131 6.13665C3.9131 5.79084 4.03249 5.49855 4.27126 5.25978C4.51004 5.021 4.80233 4.90162 5.14814 4.90162C5.49394 4.90162 5.78624 5.021 6.02501 5.25978C6.26378 5.49855 6.38317 5.79084 6.38317 6.13665C6.38317 6.48246 6.26378 6.77475 6.02501 7.01352C5.78624 7.25229 5.49394 7.37168 5.14814 7.37168ZM1.19603 10.0888C0.924326 10.0888 0.691729 9.99201 0.49824 9.79852C0.304752 9.60503 0.208008 9.37243 0.208008 9.10073V3.17257C0.208008 2.90087 0.304752 2.66827 0.49824 2.47478C0.691729 2.28129 0.924326 2.18455 1.19603 2.18455H2.75217L3.6661 1.19652H7.12419V3.17257H8.11221V4.1606H10.0883V9.10073C10.0883 9.37243 9.99152 9.60503 9.79803 9.79852C9.60454 9.99201 9.37194 10.0888 9.10024 10.0888H1.19603Z" fill="#2360A6"/>
</svg>
