<svg width="26" height="26" viewBox="0 0 26 26" fill="none" xmlns="http://www.w3.org/2000/svg">
    <path fill-rule="evenodd" clip-rule="evenodd" d="M0 13.1428C0 9.73292 1.35459 6.46266 3.76577 4.05148C6.17695 1.64029 9.44722 0.285706 12.8571 0.285706C16.2671 0.285706 19.5373 1.64029 21.9485 4.05148C24.3597 6.46266 25.7143 9.73292 25.7143 13.1428C25.7143 16.5528 24.3597 19.823 21.9485 22.2342C19.5373 24.6454 16.2671 26 12.8571 26C9.44722 26 6.17695 24.6454 3.76577 22.2342C1.35459 19.823 0 16.5528 0 13.1428H0ZM12.1234 18.6457L19.5257 9.39199L18.1886 8.32228L11.8766 16.2097L7.40571 12.4846L6.30857 13.8011L12.1234 18.6474V18.6457Z" fill="#60BB47"/>
</svg>
