<svg width="18" height="18" viewBox="0 0 18 18" fill="none" xmlns="http://www.w3.org/2000/svg">
    <path d="M11.0833 4.41667C11.6976 4.53652 12.3074 4.80744 12.7499 5.25C13.1925 5.69256 13.4634 6.30237 13.5833 6.91667M11.4999 1.5C12.7762 1.64178 13.9247 2.25922 14.8333 3.16667C15.7419 4.07411 16.3566 5.22391 16.5 6.5M16.4995 12.7306V14.9887C16.503 15.8519 15.7268 16.5727 14.8553 16.4941C7.33333 16.5 1.5 10.6125 1.50589 3.14099C1.4274 2.27412 2.14465 1.50088 3.00676 1.50007H5.26937C5.63539 1.49648 5.99024 1.62584 6.26776 1.86403C7.05678 2.54124 7.56427 4.83981 7.36901 5.75357C7.21656 6.46697 6.49742 6.96608 6.0085 7.45403C7.08215 9.33849 8.64554 10.8988 10.5337 11.9703C11.0227 11.4824 11.5228 10.7646 12.2376 10.6125C13.1546 10.4173 15.4679 10.9255 16.1424 11.72C16.3816 12.0018 16.5087 12.3614 16.4995 12.7306Z" stroke="current" stroke-width="1.3" stroke-linecap="round" stroke-linejoin="round"/>
</svg>
