<svg width="40" height="26" viewBox="0 0 40 26" fill="none" xmlns="http://www.w3.org/2000/svg">
    <path d="M4.25 25.25C3.2875 25.25 2.46354 24.9073 1.77813 24.2219C1.09271 23.5365 0.75 22.7125 0.75 21.75V4.25C0.75 3.2875 1.09271 2.46354 1.77813 1.77813C2.46354 1.09271 3.2875 0.75 4.25 0.75H21.75C22.7125 0.75 23.5365 1.09271 24.2219 1.77813C24.9073 2.46354 25.25 3.2875 25.25 4.25V21.75C25.25 22.7125 24.9073 23.5365 24.2219 24.2219C23.5365 24.9073 22.7125 25.25 21.75 25.25H4.25ZM30.5 11.25C30.0042 11.25 29.5885 11.0823 29.2531 10.7469C28.9177 10.4115 28.75 9.99583 28.75 9.5V2.5C28.75 2.00417 28.9177 1.58854 29.2531 1.25313C29.5885 0.917708 30.0042 0.75 30.5 0.75H37.5C37.9958 0.75 38.4115 0.917708 38.7469 1.25313C39.0823 1.58854 39.25 2.00417 39.25 2.5V9.5C39.25 9.99583 39.0823 10.4115 38.7469 10.7469C38.4115 11.0823 37.9958 11.25 37.5 11.25H30.5ZM6 18.25H20L15.4062 12.125L12.125 16.5L9.71875 13.3063L6 18.25ZM30.5 25.25C30.0042 25.25 29.5885 25.0823 29.2531 24.7469C28.9177 24.4115 28.75 23.9958 28.75 23.5V16.5C28.75 16.0042 28.9177 15.5885 29.2531 15.2531C29.5885 14.9177 30.0042 14.75 30.5 14.75H37.5C37.9958 14.75 38.4115 14.9177 38.7469 15.2531C39.0823 15.5885 39.25 16.0042 39.25 16.5V23.5C39.25 23.9958 39.0823 24.4115 38.7469 24.7469C38.4115 25.0823 37.9958 25.25 37.5 25.25H30.5Z" fill="#8C94A0"/>
</svg>
