<svg width="16" height="16" viewBox="0 0 16 16" fill="none" xmlns="http://www.w3.org/2000/svg">
    <path d="M8 0C5.87827 0 3.84344 0.842855 2.34315 2.34315C0.842855 3.84344 0 5.87827 0 8C0 10.1217 0.842855 12.1566 2.34315 13.6569C3.84344 15.1571 5.87827 16 8 16C10.1217 16 12.1566 15.1571 13.6569 13.6569C15.1571 12.1566 16 10.1217 16 8C16 5.87827 15.1571 3.84344 13.6569 2.34315C12.1566 0.842855 10.1217 0 8 0ZM12.561 10.9152L10.9143 12.5619L8 9.64667L5.08476 12.561L3.4381 10.9143L6.35429 8L3.43905 5.08476L5.08571 3.43905L8 6.35333L10.9152 3.4381L12.5619 5.08476L9.64571 8L12.561 10.9152Z" fill="#C6CAD0"/>
</svg>
