<svg width="14" height="19" viewBox="0 0 14 19" fill="none" xmlns="http://www.w3.org/2000/svg">
    <path d="M1.58301 18.3333C1.23926 18.3333 0.944987 18.2109 0.700195 17.9661C0.455404 17.7213 0.333008 17.427 0.333008 17.0833V8.04159C0.333008 7.69784 0.455404 7.40356 0.700195 7.15877C0.944987 6.91398 1.23926 6.79159 1.58301 6.79159H3.04134V4.79159C3.04134 3.69645 3.42749 2.76294 4.1998 1.99106C4.97211 1.21919 5.90613 0.833252 7.00188 0.833252C8.09763 0.833252 9.03092 1.21919 9.80176 1.99106C10.5726 2.76294 10.958 3.69645 10.958 4.79159V6.79159H12.4163C12.7601 6.79159 13.0544 6.91398 13.2992 7.15877C13.5439 7.40356 13.6663 7.69784 13.6663 8.04159V17.0833C13.6663 17.427 13.5439 17.7213 13.2992 17.9661C13.0544 18.2109 12.7601 18.3333 12.4163 18.3333H1.58301ZM1.58301 17.0833H12.4163V8.04159H1.58301V17.0833ZM7.00317 14.1666C7.44529 14.1666 7.82259 14.0136 8.13509 13.7076C8.44759 13.4016 8.60384 13.0338 8.60384 12.6041C8.60384 12.1874 8.44642 11.8089 8.13159 11.4687C7.81676 11.1284 7.43829 10.9583 6.99617 10.9583C6.55406 10.9583 6.17676 11.1284 5.86426 11.4687C5.55176 11.8089 5.39551 12.1909 5.39551 12.6145C5.39551 13.0381 5.55292 13.4027 5.86776 13.7083C6.18259 14.0138 6.56106 14.1666 7.00317 14.1666ZM4.29134 6.79159H9.70801V4.79159C9.70801 4.03927 9.44494 3.3998 8.9188 2.87319C8.39265 2.34656 7.75376 2.08325 7.00213 2.08325C6.25049 2.08325 5.61079 2.34656 5.08301 2.87319C4.55523 3.3998 4.29134 4.03927 4.29134 4.79159V6.79159Z" fill="#404D61"/>
</svg>
