<svg width="16" height="16" viewBox="0 0 16 16" fill="none" xmlns="http://www.w3.org/2000/svg">
    <mask id="mask0_4714_1296" style="mask-type:alpha" maskUnits="userSpaceOnUse" x="0" y="0" width="16" height="16">
        <rect width="16" height="16" fill="#D9D9D9"/>
    </mask>
    <g mask="url(#mask0_4714_1296)">
        <path d="M2.87213 14.3333C2.53537 14.3333 2.25033 14.2167 2.01699 13.9833C1.78366 13.75 1.66699 13.4649 1.66699 13.1282V6.20515C1.66699 5.8684 1.78366 5.58335 2.01699 5.35002C2.25033 5.11669 2.53537 5.00002 2.87213 5.00002H6.33366V2.66667C6.33366 2.38976 6.43109 2.15387 6.62596 1.95899C6.82084 1.76412 7.05673 1.66669 7.33364 1.66669H8.66698C8.94389 1.66669 9.17978 1.76412 9.37466 1.95899C9.56953 2.15387 9.66696 2.38976 9.66696 2.66667V5.00002H13.1285C13.4652 5.00002 13.7503 5.11669 13.9836 5.35002C14.217 5.58335 14.3336 5.8684 14.3336 6.20515V13.1282C14.3336 13.4649 14.217 13.75 13.9836 13.9833C13.7503 14.2167 13.4652 14.3333 13.1285 14.3333H2.87213ZM2.87213 13.3333H13.1285C13.1883 13.3333 13.2375 13.3141 13.2759 13.2756C13.3144 13.2372 13.3336 13.188 13.3336 13.1282V6.20515C13.3336 6.14532 13.3144 6.09617 13.2759 6.0577C13.2375 6.01924 13.1883 6 13.1285 6H9.66696V6.25644C9.66696 6.52908 9.56845 6.7639 9.37144 6.9609C9.17444 7.1579 8.93962 7.2564 8.66698 7.2564H7.33364C7.061 7.2564 6.82618 7.1579 6.62918 6.9609C6.43216 6.7639 6.33366 6.52908 6.33366 6.25644V6H2.87213C2.81229 6 2.76314 6.01924 2.72468 6.0577C2.68621 6.09617 2.66698 6.14532 2.66698 6.20515V13.1282C2.66698 13.188 2.68621 13.2372 2.72468 13.2756C2.76314 13.3141 2.81229 13.3333 2.87213 13.3333ZM4.10288 11.8077H7.89774V11.6103C7.89774 11.4385 7.8503 11.2806 7.75543 11.1365C7.66056 10.9925 7.52936 10.8803 7.36184 10.8C7.1439 10.7043 6.92317 10.6325 6.69966 10.5846C6.47616 10.5368 6.24304 10.5128 6.00031 10.5128C5.75758 10.5128 5.52446 10.5368 5.30096 10.5846C5.07745 10.6325 4.85672 10.7043 4.63878 10.8C4.47125 10.8803 4.34006 10.9925 4.24519 11.1365C4.15031 11.2806 4.10288 11.4385 4.10288 11.6103V11.8077ZM9.33364 10.7949H12.0003V10H9.33364V10.7949ZM6.00031 10C6.24816 10 6.4597 9.9124 6.63493 9.73719C6.81014 9.56198 6.89774 9.35044 6.89774 9.10257C6.89774 8.85472 6.81014 8.64318 6.63493 8.46797C6.4597 8.29276 6.24816 8.20515 6.00031 8.20515C5.75245 8.20515 5.54091 8.29276 5.36569 8.46797C5.19048 8.64318 5.10288 8.85472 5.10288 9.10257C5.10288 9.35044 5.19048 9.56198 5.36569 9.73719C5.54091 9.9124 5.75245 10 6.00031 10ZM9.33364 9H12.0003V8.20515H9.33364V9ZM7.33364 6.25644H8.66698V2.66667H7.33364V6.25644Z" fill="#798290"/>
    </g>
</svg>
