<svg width="108" height="108" viewBox="0 0 108 108" fill="none" xmlns="http://www.w3.org/2000/svg">
<circle opacity="0.78" cx="54" cy="54" r="54" fill="#FCC400" fill-opacity="0.16"/>
<circle opacity="0.78" cx="54" cy="54" r="45" fill="#FCC400" fill-opacity="0.28"/>
<g clip-path="url(#clip0_3125_1067)">
<circle cx="54" cy="54" r="37" fill="#FCC400"/>
<path d="M56.5047 68.2229C57.5045 68.093 58.2945 69.0517 57.9556 69.9838C57.7785 70.4563 57.3672 70.788 56.8568 70.8543C55.6823 71.0025 54.4958 71.0378 53.3142 70.9596C48.9552 70.6717 45.0334 68.8192 42.128 65.9697C38.9599 62.8623 37 58.5692 37 53.8282C37 49.0865 38.9599 44.7941 42.128 41.6868C45.2962 38.5794 49.6727 36.6572 54.5072 36.6572C56.1833 36.6572 57.8169 36.8938 59.3738 37.3349C60.651 37.6963 61.8818 38.2004 63.0418 38.8372L62.6967 37.951C62.4088 37.2084 62.7887 36.3775 63.5452 36.0944C64.3024 35.812 65.1495 36.1847 65.4382 36.9273L66.8968 40.6706C66.9518 40.813 66.9838 40.963 66.9916 41.1151C67.1059 41.8126 66.6799 42.504 65.9715 42.7146L62.065 43.8867C61.2918 44.1164 60.4754 43.6884 60.2411 42.9307C60.0068 42.173 60.4433 41.3715 61.2158 41.1418L61.5372 41.0453C60.6114 40.5538 59.6343 40.1613 58.6229 39.8746C57.3281 39.5081 55.9476 39.3111 54.5072 39.3111C50.4201 39.3111 46.7192 40.9359 44.0412 43.5632C41.3625 46.1898 39.7059 49.8189 39.7059 53.8282C39.7059 57.8368 41.3625 61.4659 44.0412 64.0932C46.4682 66.4737 49.7347 68.0314 53.3679 68.3022C54.4068 68.3795 55.4756 68.3542 56.5047 68.2229ZM51.8271 46.8442C51.8271 46.1119 52.4329 45.5176 53.1804 45.5176C53.9271 45.5176 54.533 46.1119 54.533 46.8442V54.9217L60.17 57.352C60.8533 57.6467 61.1628 58.429 60.8623 59.0992C60.5618 59.7687 59.7642 60.073 59.0809 59.7782L52.7042 57.0292C52.1917 56.8398 51.8271 56.355 51.8271 55.7867V46.8442ZM61.2186 66.8046C60.1295 67.351 60.2746 68.9177 61.448 69.2616C61.7875 69.356 62.1257 69.3273 62.4422 69.1721C63.3151 68.7419 64.1532 68.2352 64.939 67.6663C65.3224 67.3859 65.5218 66.9441 65.4807 66.4771C65.3761 65.4452 64.1783 64.922 63.327 65.5347C62.6623 66.0161 61.957 66.441 61.2186 66.8046ZM66.7378 62.0486C66.1214 62.9499 66.8138 64.1616 67.921 64.1137C68.3539 64.0912 68.7416 63.8833 68.9842 63.5277C69.5322 62.7304 70.0057 61.8954 70.4114 61.0201C70.8026 60.1557 70.1932 59.1874 69.229 59.1471C68.6761 59.1293 68.1755 59.4322 67.9454 59.9266C67.6016 60.6686 67.2021 61.3729 66.7378 62.0486ZM69.2241 55.2431C69.1753 55.7642 69.4332 56.2524 69.8927 56.517C70.7545 56.9971 71.817 56.4596 71.9181 55.4934C72.0109 54.5346 72.0255 53.5855 71.9586 52.6247C71.9251 52.1631 71.6532 51.7562 71.2349 51.5408C70.2964 51.0635 69.1843 51.7774 69.2589 52.8107C69.3161 53.6258 69.3029 54.4293 69.2241 55.2431ZM68.1029 48.1052C68.4062 48.7911 69.2199 49.0995 69.9122 48.7863C70.5795 48.4854 70.8786 47.7189 70.5892 47.0569C70.2058 46.1755 69.7442 45.3282 69.2164 44.5213C68.5533 43.5215 66.993 43.8128 66.7517 44.9828C66.6855 45.3268 66.7482 45.6626 66.9414 45.9587C67.389 46.6439 67.778 47.3564 68.1029 48.1052Z" fill="white"/>
</g>
<defs>
<clipPath id="clip0_3125_1067">
<rect width="74" height="74" fill="white" transform="translate(17 17)"/>
</clipPath>
</defs>
</svg>
