<svg width="14" height="14" viewBox="0 0 14 14" fill="none" xmlns="http://www.w3.org/2000/svg">
    <path d="M12.9996 11.791V9.98444C13.0069 9.68913 12.9053 9.40141 12.7139 9.17603C12.1743 8.54043 10.3236 8.13385 9.59005 8.28999C9.0182 8.41171 8.61812 8.98589 8.22698 9.37625C6.71643 8.51903 5.46572 7.27079 4.6068 5.76323C4.99794 5.37286 5.57325 4.97358 5.69521 4.40285C5.85142 3.67185 5.44542 1.833 4.81421 1.29123C4.59219 1.10067 4.30832 0.997182 4.0155 1.00006H2.20541C1.51572 1.00071 0.941917 1.6193 1.00471 2.31279C1 8.28999 5.66667 13 11.6843 12.9953C12.3815 13.0582 13.0024 12.4815 12.9996 11.791Z" stroke="#798290" stroke-linecap="round" stroke-linejoin="round"/>
</svg>
