<svg width="22" height="20" viewBox="0 0 22 20" fill="none" xmlns="http://www.w3.org/2000/svg">
    <path d="M11.0002 9.99994V18.9999M11.0002 9.99994L8.50021 11.9999M11.0002 9.99994L13.5002 11.9999M4.03421 7.11694C3.08842 7.35494 2.26208 7.9301 1.71046 8.73438C1.15883 9.53867 0.919888 10.5167 1.03851 11.4847C1.15714 12.4528 1.62517 13.3442 2.35467 13.9914C3.08417 14.6387 4.02494 14.9974 5.00021 14.9999H6.00021" stroke="#404D61" stroke-width="1.5" stroke-linecap="round" stroke-linejoin="round"/>
    <path d="M14.8306 5.13796C14.4889 3.78453 13.6452 2.6117 12.4708 1.85722C11.2963 1.10274 9.87892 0.823053 8.5059 1.07487C7.13289 1.32668 5.90699 2.09115 5.07671 3.2133C4.24643 4.33545 3.87391 5.73133 4.03465 7.11796C4.03465 7.11796 4.18765 7.99996 4.50065 8.49996" stroke="#404D61" stroke-width="1.5" stroke-linecap="round" stroke-linejoin="round"/>
    <path d="M16 15C16.706 14.9995 17.404 14.8495 18.0479 14.5599C18.6917 14.2702 19.267 13.8475 19.7357 13.3195C20.2045 12.7915 20.5561 12.1702 20.7674 11.4965C20.9787 10.8229 21.045 10.1121 20.9618 9.41094C20.8786 8.70982 20.6479 8.03427 20.2848 7.42874C19.9217 6.82321 19.4345 6.30145 18.8552 5.89778C18.276 5.49412 17.6178 5.21772 16.924 5.08676C16.2302 4.9558 15.5166 4.97327 14.83 5.138L13.5 5.5" stroke="#404D61" stroke-width="1.5" stroke-linecap="round" stroke-linejoin="round"/>
</svg>
