<svg width="48" height="42" viewBox="0 0 48 42" fill="none" xmlns="http://www.w3.org/2000/svg">
    <path d="M19.5606 2.50746C21.5336 -0.83582 26.4659 -0.835821 28.4389 2.50746L47.3051 34.4776C49.2781 37.8209 46.8119 42 42.866 42H5.1335C1.18762 42 -1.27856 37.8209 0.694381 34.4776L19.5606 2.50746Z" fill="#FFA600"/>
    <path d="M25.3866 14.9573L25.118 28.6776H22.8131L22.5334 14.9573H25.3866ZM22.4551 32.8858C22.4551 32.396 22.5893 31.9863 22.8579 31.6567C23.1339 31.3183 23.5143 31.1491 23.9991 31.1491C24.4765 31.1491 24.8532 31.3183 25.1292 31.6567C25.4052 31.9863 25.5432 32.396 25.5432 32.8858C25.5432 33.3578 25.4052 33.7631 25.1292 34.1015C24.8532 34.431 24.4765 34.5958 23.9991 34.5958C23.5143 34.5958 23.1339 34.431 22.8579 34.1015C22.5893 33.7631 22.4551 33.3578 22.4551 32.8858Z" fill="white"/>
</svg>
