<?xml version="1.0" encoding="UTF-8"?> <svg xmlns="http://www.w3.org/2000/svg" xmlns:xlink="http://www.w3.org/1999/xlink" version="1.1" x="0px" y="0px" viewBox="0 0 438 62" style="enable-background:new 0 0 438 62;" xml:space="preserve"> <style type="text/css"> .st0{display:none;} .st1{display:inline;} .st2{fill:#E6E9EC;} .st3{display:inline;fill:#E6E9EC;} .st4{fill:#DD052B;} .st5{fill:#271D67;} </style> <g id="Clear_space" class="st0"> <polygon class="st3" points="0.7,59.2 44.3,59.2 44.3,70.7 15.1,70.7 15.1,81.1 44.2,81.1 44.2,92.4 15.1,92.4 15.1,104.1 44.5,104.1 44.5,115.6 0.7,115.6 "></polygon> <polygon class="st3" points="123.7,-53.6 167.3,-53.6 167.3,-42.1 138.1,-42.1 138.1,-31.7 167.2,-31.7 167.2,-20.4 138.1,-20.4 138.1,-8.7 167.5,-8.7 167.5,2.8 123.7,2.8 "></polygon> <polygon class="st3" points="206.3,2.8 249.9,2.8 249.9,14.3 220.7,14.3 220.7,24.7 249.8,24.7 249.8,36 220.7,36 220.7,47.7 250,47.7 250,59.2 206.3,59.2 "></polygon> </g> <g id="Logo"> <g> <g> <rect x="247.1" y="5.5" class="st4" width="13.1" height="51"></rect> <polygon class="st4" points="265.5,5.5 304.9,5.5 304.9,15.9 278.5,15.9 278.5,25.3 304.9,25.3 304.9,35.5 278.5,35.5 278.5,46.1 305.1,46.1 305.1,56.5 265.5,56.5 "></polygon> <polygon class="st4" points="310,5.5 323.1,5.5 323.1,45.4 347.1,45.4 347.1,56.5 310,56.5 "></polygon> <polygon class="st4" points="352,15.9 337.3,15.9 337.3,5.5 379.7,5.5 379.7,15.9 365,15.9 365,56.5 352,56.5 "></polygon> <path class="st4" d="M392.8,39.6c0.1,5.8,3.4,8.8,9.6,8.8c5.5,0,8.4-1.9,8.4-5c0-1.7-0.8-3-2-3.6c-3-1.6-8.9-2.6-16.3-5.5 c-7.4-2.9-11.2-7.8-11.2-14.1c0-9.6,7.6-16,20.4-16c12.4,0,20,6.7,20,16.8h-12.3c-0.6-4.8-3.3-7-8.6-7c-4.4,0-7.1,2.1-7.1,4.6 c0,3.8,4,4.6,12,7.2c5.9,1.9,10.1,3.3,12.6,5.2c3.3,2.7,5,6.4,5,10.8c0,9.9-7.9,16.1-22.2,16.1c-13.3,0-20.1-6-20.9-18.4H392.8z"></path> </g> <g> <g> <g> <g> <path class="st5" d="M80.6,28.8V5.5h8.6c1.8,0,3,0.3,4,0.7c2.4,1.1,3.4,3.3,3.4,5.3c0,2.2-0.9,3.8-2.8,4.9v0.1 c2.7,0.6,4.3,2.5,4.3,5.3c0,3.2-1.9,5.6-5.2,6.6c-1.2,0.4-2.4,0.5-4.5,0.5H80.6 M91.1,9.5c-0.5-0.2-1.2-0.4-2.2-0.4h-4.3v6.1 h4c1.3,0,2.1-0.2,2.6-0.5c0.9-0.5,1.4-1.4,1.4-2.5C92.7,10.9,92.1,10,91.1,9.5 M92.3,19.2c-0.6-0.2-1.3-0.4-2.7-0.4h-5.1v6.4 h4.8c1.5,0,2.3-0.2,3-0.5c1.1-0.6,1.7-1.6,1.7-2.9C94.1,20.6,93.4,19.7,92.3,19.2z"></path> <rect x="121.5" y="5.5" class="st5" width="4" height="23.3"></rect> <rect x="150.6" y="5.5" class="st5" width="4" height="23.3"></rect> <path class="st5" d="M167.5,5.3c2.5,0,5.1,0.6,6.5,1.3l-0.1,3.8c-2-1-4.1-1.6-6.5-1.6c-2.2,0-4.1,0.7-4.1,2.5 c0,4.8,12,2.9,12,10.8c0,4.4-3.7,7.1-9,7.1c-3.6,0-6.2-1-7.9-2.1l1.7-3.3c1.4,0.9,3.7,1.8,6.4,1.8c2.4,0,4.6-0.9,4.6-3 c0-5-11.9-2.8-11.9-10.8C159.2,7.6,162.6,5.3,167.5,5.3z"></path> <polygon class="st5" points="194.3,28.8 194.3,18.8 183,18.8 183,28.8 179,28.8 179,5.5 183,5.5 183,15.1 194.3,15.1 194.3,5.5 198.3,5.5 198.3,28.8 "></polygon> <path class="st5" d="M89.4,32.9c2.6,0,4.5,0.5,6.5,1.4l-1.2,3.4c-1.1-0.5-2.6-1.2-4.9-1.2c-4.4,0-7.2,3.8-7.2,8.3 c0,4.6,2.6,8.4,7.2,8.4c2.2,0,3.7-0.6,4.9-1.2l1.2,3.4c-2,0.9-3.9,1.4-6.5,1.4c-7,0-11-4.9-11-11.9 C78.5,38.4,82.5,32.9,89.4,32.9z"></path> <path class="st5" d="M177,32.9c2.6,0,4.5,0.5,6.5,1.4l-1.2,3.4c-1.1-0.5-2.6-1.2-4.9-1.2c-4.4,0-7.2,3.8-7.2,8.3 c0,4.6,2.6,8.4,7.2,8.4c2.2,0,3.7-0.6,4.9-1.2l1.2,3.4c-2,0.9-3.9,1.4-6.5,1.4c-7,0-11-4.9-11-11.9 C166.1,38.4,170.1,32.9,177,32.9z"></path> <path class="st5" d="M118.8,44.8c0,7-4.5,12-11.1,12c-6.7,0-11.1-4.9-11.1-11.9c0-7,4.5-12,11.1-12 C114.4,32.9,118.8,37.8,118.8,44.8 M114.6,44.9c0-5.1-2.9-8.4-6.8-8.4c-3.9,0-6.8,3.3-6.8,8.4c0,5.1,2.9,8.4,6.8,8.4 C111.7,53.3,114.6,50,114.6,44.9z"></path> <path class="st5" d="M121.5,47.7V33.2h4v14.7c0,3.9,2.1,5.3,5.4,5.3c3.4,0,5.4-1.5,5.4-5.3V33.2h4v14.6c0,6.3-3.6,9.1-9.5,9.1 C125.1,56.9,121.5,54.1,121.5,47.7z"></path> <path class="st5" d="M147.9,39.5L147.9,39.5c0,0.8,0,2,0,3.1v13.9h-4V33.2h4.3l10.8,15.9h0.1c-0.1-0.8-0.1-2-0.1-3.1V33.2h4 v23.3h-3.5L147.9,39.5z"></path> <rect x="186.7" y="33.2" class="st5" width="4" height="23.3"></rect> <polygon class="st5" points="194.3,56.5 194.3,33.2 198.3,33.2 198.3,52.9 207.5,52.9 207.5,56.5 "></polygon> </g> <polygon class="st5" points="147.5,5.5 128.6,5.5 128.6,9.1 136.1,9.1 136.1,28.8 140.1,28.8 140.1,9.1 147.5,9.1 "></polygon> <path class="st5" d="M114.3,28.8c-3.4-7-4.3-9-5.7-9h-3.7v9h-4V5.5h7.9c6,0,8.3,3.2,8.3,6.7c0,3.1-1.8,5.2-4.3,6v0 c1.1,0.6,2.2,2.8,6.1,10.6H114.3z M109.1,9.1h-4.1v7.1h4c2.9,0,4.2-1.5,4.2-3.6C113.1,10.7,111.9,9.1,109.1,9.1z"></path> </g> </g> <circle class="st5" cx="28" cy="45.3" r="13.4"></circle> <circle class="st5" cx="56.6" cy="45.3" r="13.4"></circle> <circle class="st5" cx="28" cy="16.7" r="13.4"></circle> <circle class="st5" cx="56.6" cy="16.7" r="13.4"></circle> </g> </g> </g> </svg>
