<svg width="109" height="26" viewBox="0 0 109 26" fill="none" xmlns="http://www.w3.org/2000/svg">
    <g clip-path="url(#clip0_5639_34023)">
        <path d="M23.617 11.1553C23.6174 9.37254 24.894 7.86844 27.9037 7.88987C29.968 7.91632 30.6132 8.37067 30.6132 8.37067L29.9004 10.2438C29.1932 9.98375 28.7317 9.77955 27.7621 9.76298C26.7926 9.7464 25.9271 10.25 26.0182 10.8348C26.1371 11.5747 27.2415 11.928 28.1261 12.3823C29.0107 12.8367 30.0255 13.6344 30.0066 14.9766C30.0129 17.626 27.3441 18.3942 25.6795 18.4273C24.0148 18.4604 22.9942 18.0345 22.3027 17.626L23.0913 15.808C23.8861 16.0953 24.8121 16.512 25.8362 16.5242C26.8603 16.5364 27.542 16.1077 27.5599 15.3623C27.5678 14.5467 25.9043 13.9182 25.4166 13.6795C24.9289 13.4407 23.6218 12.6267 23.617 11.1553Z" fill="#004B8E"/>
        <path d="M19.1024 18.2468L20.6649 9.93298H22.9913C23.4302 8.57468 24.2212 8.30176 24.993 7.96973H16.2571L15.8711 9.93298H18.3446L16.829 18.2468H19.1024Z" fill="#004B8E"/>
        <path d="M6.9209 18.2468H13.8267L14.1698 16.3191H9.59457L10.0521 13.9535H14.1555L14.4987 12.0411H10.4238L10.7956 9.93298H15.1135L15.5138 7.96973H8.83679L6.9209 18.2468Z" fill="#004B8E"/>
        <path d="M11.6104 6.29026C11.6104 6.29026 16.9199 -0.0788151 26.3656 0.000739108C34.6197 0.0702584 37.9566 4.75112 38.0611 9.32171C38.164 13.8194 32.771 18.2471 32.771 18.2471C32.771 18.2471 35.4378 14.5216 35.4017 10.4833C35.3579 5.57292 31.9658 1.98971 24.7928 1.8706C17.6767 1.75244 11.6104 6.29026 11.6104 6.29026Z" fill="#8A2529"/>
        <path d="M12.6675 3.49023C7.65102 5.07509 -0.0387004 10.4738 0.000146611 16.7852C0.0329037 22.1073 4.94779 25.9896 13.2645 26.0004C25.9995 26.0171 32.5138 18.4176 32.5138 18.4176C32.5138 18.4176 25.9764 23.9709 15.1849 24.281C10.0219 24.4294 2.71993 22.3655 2.83173 16.0933C2.97115 8.27098 12.6675 3.49023 12.6675 3.49023Z" fill="#004B8E"/>
        <path d="M36.4319 20.4983H36.1405L35.9941 20.0659C35.9648 19.9801 35.9249 19.9155 35.8745 19.8722C35.8242 19.8289 35.7565 19.8072 35.6717 19.8072H35.3314V20.4983H35.0625V18.8037H35.7788C35.8644 18.8037 35.9433 18.8116 36.0155 18.8275C36.0877 18.8433 36.1498 18.8697 36.2017 18.9068C36.2537 18.9439 36.2941 18.993 36.3231 19.0543C36.352 19.1155 36.3665 19.1915 36.3665 19.2823C36.3665 19.4015 36.3358 19.4985 36.2743 19.5735C36.2128 19.6485 36.1258 19.6972 36.0131 19.7197C36.0718 19.7439 36.1216 19.7828 36.1625 19.8366C36.2033 19.8903 36.2388 19.9601 36.269 20.0459L36.4319 20.4983ZM35.3314 19.5673H35.7502C35.8097 19.5673 35.8609 19.5623 35.9037 19.5523C35.9465 19.5423 35.9816 19.5264 36.009 19.5048C36.0363 19.4831 36.0566 19.455 36.0697 19.4204C36.0827 19.3859 36.0893 19.344 36.0893 19.2948C36.0893 19.2065 36.0641 19.1405 36.0137 19.0968C35.9634 19.053 35.885 19.0312 35.7788 19.0312H35.3314V19.5673Z" fill="#004B8E"/>
        <path d="M37.1172 19.6626C37.1172 20.4137 36.5027 21.0225 35.7446 21.0225C34.9866 21.0225 34.3721 20.4137 34.3721 19.6626C34.3721 18.9116 34.9866 18.3027 35.7446 18.3027C36.5027 18.3027 37.1172 18.9116 37.1172 19.6626Z" stroke="#004B8E"/>
        <path d="M108.235 24.3664H107.943L107.797 23.934C107.767 23.8482 107.728 23.7837 107.677 23.7403C107.627 23.697 107.559 23.6754 107.474 23.6754H107.134V24.3664H106.865V22.6719H107.581C107.667 22.6719 107.746 22.6798 107.818 22.6956C107.89 22.7114 107.953 22.7379 108.004 22.775C108.056 22.812 108.097 22.8612 108.126 22.9224C108.155 22.9837 108.169 23.0597 108.169 23.1505C108.169 23.2696 108.139 23.3667 108.077 23.4417C108.016 23.5167 107.929 23.5654 107.816 23.5879C107.875 23.612 107.924 23.651 107.965 23.7047C108.006 23.7585 108.042 23.8282 108.072 23.9141L108.235 24.3664ZM107.134 23.4354H107.553C107.612 23.4354 107.664 23.4304 107.706 23.4204C107.749 23.4104 107.784 23.3946 107.812 23.3729C107.839 23.3513 107.859 23.3232 107.872 23.2886C107.885 23.254 107.892 23.2122 107.892 23.163C107.892 23.0747 107.867 23.0087 107.816 22.9649C107.766 22.9212 107.688 22.8993 107.581 22.8993H107.134V23.4354Z" fill="#004B8E"/>
        <path d="M108.92 23.5308C108.92 24.2818 108.305 24.8907 107.547 24.8907C106.789 24.8907 106.175 24.2818 106.175 23.5308C106.175 22.7797 106.789 22.1709 107.547 22.1709C108.305 22.1709 108.92 22.7797 108.92 23.5308Z" stroke="#004B8E"/>
        <path d="M90.0684 24.934L94.719 0.96582H108.105L107.417 4.5497H98.1564L96.9836 10.8H105.638L104.971 14.2057H96.3459L95.0019 21.3776H104.627L103.952 24.934H90.0684Z" fill="#004B8E"/>
        <path d="M60.9479 11.85L69.355 11.8642L66.9959 23.8766C66.9959 23.8766 63.321 25.212 59.6468 25.1764C51.5938 25.0984 48.8781 20.0289 48.8976 15.1223C48.9266 7.81543 54.1797 0.800373 64.122 0.731731C67.1211 0.711025 70.17 1.82248 70.17 1.82248L68.8689 5.31966C68.8689 5.31966 66.9551 4.29673 63.7074 4.3139C56.6601 4.35117 53.3817 10.1682 53.4559 15.1081C53.5061 18.4431 55.1182 21.7202 60.3045 21.7093C62.0837 21.7055 63.4357 21.1851 63.4357 21.1851L64.601 15.1506H60.3975L60.9479 11.85Z" fill="#004B8E"/>
        <path d="M80.682 0.844437C78.6513 0.880829 75.4026 1.3799 75.4026 1.3799L70.8838 24.9302H75.0323L76.8888 15.0639L79.6662 15.1234C80.8178 15.1466 82.0969 16.4481 82.2333 17.4635L83.039 24.9302H87.4327C86.9678 24.476 86.8321 22.3545 86.7121 20.8994C86.5059 18.3998 86.6979 14.9896 84.0248 13.6756C86.6762 12.4404 89.6692 10.9765 89.6545 6.74441C89.6381 1.99943 85.0919 0.909375 81.0723 0.844437C80.9491 0.842438 80.8174 0.84201 80.682 0.844437ZM81.0373 4.10182C84.9632 4.16176 85.3056 6.40263 85.2959 7.27491C85.2604 10.4561 82.6567 11.9415 79.6061 12.0048L77.4893 11.9503L78.9506 4.27039C78.9506 4.27039 80.4948 4.09353 81.0373 4.10182Z" fill="#004B8E"/>
    </g>
    <defs>
        <clipPath id="clip0_5639_34023">
            <rect width="109" height="26" fill="white"/>
        </clipPath>
    </defs>
</svg>
