<svg width="64" height="64" viewBox="-6 1 70 70" fill="none" xmlns="http://www.w3.org/2000/svg">
    <path d="M42.6262 17.6736C43.3762 16.7058 43.1997 15.3131 42.2321 14.5629C41.2645 13.8128 39.8722 13.9893 39.1223 14.9572C38.3723 15.925 38.5488 17.3177 39.5164 18.0678C40.484 18.818 41.8763 18.6415 42.6262 17.6736Z" fill="#C91330"/>
    <path d="M40.2474 29.5398C40.8706 28.7355 40.724 27.578 39.9198 26.9546C39.1157 26.3312 37.9585 26.4779 37.3353 27.2822C36.712 28.0866 36.8587 29.244 37.6628 29.8674C38.467 30.4909 39.6241 30.3442 40.2474 29.5398Z" fill="#C91330"/>
    <path d="M38.5104 47.4182C39.0627 46.7054 38.9327 45.6797 38.2201 45.1273C37.5075 44.5748 36.4821 44.7048 35.9297 45.4176C35.3774 46.1304 35.5074 47.1561 36.22 47.7086C36.9326 48.261 37.958 48.131 38.5104 47.4182Z" fill="#C91330"/>
    <path d="M44.5733 45.6198C45.1965 44.8154 45.0499 43.658 44.2457 43.0346C43.4416 42.4111 42.2845 42.5578 41.6612 43.3622C41.038 44.1665 41.1846 45.324 41.9887 45.9474C42.7929 46.5708 43.95 46.4241 44.5733 45.6198Z" fill="#C91330"/>
    <path d="M43.6467 38.8434C44.3409 37.9475 44.1776 36.6583 43.2819 35.964C42.3862 35.2696 41.0974 35.4329 40.4032 36.3289C39.709 37.2248 39.8723 38.514 40.768 39.2083C41.6637 39.9027 42.9525 39.7393 43.6467 38.8434Z" fill="#C91330"/>
    <path d="M47.6127 12.595L41.1277 15.7709L32.516 8.58018L29.4308 14.4377L21.2685 7.30681V6.3031L9.67641 24.7145L9.64646 24.7594L6.65109 38.5567L2.09814 40.1297L5.36309 44.4591L3.62578 52.4439L4.26978 52.5787L5.88728 45.1482L11.9978 53.2378L10.4402 57.6722L11.0693 57.8969L12.4771 53.882L19.4563 63.1251L19.9805 62.7207L12.7467 53.133L14.5289 48.0096L22.0922 52.6686L20.6095 60.4586L21.2535 60.5784L22.6763 53.0431L27.5288 61.3574L28.0979 61.0278L23.8594 53.7772L33.3547 59.6346L33.6992 59.0803L23.1555 52.5787L23.0956 52.4738L24.818 51.2903L31.0184 49.0882L34.448 58.9455L35.0771 58.7358L31.6474 48.8485L37.1738 46.886L40.6185 59.0204L41.2475 58.8407L37.9676 47.2455L47.7025 54.0019L48.0769 53.4626L38.1174 46.5564L42.9399 44.8336L49.4548 51.6349L49.9341 51.1855L43.6288 44.6089L50.8626 42.0322L50.638 41.418L43.3443 44.0097L42.865 37.6279L52.2704 37.7477L52.2854 37.0886L42.7302 36.9687L39.4353 29.5233L52.6299 37.0436L52.9594 36.4744L38.986 28.5046L35.4814 20.5798L54.3372 37.0436L54.7716 36.5493L35.152 19.4113L41.0378 16.535L53.184 26.6919L53.6034 26.1826L41.6818 16.2204L47.8972 13.1793L47.6127 12.595ZM34.0437 19.3064L31.3628 21.194L30.1048 15.8758L34.0437 19.3064ZM29.2511 15.1268L30.7787 21.5985L29.0564 22.8119L21.2235 18.3476L21.2834 8.16072L29.2511 15.1268ZM34.2833 36.5043L21.4332 28.969L29.0863 23.5909L31.5875 25.0141L34.2833 36.5043ZM13.3757 37.1036L16.0416 41.6727L14.1695 47.0208L6.5163 42.3019L7.22021 39.066L13.2259 36.9987L13.2858 37.2084L13.3757 37.1036ZM13.8549 36.6092L20.0254 30.2873L16.3261 40.8488L13.8549 36.6092ZM21.2086 19.1117L28.4423 23.2314L21.1486 28.3548L21.2086 19.1117ZM20.4897 28.5196L10.4552 24.7145L14.6337 18.093L20.5645 18.827L20.4897 28.5196ZM20.2351 29.1338L13.6003 35.9351L10.4702 25.4335L20.2351 29.1338ZM29.2661 41.6577L23.2454 40.9087L21.2685 29.6431L27.2742 33.1636L29.2661 41.6577ZM30.1797 42.7064L36.6197 46.3767L31.4677 48.2043L30.1797 42.7064ZM29.985 41.8225L28.0679 33.613L34.508 37.3882L36.8743 45.7475L29.985 41.8225ZM29.6704 23.1864L30.9285 22.3026L31.3628 24.1602L29.6704 23.1864ZM20.5496 18.1679L15.0082 17.4788L20.6095 8.59516L20.5496 18.1679ZM10.0059 26.2125L13.0312 36.3545L7.36998 38.302L10.0059 26.2125ZM5.91723 41.9124L3.40113 40.3694L6.48635 39.3057L5.91723 41.9124ZM3.95527 41.4929L5.76746 42.6015L5.55779 43.5902L3.95527 41.4929ZM12.2524 52.4888L6.067 44.2943L6.35156 42.976L13.9298 47.65L12.2524 52.4888ZM16.4759 42.4067L21.9724 51.8147L14.7386 47.3654L16.4759 42.4067ZM16.7604 41.5978L20.7143 30.3023L24.3237 50.8259L22.7811 51.8896L16.7604 41.5978ZM23.3652 41.5828L29.4158 42.3318L30.8386 48.429L24.9228 50.5263L23.3652 41.5828ZM42.6853 44.2194L37.6231 46.0171L35.2119 37.508L42.1911 37.5979L42.6853 44.2194ZM41.9964 36.9388L35.0471 36.8489L32.3663 25.4635L38.4768 28.939L41.9964 36.9388ZM32.1566 24.5946L31.5126 21.8831L34.4331 19.8307L38.0125 27.9203L32.1566 24.5946ZM34.6128 18.9469L29.955 14.8721L32.7407 9.59887L40.4987 16.0706L34.6128 18.9469Z" fill="#C91330"/>
    <path d="M4.66472 41.72C5.38425 40.7914 5.21495 39.4551 4.28659 38.7354C3.35823 38.0157 2.02235 38.185 1.30282 39.1137C0.583292 40.0423 0.752588 41.3785 1.68095 42.0982C2.60931 42.8179 3.94519 42.6486 4.66472 41.72Z" fill="#C91330"/>
    <path d="M13.8783 54.1394C14.4965 53.3416 14.3511 52.1935 13.5534 51.5752C12.7558 50.9568 11.6081 51.1023 10.9899 51.9001C10.3717 52.698 10.5172 53.846 11.3148 54.4643C12.1124 55.0827 13.2601 54.9372 13.8783 54.1394Z" fill="#C91330"/>
    <path d="M15.3068 48.5639C15.8439 47.8707 15.7176 46.8732 15.0246 46.3359C14.3316 45.7987 13.3343 45.9251 12.7972 46.6183C12.2601 47.3115 12.3865 48.3089 13.0795 48.8462C13.7725 49.3835 14.7697 49.257 15.3068 48.5639Z" fill="#C91330"/>
    <path d="M23.7802 52.9151C24.2514 52.3069 24.1405 51.4318 23.5325 50.9604C22.9245 50.4891 22.0496 50.6 21.5784 51.2081C21.1071 51.8163 21.218 52.6914 21.826 53.1628C22.434 53.6342 23.3089 53.5233 23.7802 52.9151Z" fill="#C91330"/>
    <path d="M22.1116 30.4086C22.7349 29.6042 22.5882 28.4468 21.7841 27.8234C20.9799 27.2 19.8228 27.3466 19.1995 28.151C18.5763 28.9554 18.7229 30.1128 19.5271 30.7362C20.3312 31.3596 21.4884 31.213 22.1116 30.4086Z" fill="#C91330"/>
    <path d="M14.3374 37.598C14.8948 36.8786 14.7636 35.8435 14.0445 35.286C13.3253 34.7285 12.2905 34.8596 11.7331 35.579C11.1757 36.2983 11.3069 37.3334 12.026 37.891C12.7452 38.4485 13.78 38.3173 14.3374 37.598Z" fill="#C91330"/>
    <path d="M12.6895 27.1527C13.6979 25.8513 13.4606 23.9787 12.1596 22.9701C10.8586 21.9615 8.98648 22.1988 7.97813 23.5001C6.96978 24.8015 7.20702 26.6741 8.50804 27.6827C9.80905 28.6913 11.6812 28.454 12.6895 27.1527Z" fill="#C91330"/>
    <path d="M23.0153 9.28059C23.7703 8.30621 23.5926 6.9041 22.6185 6.14891C21.6444 5.39371 20.2426 5.5714 19.4876 6.54578C18.7327 7.52016 18.9103 8.92227 19.8844 9.67746C20.8585 10.4327 22.2603 10.255 23.0153 9.28059Z" fill="#C91330"/>
    <path d="M30.8065 16.5807C31.4146 15.796 31.2715 14.6668 30.487 14.0585C29.7024 13.4503 28.5735 13.5934 27.9655 14.3782C27.3574 15.1629 27.5005 16.2921 28.285 16.9003C29.0696 17.5086 30.1985 17.3654 30.8065 16.5807Z" fill="#C91330"/>
    <path d="M22.3324 20.0741C22.9962 19.2174 22.84 17.9847 21.9836 17.3208C21.1271 16.6568 19.8947 16.813 19.2309 17.6697C18.5672 18.5264 18.7233 19.7591 19.5798 20.423C20.4362 21.087 21.6686 20.9308 22.3324 20.0741Z" fill="#C91330"/>
    <path d="M32.0003 24.5239C32.8161 23.4711 32.6242 21.956 31.5716 21.14C30.519 20.324 29.0044 20.516 28.1886 21.5689C27.3728 22.6217 27.5647 24.1367 28.6173 24.9528C29.6699 25.7688 31.1845 25.5768 32.0003 24.5239Z" fill="#C91330"/>
    <path d="M34.2517 10.6261C34.9662 9.704 34.7981 8.37717 33.8763 7.66252C32.9545 6.94787 31.628 7.11602 30.9135 8.03809C30.1991 8.96016 30.3672 10.287 31.289 11.0016C32.2108 11.7163 33.5373 11.5481 34.2517 10.6261Z" fill="#C91330"/>
    <path d="M35.9465 20.0326C36.5141 19.3002 36.3805 18.2463 35.6483 17.6786C34.9161 17.1109 33.8624 17.2445 33.2949 17.9769C32.7274 18.7094 32.8609 19.7633 33.5932 20.3309C34.3254 20.8986 35.379 20.7651 35.9465 20.0326Z" fill="#C91330"/>
    <path d="M35.7887 37.6825C36.3157 37.0024 36.1917 36.0238 35.5118 35.4967C34.8319 34.9696 33.8535 35.0936 33.3265 35.7737C32.7995 36.4538 32.9235 37.4324 33.6034 37.9596C34.2834 38.4867 35.2617 38.3627 35.7887 37.6825Z" fill="#C91330"/>
    <path d="M29.0274 33.7558C29.5138 33.128 29.3994 32.2246 28.7718 31.7381C28.1441 31.2515 27.241 31.366 26.7546 31.9938C26.2681 32.6216 26.3826 33.5249 27.0102 34.0115C27.6378 34.4981 28.5409 34.3836 29.0274 33.7558Z" fill="#C91330"/>
    <path d="M31.0103 43.3195C31.7146 42.4105 31.5489 41.1025 30.6401 40.398C29.7314 39.6934 28.4237 39.8592 27.7194 40.7682C27.0151 41.6772 27.1808 42.9852 28.0895 43.6897C28.9983 44.3942 30.3059 44.2284 31.0103 43.3195Z" fill="#C91330"/>
    <path d="M32.0767 49.1472C32.5986 48.4737 32.4758 47.5044 31.8024 46.9824C31.129 46.4603 30.16 46.5831 29.6381 47.2567C29.1162 47.9303 29.239 48.8995 29.9124 49.4216C30.5858 49.9436 31.5548 49.8208 32.0767 49.1472Z" fill="#C91330"/>
    <path d="M24.3938 42.6657C25.0778 41.7829 24.9169 40.5125 24.0343 39.8283C23.1517 39.144 21.8816 39.305 21.1976 40.1879C20.5135 41.0707 20.6745 42.3411 21.5571 43.0253C22.4397 43.7095 23.7097 43.5485 24.3938 42.6657Z" fill="#C91330"/>
    <path d="M46.2648 48.1436C36.3951 60.8922 19.0669 63.9932 7.54977 55.0647C4.56939 52.7577 2.27794 49.8664 0.675421 46.6305C0.450769 46.4358 0.21114 46.241 0.00146484 46.0313C5.39311 58.9297 19.3215 66.6299 33.5196 63.7236C49.6795 60.3979 60.0884 44.6231 56.7636 28.4739C55.1461 20.6239 50.5931 14.1223 44.4826 9.89771C54.8915 19.0809 55.7901 35.8594 46.2648 48.1436Z" fill="#2360A6"/>
</svg>
