<svg width="213" height="65" viewBox="0 0 213 65" fill="none" xmlns="http://www.w3.org/2000/svg">
    <path d="M42.6262 17.6736C43.3762 16.7058 43.1997 15.3131 42.2321 14.5629C41.2645 13.8128 39.8722 13.9893 39.1223 14.9572C38.3723 15.925 38.5488 17.3177 39.5164 18.0678C40.484 18.818 41.8763 18.6415 42.6262 17.6736Z" fill="#C91330"/>
    <path d="M40.2474 29.5398C40.8706 28.7355 40.724 27.578 39.9198 26.9546C39.1157 26.3312 37.9585 26.4779 37.3353 27.2822C36.712 28.0866 36.8587 29.244 37.6628 29.8674C38.467 30.4909 39.6241 30.3442 40.2474 29.5398Z" fill="#C91330"/>
    <path d="M38.5104 47.4182C39.0627 46.7054 38.9327 45.6797 38.2201 45.1273C37.5075 44.5748 36.4821 44.7048 35.9297 45.4176C35.3774 46.1304 35.5074 47.1561 36.22 47.7086C36.9326 48.261 37.958 48.131 38.5104 47.4182Z" fill="#C91330"/>
    <path d="M44.5733 45.6198C45.1965 44.8154 45.0499 43.658 44.2457 43.0346C43.4416 42.4111 42.2845 42.5578 41.6612 43.3622C41.038 44.1665 41.1846 45.324 41.9887 45.9474C42.7929 46.5708 43.95 46.4241 44.5733 45.6198Z" fill="#C91330"/>
    <path d="M43.6467 38.8434C44.3409 37.9475 44.1776 36.6583 43.2819 35.964C42.3862 35.2696 41.0974 35.4329 40.4032 36.3289C39.709 37.2248 39.8723 38.514 40.768 39.2083C41.6637 39.9027 42.9525 39.7393 43.6467 38.8434Z" fill="#C91330"/>
    <path d="M47.6127 12.595L41.1277 15.7709L32.516 8.58018L29.4308 14.4377L21.2685 7.30681V6.3031L9.67641 24.7145L9.64646 24.7594L6.65109 38.5567L2.09814 40.1297L5.36309 44.4591L3.62578 52.4439L4.26978 52.5787L5.88728 45.1482L11.9978 53.2378L10.4402 57.6722L11.0693 57.8969L12.4771 53.882L19.4563 63.1251L19.9805 62.7207L12.7467 53.133L14.5289 48.0096L22.0922 52.6686L20.6095 60.4586L21.2535 60.5784L22.6763 53.0431L27.5288 61.3574L28.0979 61.0278L23.8594 53.7772L33.3547 59.6346L33.6992 59.0803L23.1555 52.5787L23.0956 52.4738L24.818 51.2903L31.0184 49.0882L34.448 58.9455L35.0771 58.7358L31.6474 48.8485L37.1738 46.886L40.6185 59.0204L41.2475 58.8407L37.9676 47.2455L47.7025 54.0019L48.0769 53.4626L38.1174 46.5564L42.9399 44.8336L49.4548 51.6349L49.9341 51.1855L43.6288 44.6089L50.8626 42.0322L50.638 41.418L43.3443 44.0097L42.865 37.6279L52.2704 37.7477L52.2854 37.0886L42.7302 36.9687L39.4353 29.5233L52.6299 37.0436L52.9594 36.4744L38.986 28.5046L35.4814 20.5798L54.3372 37.0436L54.7716 36.5493L35.152 19.4113L41.0378 16.535L53.184 26.6919L53.6034 26.1826L41.6818 16.2204L47.8972 13.1793L47.6127 12.595ZM34.0437 19.3064L31.3628 21.194L30.1048 15.8758L34.0437 19.3064ZM29.2511 15.1268L30.7787 21.5985L29.0564 22.8119L21.2235 18.3476L21.2834 8.16072L29.2511 15.1268ZM34.2833 36.5043L21.4332 28.969L29.0863 23.5909L31.5875 25.0141L34.2833 36.5043ZM13.3757 37.1036L16.0416 41.6727L14.1695 47.0208L6.5163 42.3019L7.22021 39.066L13.2259 36.9987L13.2858 37.2084L13.3757 37.1036ZM13.8549 36.6092L20.0254 30.2873L16.3261 40.8488L13.8549 36.6092ZM21.2086 19.1117L28.4423 23.2314L21.1486 28.3548L21.2086 19.1117ZM20.4897 28.5196L10.4552 24.7145L14.6337 18.093L20.5645 18.827L20.4897 28.5196ZM20.2351 29.1338L13.6003 35.9351L10.4702 25.4335L20.2351 29.1338ZM29.2661 41.6577L23.2454 40.9087L21.2685 29.6431L27.2742 33.1636L29.2661 41.6577ZM30.1797 42.7064L36.6197 46.3767L31.4677 48.2043L30.1797 42.7064ZM29.985 41.8225L28.0679 33.613L34.508 37.3882L36.8743 45.7475L29.985 41.8225ZM29.6704 23.1864L30.9285 22.3026L31.3628 24.1602L29.6704 23.1864ZM20.5496 18.1679L15.0082 17.4788L20.6095 8.59516L20.5496 18.1679ZM10.0059 26.2125L13.0312 36.3545L7.36998 38.302L10.0059 26.2125ZM5.91723 41.9124L3.40113 40.3694L6.48635 39.3057L5.91723 41.9124ZM3.95527 41.4929L5.76746 42.6015L5.55779 43.5902L3.95527 41.4929ZM12.2524 52.4888L6.067 44.2943L6.35156 42.976L13.9298 47.65L12.2524 52.4888ZM16.4759 42.4067L21.9724 51.8147L14.7386 47.3654L16.4759 42.4067ZM16.7604 41.5978L20.7143 30.3023L24.3237 50.8259L22.7811 51.8896L16.7604 41.5978ZM23.3652 41.5828L29.4158 42.3318L30.8386 48.429L24.9228 50.5263L23.3652 41.5828ZM42.6853 44.2194L37.6231 46.0171L35.2119 37.508L42.1911 37.5979L42.6853 44.2194ZM41.9964 36.9388L35.0471 36.8489L32.3663 25.4635L38.4768 28.939L41.9964 36.9388ZM32.1566 24.5946L31.5126 21.8831L34.4331 19.8307L38.0125 27.9203L32.1566 24.5946ZM34.6128 18.9469L29.955 14.8721L32.7407 9.59887L40.4987 16.0706L34.6128 18.9469Z" fill="#C91330"/>
    <path d="M4.66472 41.72C5.38425 40.7914 5.21495 39.4551 4.28659 38.7354C3.35823 38.0157 2.02235 38.185 1.30282 39.1137C0.583292 40.0423 0.752588 41.3785 1.68095 42.0982C2.60931 42.8179 3.94519 42.6486 4.66472 41.72Z" fill="#C91330"/>
    <path d="M13.8783 54.1394C14.4965 53.3416 14.3511 52.1935 13.5534 51.5752C12.7558 50.9568 11.6081 51.1023 10.9899 51.9001C10.3717 52.698 10.5172 53.846 11.3148 54.4643C12.1124 55.0827 13.2601 54.9372 13.8783 54.1394Z" fill="#C91330"/>
    <path d="M15.3068 48.5639C15.8439 47.8707 15.7176 46.8732 15.0246 46.3359C14.3316 45.7987 13.3343 45.9251 12.7972 46.6183C12.2601 47.3115 12.3865 48.3089 13.0795 48.8462C13.7725 49.3835 14.7697 49.257 15.3068 48.5639Z" fill="#C91330"/>
    <path d="M23.7802 52.9151C24.2514 52.3069 24.1405 51.4318 23.5325 50.9604C22.9245 50.4891 22.0496 50.6 21.5784 51.2081C21.1071 51.8163 21.218 52.6914 21.826 53.1628C22.434 53.6342 23.3089 53.5233 23.7802 52.9151Z" fill="#C91330"/>
    <path d="M22.1116 30.4086C22.7349 29.6042 22.5882 28.4468 21.7841 27.8234C20.9799 27.2 19.8228 27.3466 19.1995 28.151C18.5763 28.9554 18.7229 30.1128 19.5271 30.7362C20.3312 31.3596 21.4884 31.213 22.1116 30.4086Z" fill="#C91330"/>
    <path d="M14.3374 37.598C14.8948 36.8786 14.7636 35.8435 14.0445 35.286C13.3253 34.7285 12.2905 34.8596 11.7331 35.579C11.1757 36.2983 11.3069 37.3334 12.026 37.891C12.7452 38.4485 13.78 38.3173 14.3374 37.598Z" fill="#C91330"/>
    <path d="M12.6895 27.1527C13.6979 25.8513 13.4606 23.9787 12.1596 22.9701C10.8586 21.9615 8.98648 22.1988 7.97813 23.5001C6.96978 24.8015 7.20702 26.6741 8.50804 27.6827C9.80905 28.6913 11.6812 28.454 12.6895 27.1527Z" fill="#C91330"/>
    <path d="M23.0153 9.28059C23.7703 8.30621 23.5926 6.9041 22.6185 6.14891C21.6444 5.39371 20.2426 5.5714 19.4876 6.54578C18.7327 7.52016 18.9103 8.92227 19.8844 9.67746C20.8585 10.4327 22.2603 10.255 23.0153 9.28059Z" fill="#C91330"/>
    <path d="M30.8065 16.5807C31.4146 15.796 31.2715 14.6668 30.487 14.0585C29.7024 13.4503 28.5735 13.5934 27.9655 14.3782C27.3574 15.1629 27.5005 16.2921 28.285 16.9003C29.0696 17.5086 30.1985 17.3654 30.8065 16.5807Z" fill="#C91330"/>
    <path d="M22.3324 20.0741C22.9962 19.2174 22.84 17.9847 21.9836 17.3208C21.1271 16.6568 19.8947 16.813 19.2309 17.6697C18.5672 18.5264 18.7233 19.7591 19.5798 20.423C20.4362 21.087 21.6686 20.9308 22.3324 20.0741Z" fill="#C91330"/>
    <path d="M32.0003 24.5239C32.8161 23.4711 32.6242 21.956 31.5716 21.14C30.519 20.324 29.0044 20.516 28.1886 21.5689C27.3728 22.6217 27.5647 24.1367 28.6173 24.9528C29.6699 25.7688 31.1845 25.5768 32.0003 24.5239Z" fill="#C91330"/>
    <path d="M34.2517 10.6261C34.9662 9.704 34.7981 8.37717 33.8763 7.66252C32.9545 6.94787 31.628 7.11602 30.9135 8.03809C30.1991 8.96016 30.3672 10.287 31.289 11.0016C32.2108 11.7163 33.5373 11.5481 34.2517 10.6261Z" fill="#C91330"/>
    <path d="M35.9465 20.0326C36.5141 19.3002 36.3805 18.2463 35.6483 17.6786C34.9161 17.1109 33.8624 17.2445 33.2949 17.9769C32.7274 18.7094 32.8609 19.7633 33.5932 20.3309C34.3254 20.8986 35.379 20.7651 35.9465 20.0326Z" fill="#C91330"/>
    <path d="M35.7887 37.6825C36.3157 37.0024 36.1917 36.0238 35.5118 35.4967C34.8319 34.9696 33.8535 35.0936 33.3265 35.7737C32.7995 36.4538 32.9235 37.4324 33.6034 37.9596C34.2834 38.4867 35.2617 38.3627 35.7887 37.6825Z" fill="#C91330"/>
    <path d="M29.0274 33.7558C29.5138 33.128 29.3994 32.2246 28.7718 31.7381C28.1441 31.2515 27.241 31.366 26.7546 31.9938C26.2681 32.6216 26.3826 33.5249 27.0102 34.0115C27.6378 34.4981 28.5409 34.3836 29.0274 33.7558Z" fill="#C91330"/>
    <path d="M31.0103 43.3195C31.7146 42.4105 31.5489 41.1025 30.6401 40.398C29.7314 39.6934 28.4237 39.8592 27.7194 40.7682C27.0151 41.6772 27.1808 42.9852 28.0895 43.6897C28.9983 44.3942 30.3059 44.2284 31.0103 43.3195Z" fill="#C91330"/>
    <path d="M32.0767 49.1472C32.5986 48.4737 32.4758 47.5044 31.8024 46.9824C31.129 46.4603 30.16 46.5831 29.6381 47.2567C29.1162 47.9303 29.239 48.8995 29.9124 49.4216C30.5858 49.9436 31.5548 49.8208 32.0767 49.1472Z" fill="#C91330"/>
    <path d="M24.3938 42.6657C25.0778 41.7829 24.9169 40.5125 24.0343 39.8283C23.1517 39.144 21.8816 39.305 21.1976 40.1879C20.5135 41.0707 20.6745 42.3411 21.5571 43.0253C22.4397 43.7095 23.7097 43.5485 24.3938 42.6657Z" fill="#C91330"/>
    <path d="M46.2648 48.1436C36.3951 60.8922 19.0669 63.9932 7.54977 55.0647C4.56939 52.7577 2.27794 49.8664 0.675421 46.6305C0.450769 46.4358 0.21114 46.241 0.00146484 46.0313C5.39311 58.9297 19.3215 66.6299 33.5196 63.7236C49.6795 60.3979 60.0884 44.6231 56.7636 28.4739C55.1461 20.6239 50.5931 14.1223 44.4826 9.89771C54.8915 19.0809 55.7901 35.8594 46.2648 48.1436Z" fill="#163459"/>
    <path d="M65.04 40.2347H70.6166V28.958L74.3827 34.961H78.0358L81.7724 28.9887V40.2347H87.3489V18H82.7758L76.1958 28.578L69.6401 18H65.04V40.2347Z" fill="#163459"/>
    <path d="M96.9669 40.7098C100.787 40.7098 103.714 38.5525 105.026 34.8017H99.8399C99.2535 35.5985 98.2205 36.1041 97.0772 36.1041C95.5735 36.1041 94.3172 35.1848 93.9271 33.3431H105.304C105.583 27.0827 102.264 22.9551 96.9938 22.9551C92.0575 22.9551 88.6277 26.5771 88.6277 31.8171C88.6277 37.0908 92.0306 40.7098 96.9669 40.7098ZM93.954 30.0367C94.4006 28.4188 95.5735 27.5301 97.0503 27.5301C98.6671 27.5301 99.7539 28.4831 100.2 30.0367H93.954Z" fill="#163459"/>
    <path d="M105.363 40.2347H110.716V33.055C110.716 30.196 111.803 28.8936 114.202 28.8936H115.903V23.4299H114.173C112.11 23.4299 110.799 24.0673 109.879 25.529L109.21 23.4299H105.363V40.2347Z" fill="#163459"/>
    <path d="M125.573 40.7098C130.676 40.7098 134.133 37.1214 134.133 31.8171C134.133 26.5434 130.676 22.9551 125.573 22.9551C120.443 22.9551 116.983 26.5434 116.983 31.8171C116.983 37.1214 120.443 40.7098 125.573 40.7098ZM122.226 31.8171C122.226 29.5924 123.62 28.0051 125.573 28.0051C127.526 28.0051 128.892 29.5924 128.892 31.8171C128.892 34.0724 127.526 35.6598 125.573 35.6598C123.62 35.6598 122.226 34.0724 122.226 31.8171Z" fill="#163459"/>
    <path d="M144.866 40.2347H150.472V23.9387H156.412V18H138.927V23.9387H144.866V40.2347Z" fill="#163459"/>
    <path d="M164.747 40.7098C168.567 40.7098 171.494 38.5525 172.807 34.8017H167.62C167.034 35.5985 166.001 36.1041 164.858 36.1041C163.354 36.1041 162.098 35.1848 161.708 33.3431H173.084C173.364 27.0827 170.044 22.9551 164.774 22.9551C159.838 22.9551 156.408 26.5771 156.408 31.8171C156.408 37.0908 159.811 40.7098 164.747 40.7098ZM161.735 30.0367C162.181 28.4188 163.354 27.5301 164.831 27.5301C166.448 27.5301 167.534 28.4831 167.981 30.0367H161.735Z" fill="#163459"/>
    <path d="M179.97 40.7098C184.153 40.7098 186.636 38.7087 186.636 35.3441C186.636 32.4851 184.907 30.7385 181.31 29.9417C179.077 29.4668 178.437 29.0531 178.437 28.2288C178.437 27.4964 178.967 27.0827 179.747 27.0827C180.723 27.0827 181.28 27.6557 181.337 28.6731H186.413C186.217 24.9561 183.93 22.9551 179.803 22.9551C175.593 22.9551 173.307 24.8274 173.307 28.2288C173.307 31.0878 174.924 32.7395 178.604 33.5331C180.557 33.9774 181.364 34.5168 181.364 35.3104C181.364 36.0428 180.863 36.4871 180.027 36.4871C179.05 36.4871 178.41 35.7885 178.41 34.7711H173.167C173.167 38.3594 175.844 40.7098 179.97 40.7098Z" fill="#163459"/>
    <path d="M195.306 40.2346H198.289V35.0896H196.756C195.195 35.0896 194.469 34.2959 194.469 32.5462V28.2286H198.095V23.4298H194.469V19.0142H190.313L190.036 21.2082C189.812 22.9549 189.393 23.4298 187.72 23.4298H186.383V28.2286H189.116V33.7229C189.116 37.9792 191.262 40.2346 195.306 40.2346Z" fill="#163459"/>
    <path d="M91.8347 55.8492C93.3329 55.8492 94.2982 54.5788 94.195 52.7977H91.6311V53.7106H93.1041C92.9758 54.3394 92.5071 54.7639 91.8459 54.7639C91.0145 54.7639 90.4844 54.0809 90.4844 53.1456C90.4844 52.1945 91.034 51.5274 91.8347 51.5274C92.3397 51.5274 92.761 51.7955 92.9814 52.2487H94.0918C93.8183 51.1571 92.9172 50.4421 91.8152 50.4421C90.4314 50.4421 89.4521 51.5657 89.4521 53.1456C89.4521 54.7352 90.4398 55.8492 91.8347 55.8492Z" fill="#163459"/>
    <path d="M100.782 55.8492C102.28 55.8492 103.245 54.5788 103.142 52.7977H100.578V53.7106H102.051C101.923 54.3394 101.454 54.7639 100.793 54.7639C99.9618 54.7639 99.4317 54.0809 99.4317 53.1456C99.4317 52.1945 99.9813 51.5274 100.782 51.5274C101.287 51.5274 101.708 51.7955 101.929 52.2487H103.039C102.766 51.1571 101.864 50.4421 100.762 50.4421C99.3787 50.4421 98.3994 51.5657 98.3994 53.1456C98.3994 54.7352 99.387 55.8492 100.782 55.8492Z" fill="#163459"/>
    <path d="M107.612 55.7437H110.67V54.7415H108.639V53.6052H110.421V52.6189H108.639V51.5432H110.597V50.5474H107.612V55.7437Z" fill="#163459"/>
    <path d="M117.281 55.8492C118.475 55.8492 119.402 55.0161 119.63 53.7553H118.565C118.378 54.349 117.898 54.7256 117.301 54.7256C116.528 54.7256 115.984 54.0809 115.984 53.1456C115.984 52.2104 116.534 51.5657 117.306 51.5657C117.884 51.5657 118.358 51.92 118.534 52.4913H119.597C119.337 51.2465 118.431 50.4421 117.276 50.4421C115.9 50.4421 114.932 51.5561 114.932 53.1456C114.932 54.7352 115.9 55.8492 117.281 55.8492Z" fill="#163459"/>
    <path d="M131.418 55.8492C132.84 55.8492 133.845 54.7352 133.845 53.1456C133.845 51.5561 132.84 50.4421 131.418 50.4421C129.998 50.4421 128.999 51.5561 128.999 53.1456C128.999 54.7352 129.998 55.8492 131.418 55.8492ZM130.051 53.1456C130.051 52.2104 130.614 51.5657 131.418 51.5657C132.229 51.5657 132.787 52.2104 132.787 53.1456C132.787 54.0809 132.229 54.7256 131.418 54.7256C130.614 54.7256 130.051 54.0809 130.051 53.1456Z" fill="#163459"/>
    <path d="M138.322 55.7437H139.348V52.5582L141.352 55.7437H142.228V50.5474H141.204V53.7105L139.198 50.5474H138.322V55.7437Z" fill="#163459"/>
    <path d="M146.971 55.7437H149.989V54.6361H148.003V50.5474H146.971V55.7437Z" fill="#163459"/>
    <path d="M154.361 55.7437H155.393V50.5474H154.361V55.7437Z" fill="#163459"/>
    <path d="M160.136 55.7437H161.162V52.5582L163.166 55.7437H164.042V50.5474H163.018V53.7105L161.012 50.5474H160.136V55.7437Z" fill="#163459"/>
    <path d="M168.785 55.7437H171.842V54.7415H169.811V53.6052H171.594V52.6189H169.811V51.5432H171.77V50.5474H168.785V55.7437Z" fill="#163459"/>
</svg>
