<svg width="50" height="32" viewBox="0 0 50 32" fill="none" xmlns="http://www.w3.org/2000/svg">
    <path d="M25 22.25C26.6576 22.25 28.2473 21.5915 29.4194 20.4194C30.5915 19.2473 31.25 17.6576 31.25 16C31.25 14.3424 30.5915 12.7527 29.4194 11.5806C28.2473 10.4085 26.6576 9.75 25 9.75C23.3424 9.75 21.7527 10.4085 20.5806 11.5806C19.4085 12.7527 18.75 14.3424 18.75 16C18.75 17.6576 19.4085 19.2473 20.5806 20.4194C21.7527 21.5915 23.3424 22.25 25 22.25Z" fill="#27BE65"/>
    <path d="M0 3.5C0 2.6712 0.32924 1.87634 0.915291 1.29029C1.50134 0.70424 2.2962 0.375 3.125 0.375H46.875C47.7038 0.375 48.4987 0.70424 49.0847 1.29029C49.6708 1.87634 50 2.6712 50 3.5V28.5C50 29.3288 49.6708 30.1237 49.0847 30.7097C48.4987 31.2958 47.7038 31.625 46.875 31.625H3.125C2.2962 31.625 1.50134 31.2958 0.915291 30.7097C0.32924 30.1237 0 29.3288 0 28.5V3.5ZM9.375 3.5C9.375 5.1576 8.71652 6.74732 7.54442 7.91942C6.37232 9.09152 4.7826 9.75 3.125 9.75V22.25C4.7826 22.25 6.37232 22.9085 7.54442 24.0806C8.71652 25.2527 9.375 26.8424 9.375 28.5H40.625C40.625 26.8424 41.2835 25.2527 42.4556 24.0806C43.6277 22.9085 45.2174 22.25 46.875 22.25V9.75C45.2174 9.75 43.6277 9.09152 42.4556 7.91942C41.2835 6.74732 40.625 5.1576 40.625 3.5H9.375Z" fill="#27BE65"/>
</svg>
