<svg width="38" height="38" viewBox="0 0 38 38" fill="none" xmlns="http://www.w3.org/2000/svg">
    <path d="M0.25 16.9167V0.25H16.9167V16.9167H0.25ZM4.41667 12.75H12.75V4.41667H4.41667V12.75ZM0.25 37.75V21.0833H16.9167V37.75H0.25ZM4.41667 33.5833H12.75V25.25H4.41667V33.5833ZM21.0833 16.9167V0.25H37.75V16.9167H21.0833ZM25.25 12.75H33.5833V4.41667H25.25V12.75ZM33.5833 37.75V33.5833H37.75V37.75H33.5833ZM21.0833 25.25V21.0833H25.25V25.25H21.0833ZM25.25 29.4167V25.25H29.4167V29.4167H25.25ZM21.0833 33.5833V29.4167H25.25V33.5833H21.0833ZM25.25 37.75V33.5833H29.4167V37.75H25.25ZM29.4167 33.5833V29.4167H33.5833V33.5833H29.4167ZM29.4167 25.25V21.0833H33.5833V25.25H29.4167ZM33.5833 29.4167V25.25H37.75V29.4167H33.5833Z" fill="#404D61"/>
</svg>
