<svg width="36" height="36" viewBox="0 0 36 36" fill="none" xmlns="http://www.w3.org/2000/svg">
    <rect width="36" height="36" rx="4" fill="#F2E6FF"/>
    <mask id="mask0_4202_3009" style="mask-type:alpha" maskUnits="userSpaceOnUse" x="6" y="6" width="24" height="24">
        <rect x="6" y="6" width="24" height="24" fill="#D9D9D9"/>
    </mask>
    <g mask="url(#mask0_4202_3009)">
        <path d="M17.9996 27.9999C16.7496 27.9999 15.5788 27.7624 14.4871 27.2874C13.3954 26.8124 12.4454 26.1707 11.6371 25.3624C10.8288 24.554 10.1871 23.604 9.71211 22.5124C9.23711 21.4207 8.99961 20.2499 8.99961 18.9999C8.99961 17.7499 9.23711 16.579 9.71211 15.4874C10.1871 14.3957 10.8288 13.4457 11.6371 12.6374C12.4454 11.829 13.3954 11.1874 14.4871 10.7124C15.5788 10.2374 16.7496 9.99985 17.9996 9.99985C19.2496 9.99985 20.4204 10.2374 21.5121 10.7124C22.6038 11.1874 23.5538 11.829 24.3621 12.6374C25.1704 13.4457 25.8121 14.3957 26.2871 15.4874C26.7621 16.579 26.9996 17.7499 26.9996 18.9999C26.9996 20.2499 26.7621 21.4207 26.2871 22.5124C25.8121 23.604 25.1704 24.554 24.3621 25.3624C23.5538 26.1707 22.6038 26.8124 21.5121 27.2874C20.4204 27.7624 19.2496 27.9999 17.9996 27.9999ZM20.7996 23.1999L22.1996 21.7999L18.9996 18.5999V13.9999H16.9996V19.3999L20.7996 23.1999ZM11.5996 8.34985L12.9996 9.74985L8.74961 13.9999L7.34961 12.5999L11.5996 8.34985ZM24.3996 8.34985L28.6496 12.5999L27.2496 13.9999L22.9996 9.74985L24.3996 8.34985Z" fill="#8C2EEB"/>
    </g>
</svg>
