<svg width="28" height="28" viewBox="0 0 28 28" fill="none" xmlns="http://www.w3.org/2000/svg">
    <rect width="28" height="28" rx="4" fill="#FAE7EA"/>
    <mask id="mask0_4712_1788" style="mask-type:alpha" maskUnits="userSpaceOnUse" x="5" y="5" width="18" height="18">
        <rect x="5" y="5" width="18" height="18" fill="#D9D9D9"/>
    </mask>
    <g mask="url(#mask0_4712_1788)">
        <path d="M8.46846 19.5799C8.06463 19.5799 7.71893 19.4381 7.43136 19.1547C7.14379 18.8712 7 18.5304 7 18.1324V9.44748C7 9.04943 7.14379 8.70866 7.43136 8.4252C7.71893 8.14173 8.06463 8 8.46846 8H20.2161C20.6199 8 20.9656 8.14173 21.2532 8.4252C21.5408 8.70866 21.6846 9.04943 21.6846 9.44748V18.1324C21.6846 18.5304 21.5408 18.8712 21.2532 19.1547C20.9656 19.4381 20.6199 19.5799 20.2161 19.5799H8.46846ZM14.3423 14.5137L20.2161 10.895V9.44748L14.3423 13.0662L8.46846 9.44748V10.895L14.3423 14.5137Z" fill="#C91330"/>
    </g>
</svg>
