<svg width="28" height="28" viewBox="0 0 28 28" fill="none" xmlns="http://www.w3.org/2000/svg">
    <rect width="28" height="28" rx="4" fill="#FFF6DC"/>
    <mask id="mask0_4712_1795" style="mask-type:alpha" maskUnits="userSpaceOnUse" x="5" y="5" width="19" height="19">
        <rect x="5.23926" y="5.45459" width="18" height="18" fill="#D9D9D9"/>
    </mask>
    <g mask="url(#mask0_4712_1795)">
        <path d="M14.4054 21.4748C13.1082 21.4748 12.0497 21.2728 11.2298 20.8687C10.4099 20.4646 10 19.9429 10 19.3036C10 18.8814 10.1774 18.5135 10.5323 18.1999C10.8872 17.8863 11.3767 17.639 12.0008 17.4581L12.423 18.8332C12.2149 18.8935 12.0252 18.9689 11.8539 19.0593C11.6826 19.1498 11.5664 19.2312 11.5052 19.3036C11.6643 19.4966 12.0314 19.6655 12.6065 19.8102C13.1817 19.955 13.7813 20.0274 14.4054 20.0274C15.0295 20.0274 15.6321 19.955 16.2134 19.8102C16.7947 19.6655 17.1649 19.4966 17.3239 19.3036C17.2627 19.2312 17.1465 19.1498 16.9752 19.0593C16.8039 18.9689 16.6142 18.8935 16.4061 18.8332L16.8283 17.4581C17.4524 17.639 17.9389 17.8863 18.2876 18.1999C18.6364 18.5135 18.8107 18.8814 18.8107 19.3036C18.8107 19.9429 18.4008 20.4646 17.5809 20.8687C16.761 21.2728 15.7025 21.4748 14.4054 21.4748ZM14.4054 19.3036C14.2708 19.3036 14.1484 19.2644 14.0383 19.186C13.9281 19.1076 13.8486 19.0021 13.7996 18.8694C13.5182 18.0129 13.1633 17.2952 12.735 16.7162C12.3067 16.1372 11.8906 15.5824 11.4868 15.0516C11.0952 14.5209 10.7556 13.972 10.4681 13.4051C10.1805 12.8382 10.0367 12.1386 10.0367 11.3063C10.0367 10.1 10.4589 9.08076 11.3033 8.24845C12.1476 7.41615 13.1817 7 14.4054 7C15.6291 7 16.6631 7.41615 17.5075 8.24845C18.3519 9.08076 18.774 10.1 18.774 11.3063C18.774 12.1386 18.6333 12.8382 18.3519 13.4051C18.0704 13.972 17.7278 14.5209 17.3239 15.0516C16.9323 15.5824 16.5193 16.1372 16.0849 16.7162C15.6505 17.2952 15.2926 18.0129 15.0111 18.8694C14.9622 19.0021 14.8826 19.1076 14.7725 19.186C14.6624 19.2644 14.54 19.3036 14.4054 19.3036ZM14.4054 12.8442C14.8337 12.8442 15.2008 12.6934 15.5067 12.3919C15.8126 12.0903 15.9656 11.7284 15.9656 11.3063C15.9656 10.8841 15.8126 10.5222 15.5067 10.2207C15.2008 9.91909 14.8337 9.76831 14.4054 9.76831C13.9771 9.76831 13.61 9.91909 13.304 10.2207C12.9981 10.5222 12.8451 10.8841 12.8451 11.3063C12.8451 11.7284 12.9981 12.0903 13.304 12.3919C13.61 12.6934 13.9771 12.8442 14.4054 12.8442Z" fill="#EBBC2E"/>
    </g>
</svg>
