<svg width="28" height="28" viewBox="0 0 28 28" fill="none" xmlns="http://www.w3.org/2000/svg">
    <rect width="28" height="28" rx="4" fill="#E9EFF6"/>
    <mask id="mask0_4202_3009" style="mask-type:alpha" maskUnits="userSpaceOnUse" x="5" y="5" width="18" height="18">
        <rect x="5" y="5" width="18" height="18" fill="#D9D9D9"/>
    </mask>
    <g mask="url(#mask0_4202_3009)">
        <path d="M19.4788 20.5C18.0679 20.5 16.674 20.1594 15.297 19.4781C13.92 18.7969 12.6671 17.8313 11.5384 16.5813C10.4098 15.3313 9.53784 13.9437 8.92271 12.4187C8.30757 10.8937 8 9.35 8 7.7875C8 7.5625 8.06772 7.375 8.20316 7.225C8.33861 7.075 8.50791 7 8.71108 7H11.4538C11.6118 7 11.7529 7.05937 11.8771 7.17812C12.0012 7.29688 12.0746 7.4375 12.0972 7.6L12.5373 10.225C12.5599 10.425 12.5543 10.5938 12.5204 10.7312C12.4866 10.8687 12.4245 10.9875 12.3342 11.0875L10.6919 12.925C10.9177 13.3875 11.1857 13.8344 11.4961 14.2656C11.8065 14.6969 12.1479 15.1125 12.5204 15.5125C12.8703 15.9 13.2371 16.2594 13.6209 16.5906C14.0046 16.9219 14.411 17.225 14.8399 17.5L16.4313 15.7375C16.5329 15.625 16.6655 15.5406 16.8292 15.4844C16.9929 15.4281 17.1537 15.4125 17.3117 15.4375L19.6481 15.9625C19.8061 16.0125 19.9359 16.1031 20.0375 16.2344C20.1391 16.3656 20.1899 16.5125 20.1899 16.675V19.7125C20.1899 19.9375 20.1222 20.125 19.9867 20.275C19.8513 20.425 19.682 20.5 19.4788 20.5Z" fill="#2360A6"/>
    </g>
</svg>
