<svg width="28" height="28" viewBox="0 0 28 28" fill="none" xmlns="http://www.w3.org/2000/svg">
    <rect width="28" height="28" rx="4" fill="#7360F2"/>
    <path d="M13.7929 6.08002C13.3021 6.08283 12.8099 6.11236 12.3135 6.17283C11.3643 6.28955 10.4235 6.48361 9.52072 6.89845C8.08494 7.55799 7.06682 8.67736 6.7715 10.3044C6.64635 10.9906 6.5451 11.6867 6.48744 12.387C6.37635 13.7469 6.44525 15.111 6.83057 16.4511C7.13432 17.5072 7.694 18.4564 8.67416 19.0724C9.089 19.3325 9.63604 19.4591 9.9215 19.5913C10.0017 19.6292 10.0213 19.6517 10.0256 19.6574C10.0298 19.6616 10.041 19.6714 10.0396 19.7558C10.0298 20.6164 10.0396 22.2814 10.0396 22.2814L10.041 22.64H10.6837L10.7878 22.5388C10.7878 22.5388 12.4204 20.968 13.011 20.3211C13.1179 20.2058 13.1728 20.1411 13.184 20.1341C13.1938 20.127 13.177 20.1228 13.2867 20.12C14.0615 20.1045 14.8349 20.075 15.6084 20.0328C16.6279 19.9766 17.6671 19.8795 18.667 19.4619C19.5374 19.0977 20.2645 18.5028 20.7046 17.6113C21.1546 16.6972 21.3951 15.7283 21.4851 14.7256C21.6342 13.0564 21.5821 11.3844 21.1209 9.73627C20.8495 8.77017 20.3038 7.95314 19.4671 7.37658C18.4659 6.68752 17.3367 6.42877 16.2313 6.26424C15.5859 6.16861 14.9362 6.10533 14.2837 6.08564C14.1206 6.08142 13.9574 6.07861 13.7929 6.08002ZM14.264 6.80564C14.8842 6.82252 15.5043 6.88299 16.1259 6.9758C17.1918 7.1347 18.1973 7.37658 19.0593 7.97002C19.7582 8.45095 20.1942 9.10064 20.4276 9.92892C20.8579 11.4702 20.9128 13.0494 20.7679 14.6624C20.6849 15.5919 20.4642 16.468 20.0578 17.2935C19.6992 18.0219 19.1395 18.4845 18.3885 18.7981C17.5167 19.1624 16.5688 19.2594 15.5704 19.3142C14.8054 19.3564 14.039 19.3845 13.2726 19.4C13.0799 19.4042 12.8915 19.4549 12.7579 19.5533C12.6243 19.6517 12.5638 19.7431 12.4809 19.8331C12.059 20.2944 11.2181 21.1058 10.7596 21.5502C10.7568 21.013 10.7526 20.3633 10.7596 19.7642C10.7624 19.58 10.7203 19.3916 10.6148 19.2425C10.5093 19.0935 10.3645 19.0035 10.2253 18.9388C9.81885 18.7503 9.28729 18.6069 9.05666 18.462C8.25088 17.9558 7.79385 17.1964 7.52244 16.2514C7.16666 15.0153 7.09916 13.7427 7.20463 12.4475C7.26088 11.7753 7.35791 11.1017 7.48025 10.4338C7.73619 9.02611 8.54057 8.14017 9.82025 7.55236C10.6288 7.18111 11.4923 6.9983 12.4021 6.8872C13.0223 6.81127 13.6424 6.78736 14.264 6.80564ZM14.4159 8.60002C14.1192 8.60002 13.8309 8.63377 13.551 8.69564C13.3584 8.74064 13.236 8.9333 13.2796 9.12736C13.3232 9.32142 13.5173 9.44236 13.7113 9.39877C13.9378 9.34674 14.174 9.32002 14.4159 9.32002C16.1737 9.32002 17.5912 10.7375 17.5912 12.4939C17.5912 12.7372 17.5645 12.9735 17.5124 13.2013C17.4688 13.3939 17.5898 13.588 17.7838 13.6316C17.9779 13.6752 18.1706 13.5528 18.2142 13.3588C18.2774 13.0803 18.3112 12.792 18.3112 12.4939C18.3112 10.348 16.5632 8.60002 14.4159 8.60002ZM10.8243 9.32142C10.7653 9.31861 10.7048 9.32283 10.6415 9.33689C9.9876 9.48174 9.33791 9.95564 9.31963 10.8022C9.33791 10.9203 9.3365 11.0469 9.3801 11.1538C9.59385 11.6769 9.77947 12.2169 10.0467 12.7119C11.3474 15.1166 13.3148 16.7886 15.8221 17.8503C16.1217 17.9769 16.431 18.0036 16.7334 17.877C17.1496 17.7041 17.5026 17.4369 17.7374 17.053C18.0595 16.5256 18.0637 16.16 17.5335 15.7705C17.1862 15.5145 16.8445 15.2516 16.4929 15.0013C15.9571 14.6216 15.3778 14.5555 14.9784 15.222C14.9573 15.2558 14.9263 15.2839 14.8996 15.312C14.6943 15.53 14.4426 15.5835 14.1754 15.4738C13.1615 15.0561 12.3782 14.3825 11.9057 13.3799C11.6273 12.7906 11.7032 12.4953 12.2235 12.103C12.2756 12.065 12.3248 12.0242 12.3726 11.9806C12.6004 11.7725 12.6609 11.525 12.5259 11.2452C12.2207 10.6067 11.8143 10.0372 11.2996 9.54642C11.1604 9.41424 11.0015 9.33127 10.8243 9.32142ZM14.4103 9.68002C14.2513 9.68002 14.0938 9.69267 13.9392 9.71939C13.8084 9.73627 13.6973 9.82345 13.6495 9.9458C13.6017 10.0695 13.6256 10.2088 13.7099 10.31C13.7957 10.4099 13.9307 10.4563 14.0601 10.4281C14.1726 10.4099 14.2907 10.4 14.4103 10.4C15.5803 10.4 16.5196 11.3394 16.5196 12.5094C16.5196 12.6289 16.5098 12.747 16.4915 12.8595C16.4634 12.9889 16.5098 13.1239 16.6096 13.2097C16.7109 13.2941 16.8501 13.318 16.9738 13.2702C17.0962 13.2224 17.1834 13.1113 17.2003 12.9805C17.227 12.8258 17.2396 12.6683 17.2396 12.5094C17.2396 10.9513 15.9684 9.68002 14.4103 9.68002ZM14.3596 10.76C14.2303 10.7586 14.1093 10.8261 14.0432 10.9386C13.9785 11.0511 13.9785 11.1889 14.0432 11.3014C14.1093 11.4139 14.2303 11.4814 14.3596 11.48C14.9601 11.48 15.4396 11.9595 15.4396 12.56C15.4382 12.6894 15.5057 12.8103 15.6182 12.8764C15.7307 12.9411 15.8685 12.9411 15.981 12.8764C16.0935 12.8103 16.161 12.6894 16.1596 12.56C16.1596 11.57 15.3496 10.76 14.3596 10.76Z" fill="white"/>
</svg>
