<svg width="150" height="129" viewBox="0 0 150 129" fill="none" xmlns="http://www.w3.org/2000/svg">
    <g clip-path="url(#clip0_4868_6244)">
        <path d="M87.963 10.3408C71.4891 27.2737 62.8619 28.5232 41.9659 37.916C24.885 45.5853 7.9775 60.4931 2.21161 79.0633C-13.0052 127.966 54.5382 134.084 86.4457 126.07C108.902 120.469 117.876 107.5 123.556 86.0001C125.767 77.6414 126.417 68.5933 130.058 60.6655C133.96 52.1344 141.98 47.9551 145.969 40.4581C165.304 4.13641 109.943 -12.2363 87.963 10.3408Z" fill="#2360A6"/>
        <path opacity="0.9" d="M87.963 10.3408C71.4891 27.2737 62.8619 28.5232 41.9659 37.916C24.885 45.5853 7.9775 60.4931 2.21161 79.0633C-13.0052 127.966 54.5382 134.084 86.4457 126.07C108.902 120.469 117.876 107.5 123.556 86.0001C125.767 77.6414 126.417 68.5933 130.058 60.6655C133.96 52.1344 141.98 47.9551 145.969 40.4581C165.304 4.13641 109.943 -12.2363 87.963 10.3408Z" fill="white"/>
        <path d="M9.32129 26.0672C9.32129 24.5591 10.5352 23.3527 12.0525 23.3527H133.526C135.044 23.3527 136.258 24.5591 136.258 26.0672V34.7706H9.32129V26.0672Z" fill="#404D61"/>
        <path d="M31.3446 31.3668C30.0873 31.3668 29.0469 30.3327 29.0469 29.0832C29.0469 27.8337 30.0873 26.7996 31.3446 26.7996C32.6018 26.7996 33.6423 27.8337 33.6423 29.0832C33.6423 30.3327 32.6018 31.3668 31.3446 31.3668ZM31.3446 27.2736C30.3475 27.2736 29.5238 28.0922 29.5238 29.0832C29.5238 30.0742 30.3475 30.8928 31.3446 30.8928C32.3417 30.8928 33.1654 30.0742 33.1654 29.0832C33.1654 28.0922 32.3417 27.2736 31.3446 27.2736Z" fill="white"/>
        <path d="M24.0614 31.3668C22.8041 31.3668 21.7637 30.3327 21.7637 29.0832C21.7637 27.8337 22.8041 26.7996 24.0614 26.7996C25.3186 26.7996 26.359 27.8337 26.359 29.0832C26.359 30.3327 25.3186 31.3668 24.0614 31.3668ZM24.0614 27.2736C23.0642 27.2736 22.2405 28.0922 22.2405 29.0832C22.2405 30.0742 23.0642 30.8928 24.0614 30.8928C25.0585 30.8928 25.8822 30.0742 25.8822 29.0832C25.8822 28.0922 25.0585 27.2736 24.0614 27.2736Z" fill="white"/>
        <path d="M16.7342 31.3668C15.477 31.3668 14.4365 30.3327 14.4365 29.0832C14.4365 27.8337 15.477 26.7996 16.7342 26.7996C17.9914 26.7996 19.0319 27.8337 19.0319 29.0832C19.0319 30.3327 18.0348 31.3668 16.7342 31.3668ZM16.7342 27.2736C15.7371 27.2736 14.9134 28.0922 14.9134 29.0832C14.9134 30.0742 15.7371 30.8928 16.7342 30.8928C17.7313 30.8928 18.555 30.0742 18.555 29.0832C18.555 28.0922 17.7747 27.2736 16.7342 27.2736Z" fill="white"/>
        <path d="M133.526 117.841H12.0525C10.5352 117.841 9.32129 116.634 9.32129 115.126V34.7706H136.258V115.169C136.258 116.634 135.044 117.841 133.526 117.841Z" fill="#2360A6"/>
        <path d="M135.477 37.0972H10.1016V108.319H135.477V37.0972Z" fill="white"/>
        <path d="M65.6798 52.8237H17.9052C16.9948 52.8237 16.2578 52.0912 16.2578 51.1864V44.8527C16.2578 43.9479 16.9948 43.2155 17.9052 43.2155H65.6798C66.5902 43.2155 67.3272 43.9479 67.3272 44.8527V51.1864C67.3272 52.0912 66.5902 52.8237 65.6798 52.8237Z" fill="#2360A6"/>
        <path d="M127.674 43.6463C128.324 43.6463 128.887 44.2064 128.887 44.8527V51.1864C128.887 51.8327 128.324 52.3928 127.674 52.3928H79.9423C79.292 52.3928 78.7284 51.8327 78.7284 51.1864V44.8527C78.7284 44.2064 79.292 43.6463 79.9423 43.6463H127.674ZM127.674 43.2155H79.9423C79.0319 43.2155 78.2949 43.9479 78.2949 44.8527V51.1864C78.2949 52.0912 79.0319 52.8237 79.9423 52.8237H127.717C128.627 52.8237 129.364 52.0912 129.364 51.1864V44.8527C129.321 43.9479 128.584 43.2155 127.674 43.2155Z" fill="#2360A6"/>
        <path d="M24.7549 57.1323C29.1769 57.1323 32.8185 60.7084 32.8185 65.1463C32.8185 69.5411 29.2202 73.1603 24.7549 73.1603C20.333 73.1603 16.6913 69.5842 16.6913 65.1463C16.6913 60.7084 20.2896 57.1323 24.7549 57.1323ZM24.7549 56.7014C20.0728 56.7014 16.2578 60.493 16.2578 65.1463C16.2578 69.7996 20.0728 73.5912 24.7549 73.5912C29.437 73.5912 33.252 69.7996 33.252 65.1463C33.2087 60.493 29.437 56.7014 24.7549 56.7014Z" fill="#2360A6"/>
        <path opacity="0.4" d="M30.9108 68.4639C29.7403 70.6182 27.3992 72.1262 24.7547 72.1262C22.1102 72.1262 19.7692 70.6613 18.5986 68.4639C20.3761 67.3006 22.5004 66.6112 24.7547 66.6112C27.009 66.6112 29.1333 67.2575 30.9108 68.4639Z" fill="#2360A6"/>
        <path opacity="0.4" d="M24.7552 65.8357C26.4791 65.8357 27.8766 64.4468 27.8766 62.7335C27.8766 61.0202 26.4791 59.6313 24.7552 59.6313C23.0313 59.6313 21.6338 61.0202 21.6338 62.7335C21.6338 64.4468 23.0313 65.8357 24.7552 65.8357Z" fill="#2360A6"/>
        <path opacity="0.4" d="M124.986 69.4549H42.3562C39.9284 69.4549 37.9775 67.5161 37.9775 65.1032C37.9775 62.6904 39.9284 60.7515 42.3562 60.7515H124.986C127.414 60.7515 129.365 62.6904 129.365 65.1032C129.321 67.5161 127.371 69.4549 124.986 69.4549Z" fill="#2360A6"/>
        <path d="M24.7549 80.0972C29.1769 80.0972 32.8185 83.6733 32.8185 88.1112C32.8185 92.506 29.2202 96.1252 24.7549 96.1252C20.333 96.1252 16.6913 92.5491 16.6913 88.1112C16.6913 83.7164 20.2896 80.0972 24.7549 80.0972ZM24.7549 79.6663C20.0728 79.6663 16.2578 83.4579 16.2578 88.1112C16.2578 92.7645 20.0728 96.5561 24.7549 96.5561C29.437 96.5561 33.252 92.7645 33.252 88.1112C33.2087 83.4579 29.437 79.6663 24.7549 79.6663Z" fill="#2360A6"/>
        <path opacity="0.4" d="M30.9108 91.4289C29.7403 93.5832 27.3992 95.0912 24.7547 95.0912C22.1102 95.0912 19.7692 93.6263 18.5986 91.4289C20.3761 90.2656 22.5004 89.5762 24.7547 89.5762C27.009 89.5762 29.1333 90.2656 30.9108 91.4289Z" fill="#2360A6"/>
        <path opacity="0.4" d="M24.7552 88.8437C26.4791 88.8437 27.8766 87.4548 27.8766 85.7415C27.8766 84.0282 26.4791 82.6393 24.7552 82.6393C23.0313 82.6393 21.6338 84.0282 21.6338 85.7415C21.6338 87.4548 23.0313 88.8437 24.7552 88.8437Z" fill="#2360A6"/>
        <path opacity="0.4" d="M124.986 92.4629H42.3562C39.9284 92.4629 37.9775 90.5241 37.9775 88.1112C37.9775 85.6984 39.9284 83.7595 42.3562 83.7595H124.986C127.414 83.7595 129.365 85.6984 129.365 88.1112C129.321 90.5241 127.371 92.4629 124.986 92.4629Z" fill="#2360A6"/>
    </g>
    <defs>
        <clipPath id="clip0_4868_6244">
            <rect width="150" height="129" fill="white"/>
        </clipPath>
    </defs>
</svg>
