<svg width="267" height="277" viewBox="0 0 267 277" fill="none" xmlns="http://www.w3.org/2000/svg">
<path d="M198.382 60.4078C201.87 55.9217 201.049 49.4665 196.55 45.9896C192.051 42.5127 185.576 43.3307 182.089 47.8168C178.602 52.3028 179.422 58.758 183.921 62.235C188.421 65.7119 194.895 64.8938 198.382 60.4078Z" fill="#C91330"/>
<path d="M187.322 115.411C190.221 111.683 189.539 106.318 185.799 103.428C182.06 100.539 176.679 101.219 173.781 104.947C170.883 108.675 171.565 114.04 175.304 116.93C179.043 119.819 184.424 119.139 187.322 115.411Z" fill="#C91330"/>
<path d="M179.244 198.28C181.812 194.976 181.208 190.222 177.894 187.661C174.581 185.1 169.812 185.703 167.244 189.007C164.676 192.31 165.28 197.065 168.594 199.625C171.907 202.186 176.676 201.584 179.244 198.28Z" fill="#C91330"/>
<path d="M207.438 189.944C210.336 186.216 209.654 180.851 205.915 177.962C202.176 175.072 196.795 175.752 193.897 179.48C190.998 183.208 191.68 188.573 195.42 191.463C199.159 194.352 204.54 193.673 207.438 189.944Z" fill="#C91330"/>
<path d="M203.13 158.532C206.358 154.379 205.599 148.404 201.434 145.185C197.269 141.967 191.276 142.724 188.048 146.877C184.82 151.029 185.579 157.005 189.744 160.223C193.909 163.442 199.902 162.685 203.13 158.532Z" fill="#C91330"/>
<path d="M221.571 36.8696L191.416 51.5903L151.371 18.2605L137.024 45.4104L99.0687 12.3583V7.70605L45.1648 93.0442L45.0255 93.2525L31.0968 157.204L9.92529 164.495L25.1075 184.562L17.0289 221.572L20.0236 222.197L27.545 187.756L55.9595 225.252L48.7166 245.806L51.6416 246.847L58.1881 228.238L90.6418 271.081L93.0794 269.206L59.4417 224.766L67.7292 201.019L102.899 222.614L96.0044 258.721L98.999 259.276L105.615 224.35L128.18 262.887L130.826 261.36L111.117 227.752L155.271 254.902L156.873 252.333L107.844 222.197L107.565 221.711L115.574 216.225L144.406 206.018L160.355 251.708L163.28 250.736L147.331 204.907L173.03 195.811L189.048 252.055L191.973 251.222L176.721 197.477L221.989 228.794L223.73 226.294L177.417 194.283L199.843 186.298L230.137 217.823L232.366 215.739L203.046 185.257L236.684 173.313L235.639 170.466L201.723 182.479L199.494 152.899L243.23 153.454L243.3 150.399L198.867 149.844L183.546 115.333L244.902 150.191L246.434 147.552L181.457 110.612L165.16 73.8796L252.841 150.191L254.861 147.899L163.628 68.4635L190.998 55.1316L247.478 102.21L249.428 99.849L193.992 53.6734L222.894 39.5777L221.571 36.8696ZM158.474 67.9774L146.008 76.7265L140.158 52.0763L158.474 67.9774ZM136.189 48.6045L143.292 78.6013L135.283 84.2257L98.8597 63.5334L99.1383 16.3162L136.189 48.6045ZM159.589 147.691L99.8348 112.764L135.422 87.8364L147.053 94.4329L159.589 147.691ZM62.3667 150.469L74.7632 171.647L66.0578 196.436L30.4701 174.563L33.7433 159.565L61.6702 149.983L61.9488 150.955L62.3667 150.469ZM64.5953 148.177L93.2883 118.875L76.0864 167.828L64.5953 148.177ZM98.7901 67.0747L132.428 86.1699L98.5115 109.917L98.7901 67.0747ZM95.4472 110.681L48.7862 93.0442L68.2167 62.353L95.7954 65.7554L95.4472 110.681ZM94.2633 113.528L63.4113 145.053L48.8559 96.3772L94.2633 113.528ZM136.258 171.577L108.262 168.106L99.0687 115.889L126.996 132.207L136.258 171.577ZM140.506 176.438L170.453 193.45L146.496 201.921L140.506 176.438ZM139.601 172.341L130.687 134.29L160.633 151.788L171.637 190.534L139.601 172.341ZM138.139 85.9616L143.989 81.8648L146.008 90.475L138.139 85.9616ZM95.7258 62.7002L69.9578 59.5061L96.0044 18.3299L95.7258 62.7002ZM46.6969 99.9879L60.7649 146.997L34.4397 156.024L46.6969 99.9879ZM27.6843 172.758L15.9843 165.606L30.3308 160.676L27.6843 172.758ZM18.5611 170.814L26.9879 175.952L26.0129 180.535L18.5611 170.814ZM57.1434 221.78L28.3808 183.798L29.704 177.688L64.9435 199.352L57.1434 221.78ZM76.7828 175.049L102.342 218.656L68.7042 198.033L76.7828 175.049ZM78.1061 171.3L96.4919 118.944L113.276 214.073L106.103 219.003L78.1061 171.3ZM108.819 171.23L136.955 174.702L143.571 202.963L116.062 212.684L108.819 171.23ZM198.659 183.451L175.119 191.784L163.907 152.343L196.36 152.76L198.659 183.451ZM195.455 149.705L163.14 149.288L150.674 96.516L179.089 112.625L195.455 149.705ZM149.699 92.4887L146.705 79.9206L160.285 70.4077L176.93 107.904L149.699 92.4887ZM161.121 66.3109L139.462 47.424L152.415 22.9822L188.491 52.979L161.121 66.3109Z" fill="#C91330"/>
<path d="M21.8601 171.866C25.206 167.562 24.4187 161.369 20.1018 158.033C15.7848 154.697 9.57289 155.482 6.22704 159.786C2.88118 164.09 3.66841 170.284 7.98537 173.62C12.3023 176.956 18.5142 176.171 21.8601 171.866Z" fill="#C91330"/>
<path d="M64.7031 229.431C67.5777 225.733 66.9013 220.412 63.1924 217.546C59.4835 214.68 54.1464 215.354 51.2718 219.052C48.3972 222.75 49.0736 228.071 52.7825 230.938C56.4914 233.804 61.8285 233.129 64.7031 229.431Z" fill="#C91330"/>
<path d="M71.3468 203.589C73.8444 200.376 73.2567 195.753 70.0342 193.263C66.8117 190.772 62.1746 191.358 59.677 194.571C57.1794 197.784 57.767 202.408 60.9895 204.898C64.2121 207.388 68.8491 206.802 71.3468 203.589Z" fill="#C91330"/>
<path d="M110.749 223.756C112.94 220.937 112.425 216.881 109.598 214.696C106.77 212.511 102.702 213.025 100.511 215.844C98.3192 218.663 98.8348 222.719 101.662 224.904C104.489 227.089 108.558 226.575 110.749 223.756Z" fill="#C91330"/>
<path d="M102.99 119.44C105.889 115.712 105.207 110.347 101.467 107.457C97.7279 104.568 92.3472 105.248 89.449 108.976C86.5508 112.704 87.2327 118.069 90.9721 120.959C94.7114 123.848 100.092 123.168 102.99 119.44Z" fill="#C91330"/>
<path d="M66.8399 152.76C69.4317 149.426 68.8219 144.628 65.4778 142.044C62.1337 139.46 57.3216 140.068 54.7297 143.402C52.1379 146.736 52.7477 151.534 56.0918 154.118C59.4359 156.702 64.248 156.094 66.8399 152.76Z" fill="#C91330"/>
<path d="M59.177 104.347C63.866 98.3148 62.7627 89.6351 56.7129 84.9601C50.6631 80.285 41.9576 81.385 37.2687 87.4169C32.5798 93.4488 33.683 102.128 39.7328 106.804C45.7827 111.479 54.4881 110.379 59.177 104.347Z" fill="#C91330"/>
<path d="M107.193 21.5092C110.703 16.9929 109.877 10.494 105.348 6.99363C100.818 3.49323 94.2998 4.31682 90.789 8.83317C87.2782 13.3495 88.1042 19.8484 92.634 23.3488C97.1638 26.8492 103.682 26.0256 107.193 21.5092Z" fill="#C91330"/>
<path d="M143.423 55.3466C146.25 51.7093 145.585 46.4753 141.937 43.6562C138.289 40.837 133.039 41.5003 130.212 45.1377C127.384 48.775 128.05 54.009 131.698 56.8281C135.346 59.6472 140.595 58.9839 143.423 55.3466Z" fill="#C91330"/>
<path d="M104.016 71.5366C107.102 67.5658 106.376 61.8521 102.393 58.7746C98.411 55.697 92.6802 56.4211 89.5935 60.3919C86.5069 64.3626 87.2331 70.0764 91.2157 73.1539C95.1982 76.2314 100.929 75.5073 104.016 71.5366Z" fill="#C91330"/>
<path d="M148.971 92.1582C152.765 87.2781 151.872 80.2558 146.977 76.4735C142.083 72.6912 135.04 73.5811 131.246 78.4612C127.453 83.3413 128.345 90.3635 133.24 94.1458C138.134 97.9282 145.178 97.0382 148.971 92.1582Z" fill="#C91330"/>
<path d="M159.441 27.7457C162.764 23.4719 161.982 17.3219 157.696 14.0095C153.409 10.697 147.241 11.4764 143.919 15.7503C140.596 20.0241 141.378 26.174 145.664 29.4865C149.951 32.799 156.119 32.0196 159.441 27.7457Z" fill="#C91330"/>
<path d="M167.324 71.3431C169.963 67.9483 169.342 63.0632 165.937 60.432C162.532 57.8009 157.632 58.4199 154.993 61.8148C152.354 65.2096 152.975 70.0947 156.38 72.7258C159.785 75.357 164.685 74.7379 167.324 71.3431Z" fill="#C91330"/>
<path d="M166.589 153.153C169.039 150.001 168.463 145.465 165.301 143.021C162.139 140.578 157.59 141.153 155.139 144.305C152.689 147.458 153.265 151.994 156.427 154.437C159.589 156.88 164.138 156.305 166.589 153.153Z" fill="#C91330"/>
<path d="M135.15 134.953C137.412 132.043 136.879 127.856 133.961 125.601C131.042 123.345 126.843 123.876 124.581 126.786C122.319 129.696 122.851 133.883 125.769 136.138C128.688 138.394 132.888 137.863 135.15 134.953Z" fill="#C91330"/>
<path d="M144.368 179.282C147.643 175.069 146.873 169.006 142.647 165.74C138.421 162.475 132.34 163.243 129.065 167.456C125.79 171.67 126.561 177.732 130.786 180.998C135.012 184.263 141.093 183.495 144.368 179.282Z" fill="#C91330"/>
<path d="M149.327 206.294C151.754 203.172 151.183 198.68 148.052 196.26C144.92 193.84 140.414 194.41 137.987 197.532C135.561 200.654 136.132 205.146 139.263 207.566C142.394 209.986 146.9 209.416 149.327 206.294Z" fill="#C91330"/>
<path d="M113.602 176.248C116.783 172.156 116.034 166.268 111.93 163.096C107.826 159.925 101.92 160.671 98.7395 164.763C95.5586 168.855 96.307 174.743 100.411 177.915C104.515 181.086 110.421 180.34 113.602 176.248Z" fill="#C91330"/>
<path d="M215.303 201.644C169.408 260.735 88.8312 275.108 35.2755 233.724C21.4165 223.03 10.7611 209.629 3.30924 194.631C2.26459 193.728 1.1503 192.825 0.175293 191.853C25.2469 251.639 90.0151 287.329 156.037 273.858C231.182 258.443 279.584 185.326 264.123 110.473C256.602 74.088 235.43 43.9523 207.016 24.3711C255.418 66.936 259.596 144.705 215.303 201.644Z" fill="#16375D"/>
</svg>
