<svg width="30" height="30" viewBox="0 0 30 30" fill="none" xmlns="http://www.w3.org/2000/svg">
    <path d="M17.9526 19.4285C18.3708 19.4285 18.7337 19.2748 19.0413 18.9672C19.3488 18.6597 19.5026 18.2968 19.5026 17.8785C19.5026 17.4603 19.3488 17.0974 19.0413 16.7899C18.7337 16.4823 18.3708 16.3285 17.9526 16.3285C17.5343 16.3285 17.1714 16.4823 16.8639 16.7899C16.5563 17.0974 16.4026 17.4603 16.4026 17.8785C16.4026 18.2968 16.5563 18.6597 16.8639 18.9672C17.1714 19.2748 17.5343 19.4285 17.9526 19.4285ZM16.8454 14.7047H19.0597C19.0597 13.9912 19.1335 13.4684 19.2811 13.1363C19.4288 12.8041 19.7732 12.3674 20.3145 11.8262C21.0526 11.0881 21.5446 10.4914 21.7907 10.0363C22.0367 9.58112 22.1597 9.046 22.1597 8.43093C22.1597 7.32378 21.7722 6.41962 20.9972 5.71842C20.2222 5.01723 19.2073 4.66664 17.9526 4.66664C16.9438 4.66664 16.0643 4.94958 15.3139 5.51545C14.5635 6.08132 14.0407 6.83172 13.7454 7.76664L15.7383 8.57854C15.9597 7.96346 16.2611 7.50216 16.6424 7.19462C17.0238 6.88708 17.4605 6.73331 17.9526 6.73331C18.543 6.73331 19.0228 6.89938 19.3919 7.23152C19.7609 7.56366 19.9454 8.01267 19.9454 8.57854C19.9454 8.92299 19.847 9.24898 19.6502 9.55652C19.4534 9.86406 19.1089 10.2516 18.6169 10.719C17.8049 11.4325 17.3067 11.9922 17.1222 12.3982C16.9377 12.8041 16.8454 13.573 16.8454 14.7047ZM9.09542 23.8571C8.28352 23.8571 7.58848 23.568 7.01031 22.9899C6.43213 22.4117 6.14304 21.7166 6.14304 20.9047V3.19045C6.14304 2.37854 6.43213 1.6835 7.01031 1.10533C7.58848 0.527155 8.28352 0.238068 9.09542 0.238068H26.8097C27.6216 0.238068 28.3167 0.527155 28.8948 1.10533C29.473 1.6835 29.7621 2.37854 29.7621 3.19045V20.9047C29.7621 21.7166 29.473 22.4117 28.8948 22.9899C28.3167 23.568 27.6216 23.8571 26.8097 23.8571H9.09542ZM3.19066 29.7619C2.37876 29.7619 1.68372 29.4728 1.10554 28.8946C0.527369 28.3164 0.238281 27.6214 0.238281 26.8095V6.14283H3.19066V26.8095H23.8573V29.7619H3.19066Z" fill="#33B469"/>
</svg>
