<svg width="34" height="28" viewBox="0 0 34 28" fill="none" xmlns="http://www.w3.org/2000/svg">
    <path d="M15.6143 22.1185H28.9476V21.2018C28.9476 19.9518 28.3365 18.9588 27.1143 18.2227C25.892 17.4865 24.2809 17.1185 22.2809 17.1185C20.2809 17.1185 18.6698 17.4865 17.4476 18.2227C16.2254 18.9588 15.6143 19.9518 15.6143 21.2018V22.1185ZM22.2809 15.4518C23.1976 15.4518 23.9823 15.1254 24.6351 14.4727C25.2879 13.8199 25.6143 13.0352 25.6143 12.1185C25.6143 11.2018 25.2879 10.4171 24.6351 9.76432C23.9823 9.11154 23.1976 8.78515 22.2809 8.78515C21.3643 8.78515 20.5795 9.11154 19.9268 9.76432C19.274 10.4171 18.9476 11.2018 18.9476 12.1185C18.9476 13.0352 19.274 13.8199 19.9268 14.4727C20.5795 15.1254 21.3643 15.4518 22.2809 15.4518ZM3.94759 27.1185C3.03092 27.1185 2.2462 26.7921 1.59342 26.1393C0.940647 25.4865 0.614258 24.7018 0.614258 23.7852V3.78515C0.614258 2.86849 0.940647 2.08376 1.59342 1.43099C2.2462 0.778209 3.03092 0.45182 3.94759 0.45182H13.9476L17.2809 3.78515H30.6143C31.5309 3.78515 32.3156 4.11154 32.9684 4.76432C33.6212 5.4171 33.9476 6.20182 33.9476 7.11849V23.7852C33.9476 24.7018 33.6212 25.4865 32.9684 26.1393C32.3156 26.7921 31.5309 27.1185 30.6143 27.1185H3.94759ZM3.94759 23.7852H30.6143V7.11849H15.9059L12.5726 3.78515H3.94759V23.7852Z" fill="#FF8300"/>
</svg>
