<svg width="31" height="31" viewBox="0 0 31 31" fill="none" xmlns="http://www.w3.org/2000/svg">
    <path d="M21.3805 19.9047C20.1504 19.9047 19.1047 19.4742 18.2436 18.6131C17.3825 17.752 16.952 16.7063 16.952 15.4762C16.952 14.246 17.3825 13.2004 18.2436 12.3393C19.1047 11.4782 20.1504 11.0476 21.3805 11.0476C22.6107 11.0476 23.6563 11.4782 24.5174 12.3393C25.3786 13.2004 25.8091 14.246 25.8091 15.4762C25.8091 16.7063 25.3786 17.752 24.5174 18.6131C23.6563 19.4742 22.6107 19.9047 21.3805 19.9047ZM12.5234 30.2381V25.9571C12.5234 25.4405 12.6464 24.9545 12.8924 24.4994C13.1385 24.0442 13.4829 23.6813 13.9258 23.4107C14.7131 22.9432 15.5434 22.5557 16.4168 22.2482C17.2903 21.9407 18.1821 21.7131 19.0924 21.5655L21.3805 24.3333L23.6686 21.5655C24.5789 21.7131 25.4647 21.9407 26.3258 22.2482C27.1869 22.5557 28.0111 22.9432 28.7984 23.4107C29.2412 23.6813 29.5918 24.0442 29.8502 24.4994C30.1085 24.9545 30.2377 25.4405 30.2377 25.9571V30.2381H12.5234ZM9.57101 25.9571V27.2857H3.66625C2.85434 27.2857 2.1593 26.9966 1.58113 26.4184C1.00295 25.8403 0.713867 25.1452 0.713867 24.3333V3.66665C0.713867 2.85474 1.00295 2.1597 1.58113 1.58153C2.1593 1.00335 2.85434 0.714264 3.66625 0.714264H24.3329C25.1448 0.714264 25.8399 1.00335 26.418 1.58153C26.9962 2.1597 27.2853 2.85474 27.2853 3.66665V11.0476C26.5226 10.0881 25.6615 9.35613 24.702 8.85176C23.7424 8.3474 22.6353 8.09522 21.3805 8.09522V6.61903H6.61863V9.57141H16.952C16.4599 9.96506 16.017 10.4079 15.6234 10.9C15.2297 11.392 14.8976 11.9333 14.627 12.5238H6.61863V15.4762H13.9996C13.9996 15.9928 14.0549 16.4972 14.1657 16.9893C14.2764 17.4813 14.4301 17.9611 14.627 18.4286H6.61863V21.3809H11.7115C11.0472 21.9468 10.5244 22.6295 10.143 23.4291C9.76169 24.2287 9.57101 25.0714 9.57101 25.9571Z" fill="#EBBC2E"/>
</svg>
