<svg width="34" height="34" viewBox="0 0 34 34" fill="none" xmlns="http://www.w3.org/2000/svg">
    <path d="M3.33333 30C2.41667 30 1.63194 29.6736 0.979167 29.0208C0.326389 28.3681 0 27.5833 0 26.6667V3.33333C0 2.41667 0.326389 1.63194 0.979167 0.979167C1.63194 0.326389 2.41667 0 3.33333 0H26.6667C27.5833 0 28.3681 0.326389 29.0208 0.979167C29.6736 1.63194 30 2.41667 30 3.33333V14.5C29.4722 14.25 28.9306 14.0347 28.375 13.8542C27.8194 13.6736 27.25 13.5417 26.6667 13.4583V3.33333H3.33333V26.6667H13.4167C13.5 27.2778 13.6319 27.8611 13.8125 28.4167C13.9931 28.9722 14.2083 29.5 14.4583 30H3.33333ZM3.33333 26.6667V3.33333V13.4583V13.3333V26.6667ZM6.66667 23.3333H13.4583C13.5417 22.75 13.6736 22.1806 13.8542 21.625C14.0347 21.0694 14.2361 20.5278 14.4583 20H6.66667V23.3333ZM6.66667 16.6667H16.8333C17.7222 15.8333 18.7153 15.1389 19.8125 14.5833C20.9097 14.0278 22.0833 13.6528 23.3333 13.4583V13.3333H6.66667V16.6667ZM6.66667 10H23.3333V6.66667H6.66667V10ZM25 33.3333C22.6944 33.3333 20.7292 32.5208 19.1042 30.8958C17.4792 29.2708 16.6667 27.3056 16.6667 25C16.6667 22.6944 17.4792 20.7292 19.1042 19.1042C20.7292 17.4792 22.6944 16.6667 25 16.6667C27.3056 16.6667 29.2708 17.4792 30.8958 19.1042C32.5208 20.7292 33.3333 22.6944 33.3333 25C33.3333 27.3056 32.5208 29.2708 30.8958 30.8958C29.2708 32.5208 27.3056 33.3333 25 33.3333ZM24.1667 30H25.8333V25.8333H30V24.1667H25.8333V20H24.1667V24.1667H20V25.8333H24.1667V30Z" fill="#2360A6"/>
</svg>
