<svg width="32" height="32" viewBox="0 0 32 32" fill="none" xmlns="http://www.w3.org/2000/svg">
    <path d="M4.32623 8.10283C5.16276 7.51815 6.42379 7.63028 7.17488 8.25056L6.31343 6.99843C5.62018 6.00972 5.86847 4.94003 6.85807 4.24588C7.84767 3.55441 10.6518 5.41347 10.6518 5.41347C9.95235 4.41497 10.0832 3.14949 11.0817 2.44912C12.0802 1.75142 13.4578 1.99259 14.1573 2.99287L23.4303 16.0926L22.2485 27.5504L12.3854 23.9533L3.78248 11.198C3.07677 10.1933 3.32061 8.80765 4.32623 8.10283Z" fill="#FFA600"/>
    <path d="M2.39841 15.3904C2.39841 15.3904 1.39102 13.922 2.86029 12.9155C4.32778 11.909 5.33428 13.3765 5.33428 13.3765L10.0073 20.1915C10.1684 19.9228 10.3446 19.6576 10.5412 19.3959L4.05546 9.93868C4.05546 9.93868 3.04895 8.47119 4.51733 7.46468C5.98482 6.45817 6.99133 7.92566 6.99133 7.92566L13.0918 16.8223C13.3187 16.6372 13.551 16.4512 13.7904 16.2687L6.71812 5.95359C6.71812 5.95359 5.71161 4.4861 7.17999 3.47959C8.64748 2.47308 9.65399 3.94057 9.65399 3.94057L16.7262 14.2539C16.9861 14.0946 17.2433 13.9567 17.5014 13.8108L10.891 4.17106C10.891 4.17106 9.88448 2.70357 11.352 1.69706C12.8195 0.690557 13.826 2.15805 13.826 2.15805L20.8155 12.3513L21.878 13.9015C17.4747 16.9219 17.0555 22.6041 19.5713 26.2733C20.0741 27.0075 20.8083 26.5047 20.8083 26.5047C17.7888 22.1004 18.7108 17.1515 23.115 14.132L21.8166 7.63377C21.8166 7.63377 21.3316 5.92155 23.0429 5.43565C24.7552 4.95064 25.2411 6.66286 25.2411 6.66286L26.7406 11.1161C27.3351 12.8817 27.9678 14.6411 28.8052 16.3052C31.1698 21.004 29.7574 26.8437 25.2989 29.9024C20.4355 33.237 13.7868 31.9973 10.4514 27.1347L2.39841 15.3904Z" fill="#FFDC5D"/>
    <path d="M10.6788 28.4777C7.11913 28.4777 3.52204 24.8806 3.52204 21.3209C3.52204 20.8288 3.16162 20.431 2.66949 20.431C2.17736 20.431 1.74219 20.8288 1.74219 21.3209C1.74219 26.6605 5.33927 30.2576 10.6788 30.2576C11.171 30.2576 11.5688 29.8224 11.5688 29.3303C11.5688 28.8381 11.171 28.4777 10.6788 28.4777Z" fill="#5DADEC"/>
    <path d="M6.22949 30.2201C3.55971 30.2201 1.77985 28.4403 1.77985 25.7705C1.77985 25.2784 1.38206 24.8806 0.889927 24.8806C0.397797 24.8806 0 25.2784 0 25.7705C0 29.3302 2.66978 32 6.22949 32C6.72162 32 7.11942 31.6022 7.11942 31.1101C7.11942 30.6179 6.72162 30.2201 6.22949 30.2201ZM21.3582 1.74246C20.867 1.74246 20.4683 2.14115 20.4683 2.63239C20.4683 3.12363 20.867 3.52232 21.3582 3.52232C24.918 3.52232 28.4777 6.71626 28.4777 10.6417C28.4777 11.133 28.8764 11.5317 29.3676 11.5317C29.8588 11.5317 30.2575 11.133 30.2575 10.6417C30.2575 5.73468 26.6978 1.74246 21.3582 1.74246Z" fill="#5DADEC"/>
    <path d="M25.8079 0C25.3167 0 24.918 0.36131 24.918 0.85255C24.918 1.34379 25.3167 1.77985 25.8079 1.77985C28.4777 1.77985 30.2202 3.75994 30.2202 6.19211C30.2202 6.68335 30.6553 7.08204 31.1475 7.08204C31.6396 7.08204 32 6.68335 32 6.19211C32 2.77746 29.3676 0 25.8079 0Z" fill="#5DADEC"/>
</svg>
